<svg width="1293" height="81" viewBox="0 0 1293 81" fill="none" xmlns="http://www.w3.org/2000/svg">
<g clip-path="url(#clip0_2022_2342)">
<path d="M49.6349 12.6339C37.5194 10.6064 25.4149 8.58068 13.2994 6.55315C13.4643 17.1793 13.6385 27.8183 13.8034 38.4445C26.0647 37.0205 38.3241 35.6077 50.5854 34.1838C50.2636 27.0073 49.9437 19.8197 49.6349 12.6339Z" fill="#E5A166"/>
<path d="M13.8035 38.4445C13.6275 27.8165 13.4645 17.1793 13.2995 6.55316C12.1941 6.36816 11.0997 6.18502 9.99428 6.00003C10.2436 20.2643 10.4357 34.5304 10.7753 48.7984C11.0953 62.4363 16.8522 67.2174 28.6759 68.1363C28.8546 68.1548 29.1144 68.2324 29.2195 68.1475C34.7751 63.4702 41.1006 67.2297 46.8712 66.3606C52.5017 65.5137 57.8559 62.9225 63.7425 62.0386C68.2193 61.3633 71.1407 54.2281 70.6327 48.7754C70.1102 43.138 65.4068 37.2909 60.2246 36.002C58.4248 35.5527 56.5694 35.3675 53.7284 34.8921C53.4655 27.771 53.1973 20.4781 52.9273 13.1963C51.8219 13.0113 50.7275 12.8281 49.6221 12.6432C49.942 19.8308 50.2508 27.0165 50.5726 34.193C52.3754 35.3039 54.0357 36.9265 55.9939 37.4479C62.9021 39.2878 68.5612 45.7392 67.9925 51.6499C67.5058 56.731 63.9943 59.3798 56.7663 60.1304C57.3987 49.9682 55.1172 45.2672 50.8266 45.9167C51.8413 49.7675 53.792 53.7294 53.6733 57.6298C53.5508 61.6892 48.0325 64.3783 43.6271 63.8804C38.4423 63.2862 38.3279 60.1673 38.8579 55.914C39.4622 51.0805 35.7439 47.4953 32.4437 49.0171C38.1631 57.5528 36.7526 63.2655 28.4489 65.215C23.2915 66.4261 16.5864 62.6258 15.2519 56.4764C13.9777 50.6449 14.215 44.4736 13.7906 38.4537L13.8035 38.4445Z" fill="#13110C"/>
<path d="M13.8034 38.4445C14.2278 44.4643 13.9905 50.6356 15.2646 56.4672C16.6103 62.6184 23.3043 66.4168 28.4616 65.2058C36.7653 63.2563 38.1759 57.5435 32.4565 49.0078C35.7659 47.4989 39.4731 51.0824 38.8706 55.9047C38.3406 60.158 38.4551 63.277 43.6398 63.8711C48.0434 64.3801 53.5636 61.6799 53.6861 57.6206C53.8047 53.7201 51.8632 49.7712 50.8393 45.9074C55.13 45.2579 57.4115 49.9589 56.779 60.1211C63.9942 59.3798 67.5076 56.7198 68.0053 51.6406C68.5758 45.7189 62.9278 39.2693 56.0067 37.4387C54.0484 36.9172 52.3863 35.3057 50.5854 34.1838C38.3241 35.6077 26.0646 37.0205 13.8034 38.4445Z" fill="white"/>
</g>
<g clip-path="url(#clip1_2022_2342)">
<path d="M102.725 12.6339C114.841 10.6064 126.945 8.58068 139.061 6.55315C138.896 17.1793 138.722 27.8183 138.557 38.4445C126.295 37.0205 114.036 35.6077 101.775 34.1838C102.096 27.0073 102.416 19.8197 102.725 12.6339Z" fill="#E5A166"/>
<path d="M138.557 38.4445C138.733 27.8165 138.896 17.1793 139.061 6.55316C140.166 6.36816 141.26 6.18502 142.366 6.00003C142.117 20.2643 141.924 34.5304 141.585 48.7984C141.265 62.4363 135.508 67.2174 123.684 68.1363C123.505 68.1548 123.246 68.2324 123.141 68.1475C117.585 63.4702 111.259 67.2297 105.489 66.3606C99.8584 65.5137 94.5042 62.9225 88.6176 62.0386C84.1408 61.3633 81.2194 54.2281 81.7274 48.7754C82.2499 43.138 86.9533 37.2909 92.1355 36.002C93.9353 35.5527 95.7908 35.3675 98.6317 34.8921C98.8946 27.771 99.1628 20.4781 99.4328 13.1963C100.538 13.0113 101.633 12.8281 102.738 12.6432C102.418 19.8308 102.109 27.0165 101.788 34.193C99.9847 35.3039 98.3244 36.9265 96.3662 37.4479C89.458 39.2878 83.7989 45.7392 84.3676 51.6499C84.8543 56.731 88.3658 59.3798 95.5938 60.1304C94.9614 49.9682 97.2429 45.2672 101.534 45.9167C100.519 49.7675 98.5682 53.7294 98.6868 57.6298C98.8093 61.6892 104.328 64.3783 108.733 63.8804C113.918 63.2862 114.032 60.1673 113.502 55.914C112.898 51.0805 116.616 47.4953 119.916 49.0171C114.197 57.5528 115.608 63.2655 123.911 65.215C129.069 66.4261 135.774 62.6258 137.108 56.4764C138.382 50.6449 138.145 44.4736 138.569 38.4537L138.557 38.4445Z" fill="#13110C"/>
<path d="M138.557 38.4445C138.132 44.4643 138.37 50.6356 137.095 56.4672C135.75 62.6184 129.056 66.4168 123.898 65.2058C115.595 63.2563 114.184 57.5435 119.904 49.0078C116.594 47.4989 112.887 51.0824 113.489 55.9047C114.019 60.158 113.905 63.277 108.72 63.8711C104.317 64.3801 98.7965 61.6799 98.674 57.6206C98.5554 53.7201 100.497 49.7712 101.521 45.9074C97.2302 45.2579 94.9486 49.9589 95.5811 60.1211C88.366 59.3798 84.8526 56.7198 84.3548 51.6406C83.7843 45.7189 89.4324 39.2693 96.3534 37.4387C98.3117 36.9172 99.9738 35.3057 101.775 34.1838C114.036 35.6077 126.295 37.0205 138.557 38.4445Z" fill="white"/>
</g>
<g clip-path="url(#clip2_2022_2342)">
<path d="M1195.72 16.4846C1195.14 16.6288 1194.03 16.7899 1194.03 16.9256C1194.2 24.8797 1194.58 32.8254 1194.65 40.7795C1194.69 45.206 1193.85 49.641 1194.03 54.0506C1194.38 63.0477 1198.77 68.424 1207.22 67.9915C1209.44 67.8728 1211.59 66.3803 1214.09 65.3967C1216.83 68.0933 1220.53 67.8474 1224.42 66.2023C1225.77 65.6341 1227.15 64.9048 1228.56 64.7776C1234.33 64.2688 1237.65 61.9369 1238.81 57.2644C1239.81 53.2111 1236.76 47.2751 1232.31 45.0364C1230.57 44.1545 1228.6 43.7305 1225.91 42.8232V14.212C1225.42 14.1442 1224.93 14.0763 1224.44 14C1224.22 14.831 1224.01 15.6536 1223.79 16.4846C1223.79 17.9516 1223.79 19.4187 1223.79 20.8857C1223.79 22.234 1223.79 23.5823 1223.79 24.9306C1223.79 28.0851 1223.79 31.2312 1223.79 34.3857C1224.07 37.9388 1224.36 41.4833 1224.59 44.4598C1227.4 45.5028 1229.78 46.0455 1231.81 47.2073C1235.36 49.2425 1237.41 53.669 1236.27 57.0948C1235.36 59.8423 1233.84 62.522 1230.28 62.1913C1229.62 62.1319 1228.75 61.1991 1228.53 60.4953C1227.71 57.9004 1227.29 55.1614 1226.36 52.6175C1226.13 51.973 1224.58 51.8119 1223.65 51.4303C1223.48 51.7695 1223.3 52.1087 1223.14 52.4563C1223.66 53.0245 1224.22 53.5672 1224.72 54.1693C1226.87 56.7896 1227.4 60.0119 1225.28 62.4287C1223.81 64.1162 1220.83 65.456 1218.65 65.261C1215.42 64.9727 1214.59 62.1149 1214.58 58.723C1214.58 56.6624 1212.86 54.6102 1211.92 52.5496C1211.4 52.8464 1210.87 53.1432 1210.36 53.44C1210.8 54.3219 1211.11 55.331 1211.71 56.0773C1213.76 58.6043 1213.87 60.9278 1211.52 63.37C1207.41 67.6354 1201.2 66.6941 1198.1 61.2839C1195.04 55.9331 1196.96 50.1328 1196.56 44.5361C1196.56 42.2211 1196.56 39.9146 1196.56 37.5996C1196.56 36.2513 1196.56 34.903 1196.56 33.5546C1196.56 32.3675 1196.56 31.1888 1196.56 30.0016L1196.47 26.7114C1196.22 23.3024 1195.98 19.8935 1195.73 16.4846H1195.72Z" fill="#13110C"/>
<path d="M1223.79 20.8857C1223.79 19.4187 1223.79 17.9516 1223.79 16.4846C1214.43 16.4846 1205.07 16.4846 1195.71 16.4846C1195.96 19.8935 1196.2 23.3025 1196.45 26.7114C1198.37 26.1432 1200.4 24.8712 1202.2 25.1426C1209.95 26.3043 1216.42 21.2927 1223.79 20.8857Z" fill="#858180"/>
<path d="M1196.55 44.5276C1196.94 50.1159 1195.02 55.9161 1198.08 61.2754C1201.18 66.6856 1207.39 67.6269 1211.5 63.3615C1213.85 60.9193 1213.74 58.6043 1211.69 56.0688C1211.08 55.3225 1210.78 54.3219 1210.34 53.4315C1210.86 53.1347 1211.38 52.8379 1211.9 52.5411C1212.84 54.6018 1214.56 56.6539 1214.56 58.7145C1214.57 62.1065 1215.4 64.9642 1218.64 65.2525C1220.8 65.4475 1223.79 64.1077 1225.27 62.4202C1227.39 60.0035 1226.85 56.7896 1224.7 54.1608C1224.21 53.5587 1223.65 53.016 1223.12 52.4479C1223.29 52.1087 1223.46 51.7695 1223.63 51.4218C1224.57 51.8034 1226.11 51.956 1226.34 52.609C1227.27 55.1614 1227.7 57.892 1228.51 60.4868C1228.74 61.1906 1229.62 62.1234 1230.26 62.1828C1233.82 62.5135 1235.34 59.8254 1236.25 57.0864C1237.39 53.669 1235.34 49.2425 1231.8 47.1988C1229.77 46.0371 1227.39 45.4943 1224.57 44.4513C1224.34 41.4834 1224.06 37.9303 1223.77 34.3772C1221.15 34.3518 1218.52 34.3772 1215.9 34.2839C1209.45 34.0634 1202.98 33.7921 1196.53 33.5377C1196.53 34.886 1196.53 36.2343 1196.53 37.5826C1198.37 37.4384 1200.24 37.0399 1202.06 37.1925C1205.28 37.4554 1208.46 38.3204 1211.67 38.4391C1214.54 38.5493 1217.42 37.9896 1220.29 37.7183C1220.42 38.066 1220.55 38.4136 1220.68 38.7613C1219.66 39.4736 1218.72 40.6099 1217.6 40.8219C1210.6 42.1702 1203.55 43.3065 1196.52 44.5107L1196.55 44.5276Z" fill="white"/>
<path d="M1196.55 33.5546C1203 33.809 1209.46 34.0804 1215.92 34.3009C1218.54 34.3942 1221.16 34.3602 1223.79 34.3942C1223.79 31.2396 1223.79 28.0936 1223.79 24.9391C1221.56 25.4224 1219.13 25.4733 1217.14 26.4655C1210.57 29.7217 1203.5 29.3825 1196.55 30.0101C1196.55 31.1972 1196.55 32.3759 1196.55 33.5631V33.5546Z" fill="#858180"/>
<path d="M1196.55 44.5276C1203.58 43.3235 1210.62 42.1787 1217.63 40.8389C1218.74 40.6269 1219.68 39.4906 1220.71 38.7783C1220.57 38.4306 1220.45 38.0829 1220.32 37.7352C1217.44 37.9981 1214.55 38.5578 1211.7 38.456C1208.49 38.3373 1205.3 37.4808 1202.08 37.2095C1200.26 37.0568 1198.4 37.4469 1196.55 37.5996C1196.55 39.9146 1196.55 42.2211 1196.55 44.5361L1196.55 44.5276Z" fill="#858180"/>
<path d="M1196.55 29.9931C1203.5 29.3656 1210.57 29.7048 1217.14 26.4485C1219.13 25.4648 1221.56 25.4055 1223.79 24.9221C1223.79 23.5738 1223.79 22.2255 1223.79 20.8772C1216.42 21.2758 1209.95 26.2959 1202.2 25.1341C1200.4 24.8628 1198.37 26.1432 1196.45 26.7029C1196.49 27.7968 1196.51 28.8907 1196.55 29.9931Z" fill="white"/>
</g>
<g clip-path="url(#clip3_2022_2342)">
<path d="M1291.28 16.4846C1291.86 16.6288 1292.97 16.7899 1292.97 16.9256C1292.8 24.8797 1292.42 32.8254 1292.35 40.7795C1292.31 45.206 1293.15 49.641 1292.97 54.0506C1292.62 63.0477 1288.23 68.424 1279.78 67.9915C1277.56 67.8728 1275.41 66.3803 1272.91 65.3967C1270.17 68.0933 1266.47 67.8474 1262.58 66.2023C1261.23 65.6341 1259.85 64.9048 1258.44 64.7776C1252.67 64.2688 1249.35 61.9369 1248.19 57.2644C1247.19 53.2111 1250.24 47.2751 1254.69 45.0364C1256.43 44.1545 1258.4 43.7305 1261.09 42.8232V14.212C1261.58 14.1442 1262.07 14.0763 1262.56 14C1262.78 14.831 1262.99 15.6536 1263.21 16.4846C1263.21 17.9516 1263.21 19.4187 1263.21 20.8857C1263.21 22.234 1263.21 23.5823 1263.21 24.9306C1263.21 28.0851 1263.21 31.2312 1263.21 34.3857C1262.93 37.9388 1262.64 41.4833 1262.41 44.4598C1259.6 45.5028 1257.22 46.0455 1255.19 47.2073C1251.64 49.2425 1249.59 53.669 1250.73 57.0948C1251.64 59.8423 1253.16 62.522 1256.72 62.1913C1257.38 62.1319 1258.25 61.1991 1258.47 60.4953C1259.29 57.9004 1259.71 55.1614 1260.64 52.6175C1260.87 51.973 1262.42 51.8119 1263.35 51.4303C1263.52 51.7695 1263.7 52.1087 1263.86 52.4563C1263.34 53.0245 1262.78 53.5672 1262.28 54.1693C1260.13 56.7896 1259.6 60.0119 1261.72 62.4287C1263.19 64.1162 1266.17 65.456 1268.35 65.261C1271.58 64.9727 1272.41 62.1149 1272.42 58.723C1272.42 56.6624 1274.14 54.6102 1275.08 52.5496C1275.6 52.8464 1276.13 53.1432 1276.64 53.44C1276.2 54.3219 1275.89 55.331 1275.29 56.0773C1273.24 58.6043 1273.13 60.9278 1275.48 63.37C1279.59 67.6354 1285.8 66.6941 1288.9 61.2839C1291.96 55.9331 1290.04 50.1328 1290.44 44.5361C1290.44 42.2211 1290.44 39.9146 1290.44 37.5996C1290.44 36.2513 1290.44 34.903 1290.44 33.5546C1290.44 32.3675 1290.44 31.1888 1290.44 30.0016L1290.53 26.7114C1290.78 23.3024 1291.02 19.8935 1291.27 16.4846H1291.28Z" fill="#13110C"/>
<path d="M1263.21 20.8857C1263.21 19.4187 1263.21 17.9516 1263.21 16.4846C1272.57 16.4846 1281.93 16.4846 1291.29 16.4846C1291.04 19.8935 1290.8 23.3025 1290.55 26.7114C1288.63 26.1432 1286.6 24.8712 1284.8 25.1426C1277.05 26.3043 1270.58 21.2927 1263.21 20.8857Z" fill="#858180"/>
<path d="M1290.45 44.5276C1290.06 50.1159 1291.98 55.9161 1288.92 61.2754C1285.82 66.6856 1279.61 67.6269 1275.5 63.3615C1273.15 60.9193 1273.26 58.6043 1275.31 56.0688C1275.92 55.3225 1276.22 54.3219 1276.66 53.4315C1276.14 53.1347 1275.62 52.8379 1275.1 52.5411C1274.16 54.6018 1272.44 56.6539 1272.44 58.7145C1272.43 62.1065 1271.6 64.9642 1268.36 65.2525C1266.2 65.4475 1263.21 64.1077 1261.73 62.4202C1259.61 60.0035 1260.15 56.7896 1262.3 54.1608C1262.79 53.5587 1263.35 53.016 1263.88 52.4479C1263.71 52.1087 1263.54 51.7695 1263.37 51.4218C1262.43 51.8034 1260.89 51.956 1260.66 52.609C1259.73 55.1614 1259.3 57.892 1258.49 60.4868C1258.26 61.1906 1257.38 62.1234 1256.74 62.1828C1253.18 62.5135 1251.66 59.8254 1250.75 57.0864C1249.61 53.669 1251.66 49.2425 1255.2 47.1988C1257.23 46.0371 1259.61 45.4943 1262.43 44.4513C1262.66 41.4834 1262.94 37.9303 1263.23 34.3772C1265.85 34.3518 1268.48 34.3772 1271.1 34.2839C1277.55 34.0634 1284.02 33.7921 1290.47 33.5377C1290.47 34.886 1290.47 36.2343 1290.47 37.5826C1288.63 37.4384 1286.76 37.0399 1284.94 37.1925C1281.72 37.4554 1278.54 38.3204 1275.33 38.4391C1272.46 38.5493 1269.58 37.9896 1266.71 37.7183C1266.58 38.066 1266.45 38.4136 1266.32 38.7613C1267.34 39.4736 1268.28 40.6099 1269.4 40.8219C1276.4 42.1702 1283.45 43.3065 1290.48 44.5107L1290.45 44.5276Z" fill="white"/>
<path d="M1290.45 33.5546C1284 33.809 1277.54 34.0804 1271.08 34.3009C1268.46 34.3942 1265.84 34.3602 1263.21 34.3942C1263.21 31.2396 1263.21 28.0936 1263.21 24.9391C1265.44 25.4224 1267.87 25.4733 1269.86 26.4655C1276.43 29.7217 1283.5 29.3825 1290.45 30.0101C1290.45 31.1972 1290.45 32.3759 1290.45 33.5631V33.5546Z" fill="#858180"/>
<path d="M1290.45 44.5276C1283.42 43.3235 1276.38 42.1787 1269.37 40.8389C1268.26 40.6269 1267.32 39.4906 1266.29 38.7783C1266.43 38.4306 1266.55 38.0829 1266.68 37.7352C1269.56 37.9981 1272.45 38.5578 1275.3 38.456C1278.51 38.3373 1281.7 37.4808 1284.92 37.2095C1286.74 37.0568 1288.6 37.4469 1290.45 37.5996C1290.45 39.9146 1290.45 42.2211 1290.45 44.5361L1290.45 44.5276Z" fill="#858180"/>
<path d="M1290.45 29.9931C1283.5 29.3656 1276.43 29.7048 1269.86 26.4485C1267.87 25.4648 1265.44 25.4055 1263.21 24.9221C1263.21 23.5738 1263.21 22.2255 1263.21 20.8772C1270.58 21.2758 1277.05 26.2959 1284.8 25.1341C1286.6 24.8628 1288.63 26.1432 1290.55 26.7029C1290.51 27.7968 1290.49 28.8907 1290.45 29.9931Z" fill="white"/>
</g>
<g clip-path="url(#clip4_2022_2342)">
<path d="M697.25 5.40001C694.45 4.71001 694.56 4.73001 694.25 6.99001C692.97 16.26 691.63 25.51 690.27 34.77C689.94 36.99 689.01 38.04 686.33 38.54C676.9 40.3 671.97 45.27 673.47 55.3C674.15 59.86 678.17 61.92 682.29 63.24C683.04 63.48 684.19 62.95 684.72 63.36C689.8 67.23 695.14 67.59 701.48 66.89C704.03 66.61 707.65 70.59 711.95 70.37C719.33 69.99 725.27 64.52 726.19 57.13C728.01 42.55 730.14 28.01 732 13.44C732.11 12.6 730.82 11.57 730.18 10.63C729.84 10.96 729.51 11.29 729.17 11.62C728.77 15.57 728.38 19.52 727.98 23.47C727.65 24.77 727.32 26.08 726.98 27.38C726.98 28.73 726.98 30.08 726.98 31.44C726.65 33.08 726.32 34.71 725.98 36.35C725.65 39.36 725.32 42.37 724.99 45.37C724.71 47.75 724.41 50.13 724.15 52.52C723.44 59.03 721.89 64.88 714.7 67.42C710.36 68.95 706.49 68.2 703.97 64.47C701.32 60.55 703.04 57.37 705.78 54.32C706.33 53.71 706.39 52.65 706.67 51.8L704.85 51.05C703.32 53.95 701.05 56.7 700.42 59.79C699.34 65.1 696.99 66.76 691.99 64.46C686.54 61.95 685.41 56.95 689.13 52.01C690.03 50.81 690.83 49.53 691.68 48.29C685.22 49.95 684.84 55.31 683.94 60.24C677.17 59.66 673.93 54.23 676.28 48.42C678.57 42.76 683.57 41.76 688.5 40.31C689.85 39.92 691.02 38.93 692.27 38.22C693 34.63 693.73 31.04 694.45 27.45C694.78 24.44 695.11 21.43 695.45 18.41C695.78 16.77 696.11 15.14 696.45 13.5C696.45 11.48 696.45 9.47001 696.45 7.45001C696.73 6.76001 697 6.06001 697.28 5.37001L697.25 5.40001Z" fill="#13110C"/>
<path d="M696.42 7.48001C696.42 9.50001 696.42 11.51 696.42 13.53C697.23 13.62 698.12 13.53 698.84 13.83C703.13 15.63 707.26 17.87 711.67 19.3C716.99 21.04 722.53 22.12 727.98 23.48C728.38 19.53 728.77 15.58 729.17 11.63C729.15 11.34 729.11 11.04 729.06 10.75C728.42 10.68 727.79 10.6 727.15 10.53C725.45 10.79 723.69 11.46 722.05 11.25C713.49 10.12 704.96 8.76001 696.42 7.48001Z" fill="#CE7E43"/>
<path d="M696.42 7.48001C704.96 8.76001 713.49 10.12 722.05 11.25C723.69 11.47 725.44 10.79 727.15 10.53C719.75 9.19001 712.36 7.83001 704.95 6.52001C702.4 6.07001 699.82 5.76001 697.25 5.39001C696.97 6.08001 696.7 6.77001 696.42 7.47001V7.48001Z" fill="#E5A166"/>
<path d="M729.05 10.75C729.1 11.04 729.13 11.33 729.16 11.63C729.5 11.3 729.84 10.97 730.17 10.64C729.8 10.68 729.42 10.72 729.05 10.76V10.75Z" fill="#E5A166"/>
<path d="M692.25 38.24C691 38.95 689.82 39.94 688.48 40.33C683.55 41.78 678.55 42.77 676.26 48.44C673.91 54.25 677.15 59.68 683.92 60.26C684.82 55.33 685.2 49.97 691.66 48.31C690.81 49.55 690.02 50.83 689.11 52.03C685.39 56.97 686.52 61.97 691.97 64.48C696.97 66.79 699.32 65.12 700.4 59.81C701.03 56.72 703.3 53.97 704.83 51.07L706.65 51.82C706.37 52.67 706.31 53.73 705.76 54.34C703.02 57.38 701.3 60.57 703.95 64.49C706.48 68.22 710.35 68.97 714.68 67.44C721.87 64.9 723.42 59.05 724.13 52.54C724.39 50.16 724.69 47.77 724.97 45.39C721.7 44.66 718.44 43.94 715.17 43.21C707.52 41.56 699.87 39.9 692.22 38.25L692.25 38.24Z" fill="white"/>
<path d="M692.25 38.24C699.9 39.89 707.55 41.55 715.2 43.2C709.27 40.39 701.86 40.35 697.02 33.54C698.95 33.54 700.07 33.45 701.16 33.56C707.01 34.14 712.86 34.76 718.71 35.41C721.14 35.68 723.56 36.04 725.99 36.36C726.32 34.72 726.65 33.09 726.99 31.45C716.14 30.12 705.29 28.79 694.44 27.47C693.71 31.06 692.98 34.65 692.26 38.24H692.25Z" fill="#E5A166"/>
<path d="M694.43 27.47C705.28 28.8 716.13 30.13 726.98 31.45C726.98 30.1 726.98 28.75 726.98 27.39C725.39 27.06 723.76 26.88 722.23 26.38C715.95 24.33 709.74 22.09 703.44 20.12C700.85 19.31 698.11 18.98 695.44 18.43C695.11 21.44 694.78 24.45 694.44 27.47H694.43Z" fill="#CE7E43"/>
<path d="M725.98 36.36C723.55 36.04 721.13 35.68 718.7 35.41C712.85 34.77 707.01 34.15 701.15 33.56C700.06 33.45 698.94 33.54 697.01 33.54C701.86 40.35 709.26 40.39 715.19 43.2C718.46 43.93 721.72 44.65 724.99 45.38C725.32 42.37 725.65 39.36 725.98 36.36Z" fill="#CE7E43"/>
<path d="M695.43 18.43C698.1 18.98 700.84 19.31 703.43 20.12C709.73 22.1 715.95 24.33 722.22 26.38C723.75 26.88 725.39 27.06 726.97 27.39C727.3 26.09 727.63 24.78 727.97 23.48C722.53 22.12 716.99 21.03 711.66 19.3C707.26 17.87 703.12 15.63 698.83 13.83C698.11 13.53 697.22 13.62 696.41 13.53C696.08 15.17 695.75 16.8 695.41 18.44L695.43 18.43Z" fill="#E5A166"/>
</g>
<g clip-path="url(#clip5_2022_2342)">
<path d="M630.25 11.4C627.45 10.71 627.56 10.73 627.25 12.99C625.97 22.26 624.63 31.51 623.27 40.77C622.94 42.99 622.01 44.04 619.33 44.54C609.9 46.3 604.97 51.27 606.47 61.3C607.15 65.86 611.17 67.92 615.29 69.24C616.04 69.48 617.19 68.95 617.72 69.36C622.8 73.23 628.14 73.59 634.48 72.89C637.03 72.61 640.65 76.59 644.95 76.37C652.33 75.99 658.27 70.52 659.19 63.13C661.01 48.55 663.14 34.01 665 19.44C665.11 18.6 663.82 17.57 663.18 16.63C662.84 16.96 662.51 17.29 662.17 17.62C661.77 21.57 661.38 25.52 660.98 29.47C660.65 30.77 660.32 32.08 659.98 33.38C659.98 34.73 659.98 36.08 659.98 37.44C659.65 39.08 659.32 40.71 658.98 42.35C658.65 45.36 658.32 48.37 657.99 51.37C657.71 53.75 657.41 56.13 657.15 58.52C656.44 65.03 654.89 70.88 647.7 73.42C643.36 74.95 639.49 74.2 636.97 70.47C634.32 66.55 636.04 63.37 638.78 60.32C639.33 59.71 639.39 58.65 639.67 57.8L637.85 57.05C636.32 59.95 634.05 62.7 633.42 65.79C632.34 71.1 629.99 72.76 624.99 70.46C619.54 67.95 618.41 62.95 622.13 58.01C623.03 56.81 623.83 55.53 624.68 54.29C618.22 55.95 617.84 61.31 616.94 66.24C610.17 65.66 606.93 60.23 609.28 54.42C611.57 48.76 616.57 47.76 621.5 46.31C622.85 45.92 624.02 44.93 625.27 44.22C626 40.63 626.73 37.04 627.45 33.45C627.78 30.44 628.11 27.43 628.45 24.41C628.78 22.77 629.11 21.14 629.45 19.5C629.45 17.48 629.45 15.47 629.45 13.45C629.73 12.76 630 12.06 630.28 11.37L630.25 11.4Z" fill="#13110C"/>
<path d="M629.42 13.48C629.42 15.5 629.42 17.51 629.42 19.53C630.23 19.62 631.12 19.53 631.84 19.83C636.13 21.63 640.26 23.87 644.67 25.3C649.99 27.04 655.53 28.12 660.98 29.48C661.38 25.53 661.77 21.58 662.17 17.63C662.15 17.34 662.11 17.04 662.06 16.75C661.42 16.68 660.79 16.6 660.15 16.53C658.45 16.79 656.69 17.46 655.05 17.25C646.49 16.12 637.96 14.76 629.42 13.48Z" fill="#CE7E43"/>
<path d="M629.42 13.48C637.96 14.76 646.49 16.12 655.05 17.25C656.69 17.47 658.44 16.79 660.15 16.53C652.75 15.19 645.36 13.83 637.95 12.52C635.4 12.07 632.82 11.76 630.25 11.39C629.97 12.08 629.7 12.77 629.42 13.47V13.48Z" fill="#E5A166"/>
<path d="M662.05 16.75C662.1 17.04 662.13 17.33 662.16 17.63C662.5 17.3 662.84 16.97 663.17 16.64C662.8 16.68 662.42 16.72 662.05 16.76V16.75Z" fill="#E5A166"/>
<path d="M625.25 44.24C624 44.95 622.82 45.94 621.48 46.33C616.55 47.78 611.55 48.77 609.26 54.44C606.91 60.25 610.15 65.68 616.92 66.26C617.82 61.33 618.2 55.97 624.66 54.31C623.81 55.55 623.02 56.83 622.11 58.03C618.39 62.97 619.52 67.97 624.97 70.48C629.97 72.79 632.32 71.12 633.4 65.81C634.03 62.72 636.3 59.97 637.83 57.07L639.65 57.82C639.37 58.67 639.31 59.73 638.76 60.34C636.02 63.38 634.3 66.57 636.95 70.49C639.48 74.22 643.35 74.97 647.68 73.44C654.87 70.9 656.42 65.05 657.13 58.54C657.39 56.16 657.69 53.77 657.97 51.39C654.7 50.66 651.44 49.94 648.17 49.21C640.52 47.56 632.87 45.9 625.22 44.25L625.25 44.24Z" fill="white"/>
<path d="M625.25 44.24C632.9 45.89 640.55 47.55 648.2 49.2C642.27 46.39 634.86 46.35 630.02 39.54C631.95 39.54 633.07 39.45 634.16 39.56C640.01 40.14 645.86 40.76 651.71 41.41C654.14 41.68 656.56 42.04 658.99 42.36C659.32 40.72 659.65 39.09 659.99 37.45C649.14 36.12 638.29 34.79 627.44 33.47C626.71 37.06 625.98 40.65 625.26 44.24H625.25Z" fill="#E5A166"/>
<path d="M627.43 33.47C638.28 34.8 649.13 36.13 659.98 37.45C659.98 36.1 659.98 34.75 659.98 33.39C658.39 33.06 656.76 32.88 655.23 32.38C648.95 30.33 642.74 28.09 636.44 26.12C633.85 25.31 631.11 24.98 628.44 24.43C628.11 27.44 627.78 30.45 627.44 33.47H627.43Z" fill="#CE7E43"/>
<path d="M658.98 42.36C656.55 42.04 654.13 41.68 651.7 41.41C645.85 40.77 640.01 40.15 634.15 39.56C633.06 39.45 631.94 39.54 630.01 39.54C634.86 46.35 642.26 46.39 648.19 49.2C651.46 49.93 654.72 50.65 657.99 51.38C658.32 48.37 658.65 45.36 658.98 42.36Z" fill="#CE7E43"/>
<path d="M628.43 24.43C631.1 24.98 633.84 25.31 636.43 26.12C642.73 28.1 648.95 30.33 655.22 32.38C656.75 32.88 658.39 33.06 659.97 33.39C660.3 32.09 660.63 30.78 660.97 29.48C655.53 28.12 649.99 27.03 644.66 25.3C640.26 23.87 636.12 21.63 631.83 19.83C631.11 19.53 630.22 19.62 629.41 19.53C629.08 21.17 628.75 22.8 628.41 24.44L628.43 24.43Z" fill="#E5A166"/>
</g>
<g clip-path="url(#clip6_2022_2342)">
<path d="M911.32 21.72C910.62 19.96 910.04 18.13 909.16 16.46C908.74 15.67 907.75 15.18 906.24 13.9C909.6 26.04 912.6 36.9 915.65 47.93C908.43 51.17 904.73 56.16 905.16 64.02C905.56 71.24 911.8 75.59 918.9 73.78C921.99 72.99 925.52 74.04 928.72 73.49C931.91 72.94 934.94 71.43 939.44 69.85C943.07 71.74 948.13 70.88 952.45 66.65C956.86 62.34 957.99 57.23 956.16 51.14C951.95 37.08 948.09 22.92 944.09 8.80001C943.63 7.19001 943.77 4.73001 940.96 6.77001C942.95 13.81 944.94 20.85 946.94 27.9C949.37 37.01 952.1 46.05 954.11 55.24C955.43 61.29 949.88 67.52 943.91 67.63C937.92 67.74 934.96 64.01 936.27 58.15C936.57 56.82 936.52 55.41 936.64 54.04C935.88 53.99 935.13 53.95 934.37 53.9C934.28 57.09 934.21 60.29 934.07 63.48C933.98 65.52 934.42 68.89 933.5 69.34C931 70.56 927.66 71.45 925.07 70.8C920.59 69.68 919.13 65.17 920.73 60.56C921.13 59.41 921.16 58.13 920.64 56.81C916.71 61.23 918.32 66.23 919.21 71.1C913.21 72 908.85 69.75 907.4 65.16C905.75 59.92 909.42 54.37 917.51 49.86C917.41 47.49 917.3 45.12 917.2 42.74C915.46 36.21 913.72 29.67 911.98 23.14L911.87 22.99C911.69 22.57 911.51 22.14 911.33 21.72H911.32Z" fill="#13110C"/>
<path d="M911.96 23.14C913.7 29.67 915.44 36.21 917.18 42.74C919.49 41.31 923.27 40.29 923.8 38.36C925 34.02 924.6 28.97 920.38 26.01C918.04 24.38 914.79 24.05 911.95 23.14H911.96Z" fill="#858180"/>
<path d="M946.93 27.9C944.94 20.86 942.95 13.82 940.95 6.76999C939.1 7.22999 937.24 7.68999 935.44 8.13999C934.79 20.85 939.09 29.34 946.92 27.9H946.93Z" fill="#858180"/>
<g clip-path="url(#clip7_2022_2342)">
<path d="M911.32 21.72C910.62 19.96 910.04 18.13 909.16 16.46C908.74 15.67 907.75 15.18 906.24 13.9C909.6 26.04 912.6 36.9 915.65 47.93C908.43 51.17 904.73 56.16 905.16 64.02C905.56 71.24 911.8 75.59 918.9 73.78C921.99 72.99 925.52 74.04 928.72 73.49C931.91 72.94 934.94 71.43 939.44 69.85C943.07 71.74 948.13 70.88 952.45 66.65C956.86 62.34 957.99 57.23 956.16 51.14C951.95 37.08 948.09 22.92 944.09 8.80001C943.63 7.19001 943.77 4.73001 940.96 6.77001C942.95 13.81 944.94 20.85 946.94 27.9C949.37 37.01 952.1 46.05 954.11 55.24C955.43 61.29 949.88 67.52 943.91 67.63C937.92 67.74 934.96 64.01 936.27 58.15C936.57 56.82 936.52 55.41 936.64 54.04C935.88 53.99 935.13 53.95 934.37 53.9C934.28 57.09 934.21 60.29 934.07 63.48C933.98 65.52 934.42 68.89 933.5 69.34C931 70.56 927.66 71.45 925.07 70.8C920.59 69.68 919.13 65.17 920.73 60.56C921.13 59.41 921.16 58.13 920.64 56.81C916.71 61.23 918.32 66.23 919.21 71.1C913.21 72 908.85 69.75 907.4 65.16C905.75 59.92 909.42 54.37 917.51 49.86C917.41 47.49 917.3 45.12 917.2 42.74C915.46 36.21 913.72 29.67 911.98 23.14L911.87 22.99C911.69 22.57 911.51 22.14 911.33 21.72H911.32Z" fill="#13110C"/>
<path d="M911.96 23.14C913.7 29.67 915.44 36.21 917.18 42.74C919.49 41.31 923.27 40.29 923.8 38.36C925 34.02 924.6 28.97 920.38 26.01C918.04 24.38 914.79 24.05 911.95 23.14H911.96Z" fill="#858180"/>
<path d="M946.93 27.9C944.94 20.86 942.95 13.82 940.95 6.76999C939.1 7.22999 937.24 7.68999 935.44 8.13999C934.79 20.85 939.09 29.34 946.92 27.9H946.93Z" fill="#858180"/>
</g>
</g>
<g clip-path="url(#clip8_2022_2342)">
<path d="M1014.8 22.72C1015.5 20.96 1016.08 19.13 1016.96 17.46C1017.38 16.67 1018.37 16.18 1019.88 14.9C1016.52 27.04 1013.52 37.9 1010.47 48.93C1017.69 52.17 1021.39 57.16 1020.96 65.02C1020.56 72.24 1014.32 76.59 1007.22 74.78C1004.13 73.99 1000.6 75.04 997.4 74.49C994.21 73.94 991.18 72.43 986.68 70.85C983.05 72.74 977.99 71.88 973.67 67.65C969.26 63.34 968.13 58.23 969.96 52.14C974.17 38.08 978.03 23.92 982.03 9.80001C982.49 8.19001 982.35 5.73001 985.16 7.77001C983.17 14.81 981.18 21.85 979.18 28.9C976.75 38.01 974.02 47.05 972.01 56.24C970.69 62.29 976.24 68.52 982.21 68.63C988.2 68.74 991.16 65.01 989.85 59.15C989.55 57.82 989.6 56.41 989.48 55.04C990.24 54.99 990.99 54.95 991.75 54.9C991.84 58.09 991.91 61.29 992.05 64.48C992.14 66.52 991.7 69.89 992.62 70.34C995.12 71.56 998.46 72.45 1001.05 71.8C1005.53 70.68 1006.99 66.17 1005.39 61.56C1004.99 60.41 1004.96 59.13 1005.48 57.81C1009.41 62.23 1007.8 67.23 1006.91 72.1C1012.91 73 1017.27 70.75 1018.72 66.16C1020.37 60.92 1016.7 55.37 1008.61 50.86C1008.71 48.49 1008.82 46.12 1008.92 43.74C1010.66 37.21 1012.4 30.67 1014.14 24.14L1014.25 23.99C1014.43 23.57 1014.61 23.14 1014.79 22.72H1014.8Z" fill="#13110C"/>
<path d="M1014.16 24.14C1012.42 30.67 1010.68 37.21 1008.94 43.74C1006.63 42.31 1002.85 41.29 1002.32 39.36C1001.12 35.02 1001.52 29.97 1005.74 27.01C1008.08 25.38 1011.33 25.05 1014.17 24.14H1014.16Z" fill="#858180"/>
<path d="M979.19 28.9C981.18 21.86 983.17 14.82 985.17 7.76999C987.02 8.22999 988.88 8.68999 990.68 9.13999C991.33 21.85 987.03 30.34 979.2 28.9H979.19Z" fill="#858180"/>
<g clip-path="url(#clip9_2022_2342)">
<path d="M1014.8 22.72C1015.5 20.96 1016.08 19.13 1016.96 17.46C1017.38 16.67 1018.37 16.18 1019.88 14.9C1016.52 27.04 1013.52 37.9 1010.47 48.93C1017.69 52.17 1021.39 57.16 1020.96 65.02C1020.56 72.24 1014.32 76.59 1007.22 74.78C1004.13 73.99 1000.6 75.04 997.4 74.49C994.21 73.94 991.18 72.43 986.68 70.85C983.05 72.74 977.99 71.88 973.67 67.65C969.26 63.34 968.13 58.23 969.96 52.14C974.17 38.08 978.03 23.92 982.03 9.80001C982.49 8.19001 982.35 5.73001 985.16 7.77001C983.17 14.81 981.18 21.85 979.18 28.9C976.75 38.01 974.02 47.05 972.01 56.24C970.69 62.29 976.24 68.52 982.21 68.63C988.2 68.74 991.16 65.01 989.85 59.15C989.55 57.82 989.6 56.41 989.48 55.04C990.24 54.99 990.99 54.95 991.75 54.9C991.84 58.09 991.91 61.29 992.05 64.48C992.14 66.52 991.7 69.89 992.62 70.34C995.12 71.56 998.46 72.45 1001.05 71.8C1005.53 70.68 1006.99 66.17 1005.39 61.56C1004.99 60.41 1004.96 59.13 1005.48 57.81C1009.41 62.23 1007.8 67.23 1006.91 72.1C1012.91 73 1017.27 70.75 1018.72 66.16C1020.37 60.92 1016.7 55.37 1008.61 50.86C1008.71 48.49 1008.82 46.12 1008.92 43.74C1010.66 37.21 1012.4 30.67 1014.14 24.14L1014.25 23.99C1014.43 23.57 1014.61 23.14 1014.79 22.72H1014.8Z" fill="#13110C"/>
<path d="M1014.16 24.14C1012.42 30.67 1010.68 37.21 1008.94 43.74C1006.63 42.31 1002.85 41.29 1002.32 39.36C1001.12 35.02 1001.52 29.97 1005.74 27.01C1008.08 25.38 1011.33 25.05 1014.17 24.14H1014.16Z" fill="#858180"/>
<path d="M979.19 28.9C981.18 21.86 983.17 14.82 985.17 7.76999C987.02 8.22999 988.88 8.68999 990.68 9.13999C991.33 21.85 987.03 30.34 979.2 28.9H979.19Z" fill="#858180"/>
</g>
</g>
<g clip-path="url(#clip10_2022_2342)">
<path d="M360.78 20C360.78 21.73 360.78 23.46 360.78 25.19C360.78 26.78 360.78 28.37 360.78 29.96C360.78 33.68 360.78 37.39 360.78 41.11C361.12 45.3 361.46 49.48 361.74 52.99C365.11 54.22 367.96 54.86 370.39 56.23C374.64 58.63 377.09 63.85 375.73 67.89C374.64 71.13 372.82 74.29 368.55 73.9C367.77 73.83 366.72 72.73 366.46 71.9C365.48 68.84 364.97 65.61 363.86 62.61C363.58 61.85 361.73 61.66 360.61 61.21L360 62.42C360.63 63.09 361.3 63.73 361.89 64.44C364.47 67.53 365.11 71.33 362.57 74.18C360.8 76.17 357.23 77.75 354.63 77.52C350.75 77.18 349.76 73.81 349.75 69.81C349.75 67.38 347.69 64.96 346.56 62.53L344.69 63.58C345.22 64.62 345.59 65.81 346.31 66.69C348.77 69.67 348.9 72.41 346.08 75.29C341.16 80.32 333.72 79.21 330.01 72.83C326.34 66.52 328.64 59.68 328.17 53.08C328.17 50.35 328.17 47.63 328.17 44.9C328.17 43.31 328.17 41.72 328.17 40.13C328.17 38.43 328.17 36.73 328.17 35.02L328.06 32.06C327.76 28.04 327.47 24.02 327.17 20C326.47 20.17 325.15 20.36 325.15 20.52C325.35 29.9 325.81 39.27 325.89 48.65C325.93 53.87 324.93 59.1 325.14 64.3C325.56 74.91 330.82 81.25 340.94 80.74C343.6 80.6 346.18 78.84 349.17 77.68C352.46 80.86 356.89 80.57 361.55 78.63C363.16 77.96 364.81 77.1 366.5 76.95C373.42 76.35 377.39 73.6 378.78 68.09C379.98 63.31 376.33 56.31 371 53.67C368.91 52.63 366.55 52.13 363.33 51.06V20.67C363.32 20.3 363.02 20 362.65 20H360.78Z" fill="#13110C"/>
<path d="M360.78 25.19C360.78 23.46 360.78 21.73 360.78 20C349.57 20 338.36 20 327.15 20C327.45 24.02 327.74 28.04 328.04 32.06C330.34 31.39 332.76 29.89 334.92 30.21C344.21 31.58 351.95 25.67 360.78 25.19Z" fill="#858180"/>
<path d="M328.15 40.13C335.88 40.43 343.62 40.75 351.35 41.01C354.49 41.12 357.63 41.08 360.78 41.12C360.78 37.4 360.78 33.69 360.78 29.97C358.11 30.54 355.2 30.6 352.82 31.77C344.95 35.61 336.48 35.21 328.15 35.95C328.15 37.35 328.15 38.74 328.15 40.14V40.13Z" fill="#858180"/>
<path d="M328.15 53C336.57 51.58 345.01 50.23 353.4 48.65C354.73 48.4 359.98 47.14 361.2 46.3C361.17 45.9 361.08 44.86 361.04 44.4C357.6 44.71 349.71 45.96 346.28 45.83C342.43 45.69 338.62 44.68 334.76 44.36C332.58 44.18 330.35 44.64 328.14 44.82C328.14 47.55 328.14 50.27 328.14 53H328.15Z" fill="#858180"/>
<path d="M328.15 35.94C336.48 35.2 344.95 35.6 352.82 31.76C355.2 30.6 358.11 30.53 360.78 29.96C360.78 28.37 360.78 26.78 360.78 25.19C351.95 25.66 344.21 31.58 334.92 30.21C332.76 29.89 330.34 31.4 328.04 32.06C328.08 33.35 328.11 34.64 328.15 35.94Z" fill="#666362"/>
<path d="M360.78 41.08C357.64 41.05 354.49 41.08 351.35 40.97C343.62 40.71 335.88 40.39 328.15 40.09C328.15 41.68 328.15 43.27 328.15 44.86C330.36 44.69 332.59 44.22 334.77 44.4C338.63 44.71 342.44 45.73 346.29 45.87C349.65 45.99 353.03 45.36 356.41 45.04C356.55 45.03 356.68 45 356.82 44.96C358.4 44.54 360.96 44.73 361.11 45.12" fill="#666362"/>
</g>
<g clip-path="url(#clip11_2022_2342)">
<path d="M414.78 0C414.78 1.73 414.78 3.46 414.78 5.19C414.78 6.78 414.78 8.37 414.78 9.96C414.78 13.68 414.78 17.39 414.78 21.11C415.12 25.3 415.46 29.48 415.74 32.99C419.11 34.22 421.96 34.86 424.39 36.23C428.64 38.63 431.09 43.85 429.73 47.89C428.64 51.13 426.82 54.29 422.55 53.9C421.77 53.83 420.72 52.73 420.46 51.9C419.48 48.84 418.97 45.61 417.86 42.61C417.58 41.85 415.73 41.66 414.61 41.21L414 42.42C414.63 43.09 415.3 43.73 415.89 44.44C418.47 47.53 419.11 51.33 416.57 54.18C414.8 56.17 411.23 57.75 408.63 57.52C404.75 57.18 403.76 53.81 403.75 49.81C403.75 47.38 401.69 44.96 400.56 42.53L398.69 43.58C399.22 44.62 399.59 45.81 400.31 46.69C402.77 49.67 402.9 52.41 400.08 55.29C395.16 60.32 387.72 59.21 384.01 52.83C380.34 46.52 382.64 39.68 382.17 33.08C382.17 30.35 382.17 27.63 382.17 24.9C382.17 23.31 382.17 21.72 382.17 20.13C382.17 18.43 382.17 16.73 382.17 15.02L382.06 12.06C381.76 8.04 381.47 4.02 381.17 0C380.47 0.17 379.15 0.36 379.15 0.52C379.35 9.9 379.81 19.27 379.89 28.65C379.93 33.87 378.93 39.1 379.14 44.3C379.56 54.91 384.82 61.25 394.94 60.74C397.6 60.6 400.18 58.84 403.17 57.68C406.46 60.86 410.89 60.57 415.55 58.63C417.16 57.96 418.81 57.1 420.5 56.95C427.42 56.35 431.39 53.6 432.78 48.09C433.98 43.31 430.33 36.31 425 33.67C422.91 32.63 420.55 32.13 417.33 31.06V0.67C417.32 0.3 417.02 0 416.65 0H414.78Z" fill="#13110C"/>
<path d="M414.78 5.19C414.78 3.46 414.78 1.73 414.78 0C403.57 0 392.36 0 381.15 0C381.45 4.02 381.74 8.04 382.04 12.06C384.34 11.39 386.76 9.89 388.92 10.21C398.21 11.58 405.95 5.67 414.78 5.19Z" fill="#858180"/>
<path d="M382.15 20.13C389.88 20.43 397.62 20.75 405.35 21.01C408.49 21.12 411.63 21.08 414.78 21.12C414.78 17.4 414.78 13.69 414.78 9.97C412.11 10.54 409.2 10.6 406.82 11.77C398.95 15.61 390.48 15.21 382.15 15.95C382.15 17.35 382.15 18.74 382.15 20.14V20.13Z" fill="#858180"/>
<path d="M382.15 33C390.57 31.58 399.01 30.23 407.4 28.65C408.73 28.4 413.98 27.14 415.2 26.3C415.17 25.9 415.08 24.86 415.04 24.4C411.6 24.71 403.71 25.96 400.28 25.83C396.43 25.69 392.62 24.68 388.76 24.36C386.58 24.18 384.35 24.64 382.14 24.82C382.14 27.55 382.14 30.27 382.14 33H382.15Z" fill="#858180"/>
<path d="M382.15 15.94C390.48 15.2 398.95 15.6 406.82 11.76C409.2 10.6 412.11 10.53 414.78 9.96C414.78 8.37 414.78 6.78 414.78 5.19C405.95 5.66 398.21 11.58 388.92 10.21C386.76 9.89 384.34 11.4 382.04 12.06C382.08 13.35 382.11 14.64 382.15 15.94Z" fill="#666362"/>
<path d="M414.78 21.08C411.64 21.05 408.49 21.08 405.35 20.97C397.62 20.71 389.88 20.39 382.15 20.09C382.15 21.68 382.15 23.27 382.15 24.86C384.36 24.69 386.59 24.22 388.77 24.4C392.63 24.71 396.44 25.73 400.29 25.87C403.65 25.99 407.03 25.36 410.41 25.04C410.55 25.03 410.68 25 410.82 24.96C412.4 24.54 414.96 24.73 415.11 25.12" fill="#666362"/>
</g>
<defs>
<clipPath id="clip0_2022_2342">
<rect width="67.349" height="58.3691" fill="white" transform="matrix(-0.986284 -0.165055 -0.165055 0.986284 76.4194 17.1163)"/>
</clipPath>
<clipPath id="clip1_2022_2342">
<rect width="67.349" height="58.3691" fill="white" transform="translate(75.9407 17.1163) rotate(-9.50045)"/>
</clipPath>
<clipPath id="clip2_2022_2342">
<rect width="45" height="54" fill="white" transform="matrix(-1 0 0 1 1239 14)"/>
</clipPath>
<clipPath id="clip3_2022_2342">
<rect width="45" height="54" fill="white" transform="translate(1248 14)"/>
</clipPath>
<clipPath id="clip4_2022_2342">
<rect width="58.8" height="65.36" fill="white" transform="matrix(-1 0 0 1 732 5)"/>
</clipPath>
<clipPath id="clip5_2022_2342">
<rect width="58.8" height="65.36" fill="white" transform="matrix(-1 0 0 1 665 11)"/>
</clipPath>
<clipPath id="clip6_2022_2342">
<rect width="51.88" height="68.19" fill="white" transform="matrix(-1 0 0 1 957 6)"/>
</clipPath>
<clipPath id="clip7_2022_2342">
<rect width="51.88" height="68.19" fill="white" transform="matrix(-1 0 0 1 957 6)"/>
</clipPath>
<clipPath id="clip8_2022_2342">
<rect width="51.88" height="68.19" fill="white" transform="translate(969.12 7)"/>
</clipPath>
<clipPath id="clip9_2022_2342">
<rect width="51.88" height="68.19" fill="white" transform="translate(969.12 7)"/>
</clipPath>
<clipPath id="clip10_2022_2342">
<rect width="53.9" height="60.76" fill="white" transform="matrix(-1 0 0 1 379 20)"/>
</clipPath>
<clipPath id="clip11_2022_2342">
<rect width="53.9" height="60.76" fill="white" transform="matrix(-1 0 0 1 433 0)"/>
</clipPath>
</defs>
</svg>
