<svg width="55" height="87" viewBox="0 0 55 87" fill="none" xmlns="http://www.w3.org/2000/svg">
<g id="Calque_1" clip-path="url(#clip0_2022_1984)">
<path id="Vector" d="M81.3939 37.9104C74.6605 31.1973 67.9224 24.5061 61.2014 17.7773C60.094 16.6639 59.1129 15.4082 58.0757 14.2228C49.8255 22.7874 41.5768 31.366 33.5621 39.6834C24.1505 34.1472 16.4393 34.6102 13.0618 40.1282C10.4539 44.3926 11.3386 48.0145 15.6657 50.8003C22.7256 44.1132 26.2565 42.9257 27.7736 46.4763C25.4901 47.3669 22.7811 47.7645 21.0452 49.2836C19.4449 50.6806 17.6488 53.6866 18.1603 55.2585C19.064 58.0386 21.2873 60.7198 23.6343 62.6044C26.0345 64.5186 27.6409 62.0393 29.1515 60.2254C32.0542 56.7461 34.2538 56.1853 39.4525 57.9906C37.3468 58.7543 36.1359 59.3746 34.8478 59.6264C31.3084 60.2955 29.1045 62.2088 29.0804 65.9118C29.0547 69.5366 29.9279 72.804 33.7114 74.4912C39.6376 77.1325 45.8324 75.7161 50.1008 70.6527C51.1749 69.3861 52.1161 68.0134 53.27 66.8232C62.629 57.1732 72.0193 47.548 81.3939 37.9104Z" fill="#E5A166"/>
<path id="Vector_2" d="M81.3939 37.9105C72.0114 47.5419 62.6149 57.1748 53.2638 66.8311C52.1161 68.0135 51.1608 69.3877 50.0945 70.6606C45.8261 75.7239 39.6313 77.1404 33.7052 74.4991C29.9295 72.8181 29.0484 69.5445 29.0742 65.9196C29.0983 62.2167 31.3021 60.3034 34.8416 59.6343C36.1234 59.3903 37.3406 58.7622 39.4462 57.9985C34.2538 56.1853 32.0479 56.754 29.1452 60.2332C27.6409 62.0393 26.0282 64.5265 23.6281 62.6123C21.2748 60.7355 19.0578 58.0464 18.154 55.2663C17.6425 53.6944 19.4387 50.6885 21.0389 49.2914C22.7748 47.7724 25.4838 47.3747 27.7673 46.4842C26.2502 42.9335 22.7193 44.1211 15.6594 50.8082C11.3339 48.0364 10.4554 44.4067 13.0555 40.1361C16.433 34.618 24.1442 34.1551 33.5558 39.6913C41.5768 31.366 49.8192 22.7952 58.0695 14.2307C56.8223 12.6349 55.8912 12.3911 54.2712 14.1818C47.3394 21.8791 40.2026 29.4003 33.0677 37.0636C26.3947 32.087 20.3024 31.0655 13.786 35.7559C8.12464 39.8234 7.25357 47.3148 12.0045 52.5363C13.4577 54.1302 14.7521 56.0195 15.6281 57.9844C17.916 63.1347 19.8895 64.8622 25.5649 65.9093C28.3025 79.2206 41.6377 83.0767 52.8387 71.8387C62.51 62.1179 71.5603 51.8123 80.7561 41.6612C81.478 40.8683 81.21 39.1836 81.4017 37.9167L81.3939 37.9105Z" fill="#13110C"/>
</g>
<defs>
<clipPath id="clip0_2022_1984">
<rect width="56.51" height="65.01" fill="white" transform="matrix(-0.781811 -0.623515 -0.623515 0.781811 85.4263 35.8054)"/>
</clipPath>
</defs>
</svg>
