<svg width="52" height="86" viewBox="0 0 52 86" fill="none" xmlns="http://www.w3.org/2000/svg">
<g id="patte gris unis" clip-path="url(#clip0_2022_1974)">
<path id="Vector" d="M-28.1347 34.2634C-20.9225 28.0675 -13.7073 21.8938 -6.50637 15.6813C-5.31955 14.653 -4.24812 13.4734 -3.12595 12.3682C4.46722 21.5203 12.0578 30.6863 19.4344 39.5746C29.2302 34.7507 36.8859 35.7836 39.8454 41.5367C42.1303 45.9825 40.9797 49.5289 36.4582 51.9866C29.913 44.7949 26.4798 43.3491 24.7038 46.7776C26.9151 47.8348 29.5872 48.4321 31.2058 50.0755C32.6982 51.5873 34.2667 54.718 33.6402 56.2477C32.533 58.9532 30.1172 61.4624 27.637 63.168C25.1017 64.8992 23.6833 62.3076 22.3113 60.3868C19.6743 56.7021 17.5222 55.9799 12.2041 57.3952C14.2474 58.3128 15.4091 59.021 16.675 59.3676C20.1551 60.297 22.2112 62.3683 21.9609 66.0629C21.7181 69.6797 20.6052 72.8734 16.7071 74.2757C10.6016 76.4708 4.52875 74.5994 0.647136 69.2337C-0.330215 67.891 -1.16717 66.4524 -2.22973 65.18C-10.8482 54.8632 -19.4997 44.569 -28.1347 34.2634Z" fill="#666362"/>
<path id="Vector_2" d="M-28.1346 34.2634C-19.4914 44.5633 -10.8342 54.8658 -2.22404 65.1882C-1.16712 66.4524 -0.316265 67.8936 0.652828 69.242C4.53444 74.6076 10.6073 76.479 16.7128 74.2839C20.6027 72.8873 21.7238 69.6879 21.9666 66.0711C22.2169 62.3766 20.1608 60.3052 16.6807 59.3758C15.4204 59.0375 14.2531 58.321 12.2098 57.4034C17.5223 55.9798 19.68 56.7103 22.317 60.395C23.6834 62.3076 25.1074 64.9074 27.6427 63.1762C30.1285 61.4789 32.5387 58.9614 33.6459 56.2559C34.2724 54.7262 32.7039 51.5955 31.2115 50.0838C29.5929 48.4403 26.9208 47.8431 24.7095 46.7858C26.4855 43.3573 29.9187 44.8032 36.4638 51.9948C40.9828 49.5511 42.1277 45.9964 39.8511 41.5449C36.8916 35.7918 29.2359 34.7589 19.4401 39.5828C12.0578 30.6863 4.47291 21.5285 -3.12025 12.3764C-1.75836 10.8774 -0.811697 10.7032 0.671159 12.6089C7.01382 20.7986 13.5738 28.8278 20.1215 36.9985C27.1448 32.5299 33.2961 31.9624 39.4471 37.1226C44.7916 41.5983 45.1054 49.1337 39.9808 53.9889C38.4135 55.4708 36.9826 57.2591 35.9635 59.1537C33.3004 64.1203 31.2043 65.6968 25.467 66.3207C21.751 79.3926 8.16671 82.2504 -2.17109 70.2135C-11.0957 59.8031 -19.3578 48.8554 -27.7764 38.051C-28.4376 37.2069 -28.0455 35.5466 -28.1429 34.269L-28.1346 34.2634Z" fill="#13110C"/>
</g>
<defs>
<clipPath id="clip0_2022_1974">
<rect width="56.51" height="65.01" fill="white" transform="translate(-32 31.8655) rotate(-34.3253)"/>
</clipPath>
</defs>
</svg>
