<svg width="1293" height="81" viewBox="0 0 1293 81" fill="none" xmlns="http://www.w3.org/2000/svg">
<g clip-path="url(#clip0_2022_1980)">
<path d="M1243.37 12.6339C1255.48 10.6064 1267.59 8.58068 1279.7 6.55315C1279.54 17.1793 1279.36 27.8183 1279.2 38.4445C1266.94 37.0205 1254.68 35.6077 1242.41 34.1838C1242.74 27.0073 1243.06 19.8197 1243.37 12.6339Z" fill="#E5A166"/>
<path d="M1279.2 38.4444C1279.37 27.8164 1279.54 17.1792 1279.7 6.5531C1280.81 6.3681 1281.9 6.18496 1283.01 5.99996C1282.76 20.2642 1282.56 34.5303 1282.22 48.7983C1281.9 62.4362 1276.15 67.2174 1264.32 68.1362C1264.15 68.1547 1263.89 68.2324 1263.78 68.1474C1258.22 63.4702 1251.9 67.2297 1246.13 66.3606C1240.5 65.5136 1235.14 62.9224 1229.26 62.0386C1224.78 61.3632 1221.86 54.228 1222.37 48.7754C1222.89 43.1379 1227.59 37.2909 1232.78 36.002C1234.58 35.5526 1236.43 35.3675 1239.27 34.892C1239.53 27.771 1239.8 20.478 1240.07 13.1962C1241.18 13.0112 1242.27 12.8281 1243.38 12.6431C1243.06 19.8307 1242.75 27.0164 1242.43 34.193C1240.62 35.3038 1238.96 36.9264 1237.01 37.4479C1230.1 39.2877 1224.44 45.7392 1225.01 51.6498C1225.49 56.7309 1229.01 59.3798 1236.23 60.1303C1235.6 49.9681 1237.88 45.2671 1242.17 45.9166C1241.16 49.7674 1239.21 53.7293 1239.33 57.6298C1239.45 61.6891 1244.97 64.3782 1249.37 63.8803C1254.56 63.2862 1254.67 60.1672 1254.14 55.9139C1253.54 51.0805 1257.26 47.4952 1260.56 49.017C1254.84 57.5527 1256.25 63.2655 1264.55 65.215C1269.71 66.426 1276.41 62.6258 1277.75 56.4764C1279.02 50.6448 1278.78 44.4735 1279.21 38.4537L1279.2 38.4444Z" fill="#13110C"/>
<path d="M1279.2 38.4444C1278.77 44.4643 1279.01 50.6355 1277.74 56.4671C1276.39 62.6184 1269.7 66.4168 1264.54 65.2057C1256.23 63.2562 1254.82 57.5434 1260.54 49.0078C1257.23 47.4989 1253.53 51.0823 1254.13 55.9047C1254.66 60.158 1254.54 63.2769 1249.36 63.8711C1244.96 64.3801 1239.44 61.6799 1239.31 57.6205C1239.2 53.72 1241.14 49.7711 1242.16 45.9074C1237.87 45.2579 1235.59 49.9589 1236.22 60.1211C1229.01 59.3798 1225.49 56.7198 1224.99 51.6406C1224.42 45.7188 1230.07 39.2692 1236.99 37.4386C1238.95 36.9171 1240.61 35.3056 1242.41 34.1837C1254.68 35.6076 1266.94 37.0205 1279.2 38.4444Z" fill="white"/>
</g>
<g clip-path="url(#clip1_2022_1980)">
<path d="M1190.27 12.6339C1178.16 10.6064 1166.05 8.58068 1153.94 6.55315C1154.1 17.1793 1154.28 27.8183 1154.44 38.4445C1166.7 37.0205 1178.96 35.6077 1191.23 34.1838C1190.9 27.0073 1190.58 19.8197 1190.27 12.6339Z" fill="#E5A166"/>
<path d="M1154.44 38.4444C1154.27 27.8164 1154.1 17.1792 1153.94 6.5531C1152.83 6.3681 1151.74 6.18496 1150.63 5.99996C1150.88 20.2642 1151.08 34.5303 1151.42 48.7983C1151.74 62.4362 1157.49 67.2174 1169.32 68.1362C1169.49 68.1547 1169.75 68.2324 1169.86 68.1474C1175.41 63.4702 1181.74 67.2297 1187.51 66.3606C1193.14 65.5136 1198.5 62.9224 1204.38 62.0386C1208.86 61.3632 1211.78 54.228 1211.27 48.7754C1210.75 43.1379 1206.05 37.2909 1200.86 36.002C1199.06 35.5526 1197.21 35.3675 1194.37 34.892C1194.11 27.771 1193.84 20.478 1193.57 13.1962C1192.46 13.0112 1191.37 12.8281 1190.26 12.6431C1190.58 19.8307 1190.89 27.0164 1191.21 34.193C1193.02 35.3038 1194.68 36.9264 1196.63 37.4479C1203.54 39.2877 1209.2 45.7392 1208.63 51.6498C1208.15 56.7309 1204.63 59.3798 1197.41 60.1303C1198.04 49.9681 1195.76 45.2671 1191.47 45.9166C1192.48 49.7674 1194.43 53.7293 1194.31 57.6298C1194.19 61.6891 1188.67 64.3782 1184.27 63.8803C1179.08 63.2862 1178.97 60.1672 1179.5 55.9139C1180.1 51.0805 1176.38 47.4952 1173.08 49.017C1178.8 57.5527 1177.39 63.2655 1169.09 65.215C1163.93 66.426 1157.23 62.6258 1155.89 56.4764C1154.62 50.6448 1154.85 44.4735 1154.43 38.4537L1154.44 38.4444Z" fill="#13110C"/>
<path d="M1154.44 38.4444C1154.87 44.4643 1154.63 50.6355 1155.9 56.4671C1157.25 62.6184 1163.94 66.4168 1169.1 65.2057C1177.41 63.2562 1178.82 57.5434 1173.1 49.0078C1176.41 47.4989 1180.11 51.0823 1179.51 55.9047C1178.98 60.158 1179.1 63.2769 1184.28 63.8711C1188.68 64.3801 1194.2 61.6799 1194.33 57.6205C1194.44 53.72 1192.5 49.7711 1191.48 45.9074C1195.77 45.2579 1198.05 49.9589 1197.42 60.1211C1204.63 59.3798 1208.15 56.7198 1208.65 51.6406C1209.22 45.7188 1203.57 39.2692 1196.65 37.4386C1194.69 36.9171 1193.03 35.3056 1191.23 34.1837C1178.96 35.6076 1166.7 37.0205 1154.44 38.4444Z" fill="white"/>
</g>
<g clip-path="url(#clip2_2022_1980)">
<path d="M97.2797 16.4846C97.8641 16.6288 98.9661 16.7899 98.9661 16.9256C98.7992 24.8797 98.4151 32.8254 98.3483 40.7795C98.3149 45.206 99.1498 49.641 98.9745 54.0506C98.6238 63.0477 94.2324 68.424 85.7834 67.9915C83.5626 67.8728 81.4086 66.3803 78.9123 65.3967C76.1656 68.0933 72.4671 67.8474 68.5765 66.2023C67.2324 65.6341 65.8548 64.9048 64.4439 64.7776C58.6665 64.2688 55.352 61.9369 54.1916 57.2644C53.1897 53.2111 56.237 47.2751 60.6869 45.0364C62.4318 44.1545 64.4021 43.7305 67.0904 42.8232V14.212C67.583 14.1442 68.0673 14.0763 68.5598 14C68.7769 14.831 68.994 15.6536 69.211 16.4846C69.211 17.9516 69.211 19.4187 69.211 20.8857C69.211 22.234 69.211 23.5823 69.211 24.9306C69.211 28.0851 69.211 31.2312 69.211 34.3857C68.9272 37.9388 68.6433 41.4833 68.4096 44.4598C65.596 45.5028 63.2166 46.0455 61.1878 47.2073C57.6396 49.2425 55.5942 53.669 56.7296 57.0948C57.6396 59.8423 59.1591 62.522 62.724 62.1913C63.3752 62.1319 64.2519 61.1991 64.4689 60.4953C65.2871 57.9004 65.7129 55.1614 66.6396 52.6175C66.8734 51.973 68.4179 51.8119 69.353 51.4303C69.5199 51.7695 69.6953 52.1087 69.8622 52.4563C69.3363 53.0245 68.7769 53.5672 68.2843 54.1693C66.1303 56.7896 65.596 60.0119 67.7166 62.4287C69.1943 64.1162 72.1749 65.456 74.3455 65.261C77.5849 64.9727 78.4114 62.1149 78.4198 58.723C78.4198 56.6624 80.1396 54.6102 81.083 52.5496C81.6006 52.8464 82.1266 53.1432 82.6442 53.44C82.2018 54.3219 81.8929 55.331 81.2917 56.0773C79.2379 58.6043 79.1294 60.9278 81.4838 63.37C85.5914 67.6354 91.8029 66.6941 94.9003 61.2839C97.9643 55.9331 96.0441 50.1328 96.4365 44.5361C96.4365 42.2211 96.4365 39.9146 96.4365 37.5996C96.4365 36.2513 96.4365 34.903 96.4365 33.5546C96.4365 32.3675 96.4365 31.1888 96.4365 30.0016L96.5283 26.7114C96.7788 23.3024 97.0209 19.8935 97.2713 16.4846H97.2797Z" fill="#13110C"/>
<path d="M69.2115 20.8857C69.2115 19.4187 69.2115 17.9516 69.2115 16.4846C78.5705 16.4846 87.9295 16.4846 97.2885 16.4846C97.038 19.8935 96.7959 23.3025 96.5454 26.7114C94.6252 26.1432 92.6048 24.8712 90.8015 25.1426C83.0454 26.3043 76.5835 21.2927 69.2115 20.8857Z" fill="#858180"/>
<path d="M96.4536 44.5275C96.0612 50.1158 97.9814 55.916 94.9174 61.2753C91.82 66.6855 85.6085 67.6268 81.5009 63.3614C79.1466 60.9192 79.2635 58.6042 81.3089 56.0687C81.9184 55.3225 82.2189 54.3218 82.6614 53.4314C82.1438 53.1346 81.6178 52.8378 81.1002 52.541C80.1568 54.6017 78.4369 56.6538 78.4369 58.7144C78.4286 62.1064 77.602 64.9641 74.3627 65.2524C72.2004 65.4475 69.2115 64.1076 67.7338 62.4201C65.6132 60.0034 66.1475 56.7895 68.3015 54.1607C68.7941 53.5586 69.3534 53.0159 69.8794 52.4478C69.7124 52.1086 69.5371 51.7694 69.3701 51.4217C68.4267 51.8033 66.8905 51.9559 66.6568 52.6089C65.7301 55.1613 65.2959 57.8919 64.4861 60.4867C64.2607 61.1905 63.384 62.1233 62.7412 62.1827C59.1763 62.5134 57.6568 59.8253 56.7468 57.0863C55.6113 53.6689 57.6568 49.2424 61.205 47.1987C63.2338 46.037 65.6132 45.4943 68.4267 44.4512C68.6605 41.4833 68.9443 37.9302 69.2282 34.3771C71.8497 34.3517 74.4796 34.3771 77.1011 34.2838C83.5547 34.0634 90.0167 33.792 96.4703 33.5376C96.4703 34.8859 96.4703 36.2342 96.4703 37.5825C94.6252 37.4383 92.7635 37.0398 90.9434 37.1924C87.7208 37.4553 84.5399 38.3203 81.3256 38.439C78.462 38.5492 75.5816 37.9895 72.7096 37.7182C72.5761 38.0659 72.4508 38.4135 72.3173 38.7612C73.3358 39.4735 74.2792 40.6098 75.398 40.8218C82.4026 42.1701 89.449 43.3064 96.4787 44.5106L96.4536 44.5275Z" fill="white"/>
<path d="M96.4536 33.5545C90 33.8089 83.538 34.0803 77.0844 34.3008C74.4629 34.3941 71.8414 34.3601 69.2115 34.3941C69.2115 31.2395 69.2115 28.0935 69.2115 24.939C71.4406 25.4223 73.8701 25.4732 75.8571 26.4653C82.4276 29.7216 89.4991 29.3824 96.4536 30.0099C96.4536 31.1971 96.4536 32.3758 96.4536 33.563V33.5545Z" fill="#858180"/>
<path d="M96.4536 44.5277C89.424 43.3236 82.3776 42.1788 75.3729 40.839C74.2626 40.627 73.3191 39.4907 72.2922 38.7784C72.4258 38.4307 72.551 38.083 72.6846 37.7353C75.5566 37.9982 78.4453 38.5579 81.3006 38.4561C84.5149 38.3374 87.6958 37.4809 90.9184 37.2096C92.7384 37.0569 94.6002 37.447 96.4453 37.5997C96.4453 39.9147 96.4453 42.2212 96.4453 44.5362L96.4536 44.5277Z" fill="#858180"/>
<path d="M96.4536 29.9931C89.4991 29.3656 82.4276 29.7048 75.8571 26.4485C73.8701 25.4648 71.4406 25.4055 69.2115 24.9221C69.2115 23.5738 69.2115 22.2255 69.2115 20.8772C76.5835 21.2758 83.0454 26.2959 90.8015 25.1341C92.6048 24.8628 94.6252 26.1432 96.5454 26.7029C96.512 27.7968 96.487 28.8907 96.4536 29.9931Z" fill="white"/>
</g>
<g clip-path="url(#clip3_2022_1980)">
<path d="M1.72032 16.4846C1.1359 16.6288 0.0338593 16.7899 0.0338593 16.9256C0.200836 24.8797 0.584881 32.8254 0.651672 40.7795C0.685066 45.206 -0.149811 49.641 0.0255127 54.0506C0.376163 63.0477 4.76763 68.424 13.2166 67.9915C15.4374 67.8728 17.5914 66.3803 20.0877 65.3967C22.8344 68.0933 26.5329 67.8474 30.4235 66.2023C31.7676 65.6341 33.1452 64.9048 34.5561 64.7776C40.3335 64.2688 43.648 61.9369 44.8084 57.2644C45.8103 53.2111 42.763 47.2751 38.3131 45.0364C36.5682 44.1545 34.5979 43.7305 31.9096 42.8232V14.212C31.417 14.1442 30.9327 14.0763 30.4402 14C30.2231 14.831 30.006 15.6536 29.789 16.4846C29.789 17.9516 29.789 19.4187 29.789 20.8857C29.789 22.234 29.789 23.5823 29.789 24.9306C29.789 28.0851 29.789 31.2312 29.789 34.3857C30.0728 37.9388 30.3567 41.4833 30.5904 44.4598C33.404 45.5028 35.7834 46.0455 37.8122 47.2073C41.3604 49.2425 43.4058 53.669 42.2704 57.0948C41.3604 59.8423 39.8409 62.522 36.276 62.1913C35.6248 62.1319 34.7481 61.1991 34.5311 60.4953C33.7129 57.9004 33.2871 55.1614 32.3604 52.6175C32.1266 51.973 30.5821 51.8119 29.647 51.4303C29.4801 51.7695 29.3047 52.1087 29.1378 52.4563C29.6637 53.0245 30.2231 53.5672 30.7157 54.1693C32.8697 56.7896 33.404 60.0119 31.2834 62.4287C29.8057 64.1162 26.8251 65.456 24.6545 65.261C21.4151 64.9727 20.5886 62.1149 20.5802 58.723C20.5802 56.6624 18.8604 54.6102 17.917 52.5496C17.3994 52.8464 16.8734 53.1432 16.3558 53.44C16.7982 54.3219 17.1071 55.331 17.7083 56.0773C19.7621 58.6043 19.8706 60.9278 17.5162 63.37C13.4086 67.6354 7.19712 66.6941 4.09972 61.2839C1.03571 55.9331 2.95594 50.1328 2.56355 44.5361C2.56355 42.2211 2.56355 39.9146 2.56355 37.5996C2.56355 36.2513 2.56355 34.903 2.56355 33.5546C2.56355 32.3675 2.56355 31.1888 2.56355 30.0016L2.47171 26.7114C2.22124 23.3024 1.97913 19.8935 1.72866 16.4846H1.72032Z" fill="#13110C"/>
<path d="M29.7885 20.8857C29.7885 19.4187 29.7885 17.9516 29.7885 16.4846C20.4295 16.4846 11.0705 16.4846 1.71152 16.4846C1.96198 19.8935 2.2041 23.3025 2.45456 26.7114C4.37479 26.1432 6.39519 24.8712 8.19853 25.1426C15.9546 26.3043 22.4165 21.2927 29.7885 20.8857Z" fill="#858180"/>
<path d="M2.54638 44.5275C2.93878 50.1158 1.01855 55.916 4.08256 61.2753C7.17997 66.6855 13.3915 67.6268 17.4991 63.3614C19.8534 60.9192 19.7365 58.6042 17.6911 56.0687C17.0816 55.3225 16.7811 54.3218 16.3386 53.4314C16.8562 53.1346 17.3822 52.8378 17.8998 52.541C18.8432 54.6017 20.5631 56.6538 20.5631 58.7144C20.5714 62.1064 21.398 64.9641 24.6373 65.2524C26.7996 65.4475 29.7885 64.1076 31.2662 62.4201C33.3868 60.0034 32.8525 56.7895 30.6985 54.1607C30.2059 53.5586 29.6466 53.0159 29.1206 52.4478C29.2876 52.1086 29.4629 51.7694 29.6299 51.4217C30.5733 51.8033 32.1095 51.9559 32.3432 52.6089C33.2699 55.1613 33.7041 57.8919 34.5139 60.4867C34.7393 61.1905 35.616 62.1233 36.2588 62.1827C39.8237 62.5134 41.3432 59.8253 42.2532 57.0863C43.3887 53.6689 41.3432 49.2424 37.795 47.1987C35.7662 46.037 33.3868 45.4943 30.5733 44.4512C30.3395 41.4833 30.0557 37.9302 29.7718 34.3771C27.1503 34.3517 24.5204 34.3771 21.8989 34.2838C15.4453 34.0634 8.9833 33.792 2.52969 33.5376C2.52969 34.8859 2.52969 36.2342 2.52969 37.5825C4.37477 37.4383 6.23655 37.0398 8.05659 37.1924C11.2792 37.4553 14.4601 38.3203 17.6744 38.439C20.538 38.5492 23.4184 37.9895 26.2904 37.7182C26.4239 38.0659 26.5492 38.4135 26.6827 38.7612C25.6642 39.4735 24.7208 40.6098 23.602 40.8218C16.5974 42.1701 9.55102 43.3064 2.52134 44.5106L2.54638 44.5275Z" fill="white"/>
<path d="M2.5464 33.5545C9.00002 33.8089 15.462 34.0803 21.9156 34.3008C24.5371 34.3941 27.1586 34.3601 29.7885 34.3941C29.7885 31.2395 29.7885 28.0935 29.7885 24.939C27.5594 25.4223 25.1299 25.4732 23.1429 26.4653C16.5724 29.7216 9.50095 29.3824 2.5464 30.0099C2.5464 31.1971 2.5464 32.3758 2.5464 33.563V33.5545Z" fill="#858180"/>
<path d="M2.54636 44.5277C9.57604 43.3236 16.6224 42.1788 23.6271 40.839C24.7374 40.627 25.6809 39.4907 26.7078 38.7784C26.5742 38.4307 26.449 38.083 26.3154 37.7353C23.4434 37.9982 20.5547 38.5579 17.6994 38.4561C14.4851 38.3374 11.3042 37.4809 8.0816 37.2096C6.26157 37.0569 4.39979 37.447 2.5547 37.5997C2.5547 39.9147 2.5547 42.2212 2.5547 44.5362L2.54636 44.5277Z" fill="#858180"/>
<path d="M2.5464 29.9931C9.50095 29.3656 16.5724 29.7048 23.1429 26.4485C25.1299 25.4648 27.5594 25.4055 29.7885 24.9221C29.7885 23.5738 29.7885 22.2255 29.7885 20.8772C22.4165 21.2758 15.9546 26.2959 8.19853 25.1341C6.39519 24.8628 4.37479 26.1432 2.45456 26.7029C2.48796 27.7968 2.51301 28.8907 2.5464 29.9931Z" fill="white"/>
</g>
<g clip-path="url(#clip4_2022_1980)">
<path d="M595.75 5.39995C598.55 4.70995 598.44 4.72995 598.75 6.98995C600.03 16.2599 601.37 25.5099 602.73 34.7699C603.06 36.9899 603.99 38.0399 606.67 38.5399C616.1 40.2999 621.03 45.2699 619.53 55.2999C618.85 59.8599 614.83 61.9199 610.71 63.2399C609.96 63.4799 608.81 62.9499 608.28 63.3599C603.2 67.2299 597.86 67.5899 591.52 66.8899C588.97 66.6099 585.35 70.59 581.05 70.3699C573.67 69.99 567.73 64.5199 566.81 57.1299C564.99 42.5499 562.86 28.0099 561 13.4399C560.89 12.5999 562.18 11.5699 562.82 10.6299C563.16 10.9599 563.49 11.2899 563.83 11.6199C564.23 15.5699 564.62 19.5199 565.02 23.4699C565.35 24.7699 565.68 26.0799 566.02 27.3799C566.02 28.7299 566.02 30.0799 566.02 31.4399C566.35 33.0799 566.68 34.7099 567.02 36.3499C567.35 39.3599 567.68 42.3699 568.01 45.3699C568.29 47.7499 568.59 50.1299 568.85 52.5199C569.56 59.0299 571.11 64.8799 578.3 67.4199C582.64 68.9499 586.51 68.1999 589.03 64.4699C591.68 60.5499 589.96 57.3699 587.22 54.3199C586.67 53.7099 586.61 52.6499 586.33 51.7999L588.15 51.0499C589.68 53.9499 591.95 56.6999 592.58 59.7899C593.66 65.0999 596.01 66.7599 601.01 64.4599C606.46 61.9499 607.59 56.9499 603.87 52.0099C602.97 50.8099 602.17 49.5299 601.32 48.2899C607.78 49.9499 608.16 55.3099 609.06 60.2399C615.83 59.6599 619.07 54.2299 616.72 48.4199C614.43 42.7599 609.43 41.7599 604.5 40.3099C603.15 39.9199 601.98 38.9299 600.73 38.2199C600 34.6299 599.27 31.0399 598.55 27.4499C598.22 24.4399 597.89 21.4299 597.55 18.4099C597.22 16.7699 596.89 15.1399 596.55 13.4999C596.55 11.4799 596.55 9.46995 596.55 7.44995C596.27 6.75995 596 6.05995 595.72 5.36995L595.75 5.39995Z" fill="#13110C"/>
<path d="M596.58 7.47998C596.58 9.49998 596.58 11.51 596.58 13.53C595.77 13.62 594.88 13.53 594.16 13.83C589.87 15.63 585.74 17.87 581.33 19.3C576.01 21.04 570.47 22.12 565.02 23.48C564.62 19.53 564.23 15.58 563.83 11.63C563.85 11.34 563.89 11.04 563.94 10.75C564.58 10.68 565.21 10.6 565.85 10.53C567.55 10.79 569.31 11.46 570.95 11.25C579.51 10.12 588.04 8.75998 596.58 7.47998Z" fill="#CE7E43"/>
<path d="M596.58 7.47989C588.04 8.75989 579.51 10.1199 570.95 11.2499C569.31 11.4699 567.56 10.7899 565.85 10.5299C573.25 9.18989 580.64 7.82989 588.05 6.51989C590.6 6.06989 593.18 5.75989 595.75 5.38989C596.03 6.07989 596.3 6.76989 596.58 7.46989V7.47989Z" fill="#E5A166"/>
<path d="M563.95 10.7499C563.9 11.0399 563.87 11.3299 563.84 11.6299C563.5 11.2999 563.16 10.9699 562.83 10.6399C563.2 10.6799 563.58 10.7199 563.95 10.7599V10.7499Z" fill="#E5A166"/>
<path d="M600.75 38.24C602 38.95 603.18 39.94 604.52 40.33C609.45 41.78 614.45 42.77 616.74 48.44C619.09 54.25 615.85 59.68 609.08 60.26C608.18 55.33 607.8 49.97 601.34 48.31C602.19 49.55 602.98 50.83 603.89 52.03C607.61 56.97 606.48 61.97 601.03 64.48C596.03 66.79 593.68 65.12 592.6 59.81C591.97 56.72 589.7 53.97 588.17 51.07L586.35 51.82C586.63 52.67 586.69 53.73 587.24 54.34C589.98 57.38 591.7 60.57 589.05 64.49C586.52 68.22 582.65 68.97 578.32 67.44C571.13 64.9 569.58 59.05 568.87 52.54C568.61 50.16 568.31 47.77 568.03 45.39C571.3 44.66 574.56 43.94 577.83 43.21C585.48 41.56 593.13 39.9 600.78 38.25L600.75 38.24Z" fill="white"/>
<path d="M600.75 38.24C593.1 39.89 585.45 41.55 577.8 43.2C583.73 40.39 591.14 40.35 595.98 33.54C594.05 33.54 592.93 33.45 591.84 33.56C585.99 34.14 580.14 34.76 574.29 35.41C571.86 35.68 569.44 36.04 567.01 36.36C566.68 34.72 566.35 33.09 566.01 31.45C576.86 30.12 587.71 28.79 598.56 27.47C599.29 31.06 600.02 34.65 600.74 38.24H600.75Z" fill="#E5A166"/>
<path d="M598.57 27.4699C587.72 28.7999 576.87 30.1299 566.02 31.4499C566.02 30.0999 566.02 28.7499 566.02 27.3899C567.61 27.0599 569.24 26.8799 570.77 26.3799C577.05 24.3299 583.26 22.0899 589.56 20.1199C592.15 19.3099 594.89 18.9799 597.56 18.4299C597.89 21.4399 598.22 24.4499 598.56 27.4699H598.57Z" fill="#CE7E43"/>
<path d="M567.02 36.36C569.45 36.04 571.87 35.68 574.3 35.41C580.15 34.77 585.99 34.15 591.85 33.56C592.94 33.45 594.06 33.54 595.99 33.54C591.14 40.35 583.74 40.39 577.81 43.2C574.54 43.93 571.28 44.65 568.01 45.38C567.68 42.37 567.35 39.36 567.02 36.36Z" fill="#CE7E43"/>
<path d="M597.57 18.43C594.9 18.98 592.16 19.31 589.57 20.12C583.27 22.1 577.05 24.33 570.78 26.38C569.25 26.88 567.61 27.06 566.03 27.39C565.7 26.09 565.37 24.78 565.03 23.48C570.47 22.12 576.01 21.03 581.34 19.3C585.74 17.87 589.88 15.63 594.17 13.83C594.89 13.53 595.78 13.62 596.59 13.53C596.92 15.17 597.25 16.8 597.59 18.44L597.57 18.43Z" fill="#E5A166"/>
</g>
<g clip-path="url(#clip5_2022_1980)">
<path d="M662.75 11.3999C665.55 10.7099 665.44 10.7299 665.75 12.9899C667.03 22.2599 668.37 31.5099 669.73 40.7699C670.06 42.9899 670.99 44.0399 673.67 44.5399C683.1 46.2999 688.03 51.2699 686.53 61.2999C685.85 65.8599 681.83 67.9199 677.71 69.2399C676.96 69.4799 675.81 68.9499 675.28 69.3599C670.2 73.2299 664.86 73.5899 658.52 72.8899C655.97 72.6099 652.35 76.59 648.05 76.3699C640.67 75.99 634.73 70.5199 633.81 63.1299C631.99 48.5499 629.86 34.0099 628 19.4399C627.89 18.5999 629.18 17.5699 629.82 16.6299C630.16 16.9599 630.49 17.2899 630.83 17.6199C631.23 21.5699 631.62 25.5199 632.02 29.4699C632.35 30.7699 632.68 32.0799 633.02 33.3799C633.02 34.7299 633.02 36.0799 633.02 37.4399C633.35 39.0799 633.68 40.7099 634.02 42.3499C634.35 45.3599 634.68 48.3699 635.01 51.3699C635.29 53.7499 635.59 56.1299 635.85 58.5199C636.56 65.0299 638.11 70.8799 645.3 73.4199C649.64 74.9499 653.51 74.1999 656.03 70.4699C658.68 66.5499 656.96 63.3699 654.22 60.3199C653.67 59.7099 653.61 58.6499 653.33 57.7999L655.15 57.0499C656.68 59.9499 658.95 62.6999 659.58 65.7899C660.66 71.0999 663.01 72.7599 668.01 70.4599C673.46 67.9499 674.59 62.9499 670.87 58.0099C669.97 56.8099 669.17 55.5299 668.32 54.2899C674.78 55.9499 675.16 61.3099 676.06 66.2399C682.83 65.6599 686.07 60.2299 683.72 54.4199C681.43 48.7599 676.43 47.7599 671.5 46.3099C670.15 45.9199 668.98 44.9299 667.73 44.2199C667 40.6299 666.27 37.0399 665.55 33.4499C665.22 30.4399 664.89 27.4299 664.55 24.4099C664.22 22.7699 663.89 21.1399 663.55 19.4999C663.55 17.4799 663.55 15.4699 663.55 13.4499C663.27 12.7599 663 12.0599 662.72 11.3699L662.75 11.3999Z" fill="#13110C"/>
<path d="M663.58 13.48C663.58 15.5 663.58 17.51 663.58 19.53C662.77 19.62 661.88 19.53 661.16 19.83C656.87 21.63 652.74 23.87 648.33 25.3C643.01 27.04 637.47 28.12 632.02 29.48C631.62 25.53 631.23 21.58 630.83 17.63C630.85 17.34 630.89 17.04 630.94 16.75C631.58 16.68 632.21 16.6 632.85 16.53C634.55 16.79 636.31 17.46 637.95 17.25C646.51 16.12 655.04 14.76 663.58 13.48Z" fill="#CE7E43"/>
<path d="M663.58 13.4799C655.04 14.7599 646.51 16.1199 637.95 17.2499C636.31 17.4699 634.56 16.7899 632.85 16.5299C640.25 15.1899 647.64 13.8299 655.05 12.5199C657.6 12.0699 660.18 11.7599 662.75 11.3899C663.03 12.0799 663.3 12.7699 663.58 13.4699V13.4799Z" fill="#E5A166"/>
<path d="M630.95 16.7499C630.9 17.0399 630.87 17.3299 630.84 17.6299C630.5 17.2999 630.16 16.9699 629.83 16.6399C630.2 16.6799 630.58 16.7199 630.95 16.7599V16.7499Z" fill="#E5A166"/>
<path d="M667.75 44.24C669 44.95 670.18 45.94 671.52 46.33C676.45 47.78 681.45 48.77 683.74 54.44C686.09 60.25 682.85 65.68 676.08 66.26C675.18 61.33 674.8 55.97 668.34 54.31C669.19 55.55 669.98 56.83 670.89 58.03C674.61 62.97 673.48 67.97 668.03 70.48C663.03 72.79 660.68 71.12 659.6 65.81C658.97 62.72 656.7 59.97 655.17 57.07L653.35 57.82C653.63 58.67 653.69 59.73 654.24 60.34C656.98 63.38 658.7 66.57 656.05 70.49C653.52 74.22 649.65 74.97 645.32 73.44C638.13 70.9 636.58 65.05 635.87 58.54C635.61 56.16 635.31 53.77 635.03 51.39C638.3 50.66 641.56 49.94 644.83 49.21C652.48 47.56 660.13 45.9 667.78 44.25L667.75 44.24Z" fill="white"/>
<path d="M667.75 44.24C660.1 45.89 652.45 47.55 644.8 49.2C650.73 46.39 658.14 46.35 662.98 39.54C661.05 39.54 659.93 39.45 658.84 39.56C652.99 40.14 647.14 40.76 641.29 41.41C638.86 41.68 636.44 42.04 634.01 42.36C633.68 40.72 633.35 39.09 633.01 37.45C643.86 36.12 654.71 34.79 665.56 33.47C666.29 37.06 667.02 40.65 667.74 44.24H667.75Z" fill="#E5A166"/>
<path d="M665.57 33.4699C654.72 34.7999 643.87 36.1299 633.02 37.4499C633.02 36.0999 633.02 34.7499 633.02 33.3899C634.61 33.0599 636.24 32.8799 637.77 32.3799C644.05 30.3299 650.26 28.0899 656.56 26.1199C659.15 25.3099 661.89 24.9799 664.56 24.4299C664.89 27.4399 665.22 30.4499 665.56 33.4699H665.57Z" fill="#CE7E43"/>
<path d="M634.02 42.36C636.45 42.04 638.87 41.68 641.3 41.41C647.15 40.77 652.99 40.15 658.85 39.56C659.94 39.45 661.06 39.54 662.99 39.54C658.14 46.35 650.74 46.39 644.81 49.2C641.54 49.93 638.28 50.65 635.01 51.38C634.68 48.37 634.35 45.36 634.02 42.36Z" fill="#CE7E43"/>
<path d="M664.57 24.43C661.9 24.98 659.16 25.31 656.57 26.12C650.27 28.1 644.05 30.33 637.78 32.38C636.25 32.88 634.61 33.06 633.03 33.39C632.7 32.09 632.37 30.78 632.03 29.48C637.47 28.12 643.01 27.03 648.34 25.3C652.74 23.87 656.88 21.63 661.17 19.83C661.89 19.53 662.78 19.62 663.59 19.53C663.92 21.17 664.25 22.8 664.59 24.44L664.57 24.43Z" fill="#E5A166"/>
</g>
<g clip-path="url(#clip6_2022_1980)">
<path d="M381.68 21.7199C382.38 19.9599 382.96 18.1299 383.84 16.4599C384.26 15.6699 385.25 15.1799 386.76 13.8999C383.4 26.0399 380.4 36.8999 377.35 47.9299C384.57 51.1699 388.27 56.1599 387.84 64.0199C387.44 71.2399 381.2 75.5899 374.1 73.7799C371.01 72.9899 367.48 74.0399 364.28 73.4899C361.09 72.9399 358.06 71.4299 353.56 69.8499C349.93 71.7399 344.87 70.8799 340.55 66.6499C336.14 62.3399 335.01 57.2299 336.84 51.1399C341.05 37.0799 344.91 22.9199 348.91 8.79989C349.37 7.18989 349.23 4.72989 352.04 6.76989C350.05 13.8099 348.06 20.8499 346.06 27.8999C343.63 37.0099 340.9 46.0499 338.89 55.2399C337.57 61.2899 343.12 67.5199 349.09 67.6299C355.08 67.7399 358.04 64.0099 356.73 58.1499C356.43 56.8199 356.48 55.4099 356.36 54.0399C357.12 53.9899 357.87 53.9499 358.63 53.8999C358.72 57.0899 358.79 60.2899 358.93 63.4799C359.02 65.5199 358.58 68.8899 359.5 69.3399C362 70.5599 365.34 71.4499 367.93 70.7999C372.41 69.6799 373.87 65.1699 372.27 60.5599C371.87 59.4099 371.84 58.1299 372.36 56.8099C376.29 61.2299 374.68 66.2299 373.79 71.0999C379.79 71.9999 384.15 69.7499 385.6 65.1599C387.25 59.9199 383.58 54.3699 375.49 49.8599C375.59 47.4899 375.7 45.1199 375.8 42.7399C377.54 36.2099 379.28 29.6699 381.02 23.1399L381.13 22.9899C381.31 22.5699 381.49 22.1399 381.67 21.7199H381.68Z" fill="#13110C"/>
<path d="M381.04 23.1399C379.3 29.6699 377.56 36.2099 375.82 42.7399C373.51 41.3099 369.73 40.2899 369.2 38.3599C368 34.0199 368.4 28.9699 372.62 26.0099C374.96 24.3799 378.21 24.0499 381.05 23.1399H381.04Z" fill="#858180"/>
<path d="M346.07 27.9C348.06 20.86 350.05 13.82 352.05 6.77002C353.9 7.23002 355.76 7.69002 357.56 8.14002C358.21 20.85 353.91 29.34 346.08 27.9H346.07Z" fill="#858180"/>
<g clip-path="url(#clip7_2022_1980)">
<path d="M381.68 21.7199C382.38 19.9599 382.96 18.1299 383.84 16.4599C384.26 15.6699 385.25 15.1799 386.76 13.8999C383.4 26.0399 380.4 36.8999 377.35 47.9299C384.57 51.1699 388.27 56.1599 387.84 64.0199C387.44 71.2399 381.2 75.5899 374.1 73.7799C371.01 72.9899 367.48 74.0399 364.28 73.4899C361.09 72.9399 358.06 71.4299 353.56 69.8499C349.93 71.7399 344.87 70.8799 340.55 66.6499C336.14 62.3399 335.01 57.2299 336.84 51.1399C341.05 37.0799 344.91 22.9199 348.91 8.79989C349.37 7.18989 349.23 4.72989 352.04 6.76989C350.05 13.8099 348.06 20.8499 346.06 27.8999C343.63 37.0099 340.9 46.0499 338.89 55.2399C337.57 61.2899 343.12 67.5199 349.09 67.6299C355.08 67.7399 358.04 64.0099 356.73 58.1499C356.43 56.8199 356.48 55.4099 356.36 54.0399C357.12 53.9899 357.87 53.9499 358.63 53.8999C358.72 57.0899 358.79 60.2899 358.93 63.4799C359.02 65.5199 358.58 68.8899 359.5 69.3399C362 70.5599 365.34 71.4499 367.93 70.7999C372.41 69.6799 373.87 65.1699 372.27 60.5599C371.87 59.4099 371.84 58.1299 372.36 56.8099C376.29 61.2299 374.68 66.2299 373.79 71.0999C379.79 71.9999 384.15 69.7499 385.6 65.1599C387.25 59.9199 383.58 54.3699 375.49 49.8599C375.59 47.4899 375.7 45.1199 375.8 42.7399C377.54 36.2099 379.28 29.6699 381.02 23.1399L381.13 22.9899C381.31 22.5699 381.49 22.1399 381.67 21.7199H381.68Z" fill="#13110C"/>
<path d="M381.04 23.1399C379.3 29.6699 377.56 36.2099 375.82 42.7399C373.51 41.3099 369.73 40.2899 369.2 38.3599C368 34.0199 368.4 28.9699 372.62 26.0099C374.96 24.3799 378.21 24.0499 381.05 23.1399H381.04Z" fill="#858180"/>
<path d="M346.07 27.9C348.06 20.86 350.05 13.82 352.05 6.77002C353.9 7.23002 355.76 7.69002 357.56 8.14002C358.21 20.85 353.91 29.34 346.08 27.9H346.07Z" fill="#858180"/>
</g>
</g>
<g clip-path="url(#clip8_2022_1980)">
<path d="M278.2 22.7199C277.5 20.9599 276.92 19.1299 276.04 17.4599C275.62 16.6699 274.63 16.1799 273.12 14.8999C276.48 27.0399 279.48 37.8999 282.53 48.9299C275.31 52.1699 271.61 57.1599 272.04 65.0199C272.44 72.2399 278.68 76.5899 285.78 74.7799C288.87 73.9899 292.4 75.0399 295.6 74.4899C298.79 73.9399 301.82 72.4299 306.32 70.8499C309.95 72.7399 315.01 71.8799 319.33 67.6499C323.74 63.3399 324.87 58.2299 323.04 52.1399C318.83 38.0799 314.97 23.9199 310.97 9.79989C310.51 8.18989 310.65 5.72989 307.84 7.76989C309.83 14.8099 311.82 21.8499 313.82 28.8999C316.25 38.0099 318.98 47.0499 320.99 56.2399C322.31 62.2899 316.76 68.5199 310.79 68.6299C304.8 68.7399 301.84 65.0099 303.15 59.1499C303.45 57.8199 303.4 56.4099 303.52 55.0399C302.76 54.9899 302.01 54.9499 301.25 54.8999C301.16 58.0899 301.09 61.2899 300.95 64.4799C300.86 66.5199 301.3 69.8899 300.38 70.3399C297.88 71.5599 294.54 72.4499 291.95 71.7999C287.47 70.6799 286.01 66.1699 287.61 61.5599C288.01 60.4099 288.04 59.1299 287.52 57.8099C283.59 62.2299 285.2 67.2299 286.09 72.0999C280.09 72.9999 275.73 70.7499 274.28 66.1599C272.63 60.9199 276.3 55.3699 284.39 50.8599C284.29 48.4899 284.18 46.1199 284.08 43.7399C282.34 37.2099 280.6 30.6699 278.86 24.1399L278.75 23.9899C278.57 23.5699 278.39 23.1399 278.21 22.7199H278.2Z" fill="#13110C"/>
<path d="M278.84 24.1399C280.58 30.6699 282.32 37.2099 284.06 43.7399C286.37 42.3099 290.15 41.2899 290.68 39.3599C291.88 35.0199 291.48 29.9699 287.26 27.0099C284.92 25.3799 281.67 25.0499 278.83 24.1399H278.84Z" fill="#858180"/>
<path d="M313.81 28.9C311.82 21.86 309.83 14.82 307.83 7.77002C305.98 8.23002 304.12 8.69002 302.32 9.14002C301.67 21.85 305.97 30.34 313.8 28.9H313.81Z" fill="#858180"/>
<g clip-path="url(#clip9_2022_1980)">
<path d="M278.2 22.7199C277.5 20.9599 276.92 19.1299 276.04 17.4599C275.62 16.6699 274.63 16.1799 273.12 14.8999C276.48 27.0399 279.48 37.8999 282.53 48.9299C275.31 52.1699 271.61 57.1599 272.04 65.0199C272.44 72.2399 278.68 76.5899 285.78 74.7799C288.87 73.9899 292.4 75.0399 295.6 74.4899C298.79 73.9399 301.82 72.4299 306.32 70.8499C309.95 72.7399 315.01 71.8799 319.33 67.6499C323.74 63.3399 324.87 58.2299 323.04 52.1399C318.83 38.0799 314.97 23.9199 310.97 9.79989C310.51 8.18989 310.65 5.72989 307.84 7.76989C309.83 14.8099 311.82 21.8499 313.82 28.8999C316.25 38.0099 318.98 47.0499 320.99 56.2399C322.31 62.2899 316.76 68.5199 310.79 68.6299C304.8 68.7399 301.84 65.0099 303.15 59.1499C303.45 57.8199 303.4 56.4099 303.52 55.0399C302.76 54.9899 302.01 54.9499 301.25 54.8999C301.16 58.0899 301.09 61.2899 300.95 64.4799C300.86 66.5199 301.3 69.8899 300.38 70.3399C297.88 71.5599 294.54 72.4499 291.95 71.7999C287.47 70.6799 286.01 66.1699 287.61 61.5599C288.01 60.4099 288.04 59.1299 287.52 57.8099C283.59 62.2299 285.2 67.2299 286.09 72.0999C280.09 72.9999 275.73 70.7499 274.28 66.1599C272.63 60.9199 276.3 55.3699 284.39 50.8599C284.29 48.4899 284.18 46.1199 284.08 43.7399C282.34 37.2099 280.6 30.6699 278.86 24.1399L278.75 23.9899C278.57 23.5699 278.39 23.1399 278.21 22.7199H278.2Z" fill="#13110C"/>
<path d="M278.84 24.1399C280.58 30.6699 282.32 37.2099 284.06 43.7399C286.37 42.3099 290.15 41.2899 290.68 39.3599C291.88 35.0199 291.48 29.9699 287.26 27.0099C284.92 25.3799 281.67 25.0499 278.83 24.1399H278.84Z" fill="#858180"/>
<path d="M313.81 28.9C311.82 21.86 309.83 14.82 307.83 7.77002C305.98 8.23002 304.12 8.69002 302.32 9.14002C301.67 21.85 305.97 30.34 313.8 28.9H313.81Z" fill="#858180"/>
</g>
</g>
<g clip-path="url(#clip10_2022_1980)">
<path d="M932.22 20C932.22 21.73 932.22 23.46 932.22 25.19C932.22 26.78 932.22 28.37 932.22 29.96C932.22 33.68 932.22 37.39 932.22 41.11C931.88 45.3 931.54 49.48 931.26 52.99C927.89 54.22 925.04 54.86 922.61 56.23C918.36 58.63 915.91 63.85 917.27 67.89C918.36 71.13 920.18 74.29 924.45 73.9C925.23 73.83 926.28 72.73 926.54 71.9C927.52 68.84 928.03 65.61 929.14 62.61C929.42 61.85 931.27 61.66 932.39 61.21L933 62.42C932.37 63.09 931.7 63.73 931.11 64.44C928.53 67.53 927.89 71.33 930.43 74.18C932.2 76.17 935.77 77.75 938.37 77.52C942.25 77.18 943.24 73.81 943.25 69.81C943.25 67.38 945.31 64.96 946.44 62.53L948.31 63.58C947.78 64.62 947.41 65.81 946.69 66.69C944.23 69.67 944.1 72.41 946.92 75.29C951.84 80.32 959.28 79.21 962.99 72.83C966.66 66.52 964.36 59.68 964.83 53.08C964.83 50.35 964.83 47.63 964.83 44.9C964.83 43.31 964.83 41.72 964.83 40.13C964.83 38.43 964.83 36.73 964.83 35.02L964.94 32.06C965.24 28.04 965.53 24.02 965.83 20C966.53 20.17 967.85 20.36 967.85 20.52C967.65 29.9 967.19 39.27 967.11 48.65C967.07 53.87 968.07 59.1 967.86 64.3C967.44 74.91 962.18 81.25 952.06 80.74C949.4 80.6 946.82 78.84 943.83 77.68C940.54 80.86 936.11 80.57 931.45 78.63C929.84 77.96 928.19 77.1 926.5 76.95C919.58 76.35 915.61 73.6 914.22 68.09C913.02 63.31 916.67 56.31 922 53.67C924.09 52.63 926.45 52.13 929.67 51.06V20.67C929.68 20.3 929.98 20 930.35 20H932.22Z" fill="#13110C"/>
<path d="M932.22 25.19C932.22 23.46 932.22 21.73 932.22 20C943.43 20 954.64 20 965.85 20C965.55 24.02 965.26 28.04 964.96 32.06C962.66 31.39 960.24 29.89 958.08 30.21C948.79 31.58 941.05 25.67 932.22 25.19Z" fill="#858180"/>
<path d="M964.85 40.13C957.12 40.43 949.38 40.75 941.65 41.01C938.51 41.12 935.37 41.08 932.22 41.12C932.22 37.4 932.22 33.69 932.22 29.97C934.89 30.54 937.8 30.6 940.18 31.77C948.05 35.61 956.52 35.21 964.85 35.95C964.85 37.35 964.85 38.74 964.85 40.14V40.13Z" fill="#858180"/>
<path d="M964.85 53.0001C956.43 51.5801 947.99 50.2301 939.6 48.6501C938.27 48.4001 933.02 47.1401 931.8 46.3001C931.83 45.9001 931.92 44.8601 931.96 44.4001C935.4 44.7101 943.29 45.9601 946.72 45.8301C950.57 45.6901 954.38 44.6801 958.24 44.3601C960.42 44.1801 962.65 44.6401 964.86 44.8201C964.86 47.5501 964.86 50.2701 964.86 53.0001H964.85Z" fill="#858180"/>
<path d="M964.85 35.9399C956.52 35.1999 948.05 35.5999 940.18 31.7599C937.8 30.5999 934.89 30.5299 932.22 29.9599C932.22 28.3699 932.22 26.7799 932.22 25.1899C941.05 25.6599 948.79 31.5799 958.08 30.2099C960.24 29.8899 962.66 31.3999 964.96 32.0599C964.92 33.3499 964.89 34.6399 964.85 35.9399Z" fill="#666362"/>
<path d="M932.22 41.0801C935.36 41.0501 938.51 41.0801 941.65 40.9701C949.38 40.7101 957.12 40.3901 964.85 40.0901C964.85 41.6801 964.85 43.2701 964.85 44.8601C962.64 44.6901 960.41 44.2201 958.23 44.4001C954.37 44.7101 950.56 45.7301 946.71 45.8701C943.35 45.9901 939.97 45.3601 936.59 45.0401C936.45 45.0301 936.32 45.0001 936.18 44.9601C934.6 44.5401 932.04 44.7301 931.89 45.1201" fill="#666362"/>
</g>
<g clip-path="url(#clip11_2022_1980)">
<path d="M878.22 0C878.22 1.73 878.22 3.46 878.22 5.19C878.22 6.78 878.22 8.37 878.22 9.96C878.22 13.68 878.22 17.39 878.22 21.11C877.88 25.3 877.54 29.48 877.26 32.99C873.89 34.22 871.04 34.86 868.61 36.23C864.36 38.63 861.91 43.85 863.27 47.89C864.36 51.13 866.18 54.29 870.45 53.9C871.23 53.83 872.28 52.73 872.54 51.9C873.52 48.84 874.03 45.61 875.14 42.61C875.42 41.85 877.27 41.66 878.39 41.21L879 42.42C878.37 43.09 877.7 43.73 877.11 44.44C874.53 47.53 873.89 51.33 876.43 54.18C878.2 56.17 881.77 57.75 884.37 57.52C888.25 57.18 889.24 53.81 889.25 49.81C889.25 47.38 891.31 44.96 892.44 42.53L894.31 43.58C893.78 44.62 893.41 45.81 892.69 46.69C890.23 49.67 890.1 52.41 892.92 55.29C897.84 60.32 905.28 59.21 908.99 52.83C912.66 46.52 910.36 39.68 910.83 33.08C910.83 30.35 910.83 27.63 910.83 24.9C910.83 23.31 910.83 21.72 910.83 20.13C910.83 18.43 910.83 16.73 910.83 15.02L910.94 12.06C911.24 8.04 911.53 4.02 911.83 0C912.53 0.17 913.85 0.36 913.85 0.52C913.65 9.9 913.19 19.27 913.11 28.65C913.07 33.87 914.07 39.1 913.86 44.3C913.44 54.91 908.18 61.25 898.06 60.74C895.4 60.6 892.82 58.84 889.83 57.68C886.54 60.86 882.11 60.57 877.45 58.63C875.84 57.96 874.19 57.1 872.5 56.95C865.58 56.35 861.61 53.6 860.22 48.09C859.02 43.31 862.67 36.31 868 33.67C870.09 32.63 872.45 32.13 875.67 31.06V0.67C875.68 0.3 875.98 0 876.35 0H878.22Z" fill="#13110C"/>
<path d="M878.22 5.19C878.22 3.46 878.22 1.73 878.22 0C889.43 0 900.64 0 911.85 0C911.55 4.02 911.26 8.04 910.96 12.06C908.66 11.39 906.24 9.89 904.08 10.21C894.79 11.58 887.05 5.67 878.22 5.19Z" fill="#858180"/>
<path d="M910.85 20.13C903.12 20.43 895.38 20.75 887.65 21.01C884.51 21.12 881.37 21.08 878.22 21.12C878.22 17.4 878.22 13.69 878.22 9.96997C880.89 10.54 883.8 10.6 886.18 11.77C894.05 15.61 902.52 15.21 910.85 15.95C910.85 17.35 910.85 18.74 910.85 20.14V20.13Z" fill="#858180"/>
<path d="M910.85 33.0001C902.43 31.5801 893.99 30.2301 885.6 28.6501C884.27 28.4001 879.02 27.1401 877.8 26.3001C877.83 25.9001 877.92 24.8601 877.96 24.4001C881.4 24.7101 889.29 25.9601 892.72 25.8301C896.57 25.6901 900.38 24.6801 904.24 24.3601C906.42 24.1801 908.65 24.6401 910.86 24.8201C910.86 27.5501 910.86 30.2701 910.86 33.0001H910.85Z" fill="#858180"/>
<path d="M910.85 15.9399C902.52 15.1999 894.05 15.5999 886.18 11.7599C883.8 10.5999 880.89 10.5299 878.22 9.95994C878.22 8.36994 878.22 6.77994 878.22 5.18994C887.05 5.65994 894.79 11.5799 904.08 10.2099C906.24 9.88994 908.66 11.3999 910.96 12.0599C910.92 13.3499 910.89 14.6399 910.85 15.9399Z" fill="#666362"/>
<path d="M878.22 21.0801C881.36 21.0501 884.51 21.0801 887.65 20.9701C895.38 20.7101 903.12 20.3901 910.85 20.0901C910.85 21.6801 910.85 23.2701 910.85 24.8601C908.64 24.6901 906.41 24.2201 904.23 24.4001C900.37 24.7101 896.56 25.7301 892.71 25.8701C889.35 25.9901 885.97 25.3601 882.59 25.0401C882.45 25.0301 882.32 25.0001 882.18 24.9601C880.6 24.5401 878.04 24.7301 877.89 25.1201" fill="#666362"/>
</g>
<defs>
<clipPath id="clip0_2022_1980">
<rect width="67.349" height="58.3691" fill="white" transform="translate(1216.58 17.1162) rotate(-9.50045)"/>
</clipPath>
<clipPath id="clip1_2022_1980">
<rect width="67.349" height="58.3691" fill="white" transform="matrix(-0.986284 -0.165055 -0.165055 0.986284 1217.06 17.1162)"/>
</clipPath>
<clipPath id="clip2_2022_1980">
<rect width="45" height="54" fill="white" transform="translate(54 14)"/>
</clipPath>
<clipPath id="clip3_2022_1980">
<rect width="45" height="54" fill="white" transform="matrix(-1 0 0 1 45 14)"/>
</clipPath>
<clipPath id="clip4_2022_1980">
<rect width="58.8" height="65.36" fill="white" transform="translate(561 5)"/>
</clipPath>
<clipPath id="clip5_2022_1980">
<rect width="58.8" height="65.36" fill="white" transform="translate(628 11)"/>
</clipPath>
<clipPath id="clip6_2022_1980">
<rect width="51.88" height="68.19" fill="white" transform="translate(336 6)"/>
</clipPath>
<clipPath id="clip7_2022_1980">
<rect width="51.88" height="68.19" fill="white" transform="translate(336 6)"/>
</clipPath>
<clipPath id="clip8_2022_1980">
<rect width="51.88" height="68.19" fill="white" transform="matrix(-1 0 0 1 323.88 7)"/>
</clipPath>
<clipPath id="clip9_2022_1980">
<rect width="51.88" height="68.19" fill="white" transform="matrix(-1 0 0 1 323.88 7)"/>
</clipPath>
<clipPath id="clip10_2022_1980">
<rect width="53.9" height="60.76" fill="white" transform="translate(914 20)"/>
</clipPath>
<clipPath id="clip11_2022_1980">
<rect width="53.9" height="60.76" fill="white" transform="translate(860)"/>
</clipPath>
</defs>
</svg>
