<svg width="82" height="84" viewBox="0 0 82 84" fill="none" xmlns="http://www.w3.org/2000/svg">
<g clip-path="url(#clip0_2022_2236)">
<path d="M3.44451 34.891C3.00734 35.4635 2.10082 36.4417 2.20148 36.566C8.25806 43.7314 14.5105 50.7254 20.4738 57.9662C23.7889 61.9986 26.3018 66.6931 29.7365 70.603C36.7379 78.586 44.8151 80.205 52.3607 73.4419C54.3402 71.6596 55.2384 68.6684 56.8328 65.8857C61.3908 66.2877 64.6518 63.2753 67.0536 58.8356C67.8836 57.302 68.6251 55.5954 69.8444 54.4156C74.8459 49.5958 76.2017 44.9605 73.8157 39.8031C71.7413 35.3326 64.5003 32.1877 58.6964 33.4888C56.4175 33.9953 54.2685 35.0913 51.0924 36.2854L29.866 10.0589C29.3571 10.3679 28.8559 10.6706 28.3407 10.9718C28.7551 11.8972 29.1632 12.8147 29.5777 13.7401C30.6661 15.0848 31.7544 16.4296 32.8428 17.7743C33.8431 19.0102 34.8434 20.2462 35.8437 21.4821C38.184 24.3737 40.518 27.2575 42.8583 30.1491C45.7586 33.1921 48.6526 36.2274 51.0785 38.7796C54.4718 37.6155 57.0898 36.32 59.8406 35.8562C64.654 35.048 69.8424 37.5642 71.3269 41.5602C72.518 44.7644 73.0913 48.3657 69.5268 50.7489C68.8765 51.1852 67.3683 50.9907 66.644 50.5091C63.9571 48.7471 61.5287 46.5572 58.7785 44.9236C58.0827 44.509 56.5252 45.5252 55.3715 45.88C55.4677 46.3167 55.5561 46.7598 55.6585 47.2043C56.5698 47.3287 57.4932 47.4047 58.3985 47.5854C62.3479 48.3642 65.236 50.9153 65.0546 54.7286C64.9308 57.389 63.1498 60.8631 60.9841 62.32C57.7542 64.4967 54.8645 62.5 52.3403 59.3971C50.8115 57.5082 47.6878 56.9231 45.2807 55.7451C45.019 56.4072 44.7494 57.0756 44.4877 57.7378C45.5539 58.2127 46.5902 58.9049 47.7035 59.136C51.4904 59.9048 53.3153 61.9528 52.9351 65.9656C52.2752 72.9707 45.7937 76.7885 38.8961 74.1633C32.0737 71.5673 29.5583 64.8036 25.0408 59.969C23.3233 57.847 21.6121 55.7327 19.8946 53.6106C18.8943 52.3747 17.894 51.1388 16.8937 49.9028C16.013 48.8146 15.1385 47.7342 14.2577 46.6459L11.7312 43.6992C8.969 40.7631 6.21452 37.8208 3.45228 34.8847L3.44451 34.891Z" fill="#13110C"/>
<path d="M32.8428 17.7742C31.7544 16.4295 30.666 15.0847 29.5776 13.74C20.864 20.7924 12.1503 27.8448 3.4367 34.8972C6.19894 37.8333 8.95341 40.7756 11.7157 43.7117C13.082 41.7439 14.0194 39.0555 15.8997 37.9453C23.9828 33.1657 26.2811 23.7024 32.8428 17.7742Z" fill="#858180"/>
<path d="M25.0191 59.9738C29.5303 64.8006 32.0457 71.5643 38.8744 74.1681C45.772 76.7933 52.2535 72.9755 52.9134 65.9703C53.2936 61.9576 51.4673 59.9236 47.6818 59.1408C46.5607 58.916 45.5385 58.2252 44.466 57.7425C44.7277 57.0804 44.9972 56.412 45.259 55.7499C47.6661 56.9278 50.7898 57.5129 52.3186 59.4018C54.8428 62.5048 57.7325 64.5015 60.9624 62.3248C63.1203 60.8741 64.909 57.3938 65.0329 54.7334C65.2143 50.9201 62.3325 48.3767 58.3768 47.5902C57.4715 47.4095 56.548 47.3335 55.6368 47.209C55.5407 46.7723 55.4522 46.3292 55.3498 45.8847C56.5112 45.5236 58.0547 44.506 58.7568 44.9283C61.5132 46.5697 63.9432 48.7455 66.6223 50.5138C67.3543 50.9891 68.8625 51.1836 69.5051 50.7536C73.0696 48.3704 72.49 44.7614 71.3052 41.5649C69.827 37.5767 64.6386 35.0605 59.8189 35.861C57.0681 36.3248 54.4501 37.6203 51.0568 38.7843C48.6372 36.2399 45.7369 33.1969 42.8366 30.1538C40.377 32.1059 37.9474 34.111 35.4374 36.0009C29.2652 40.6619 23.0475 45.2825 16.8502 49.9124C17.8505 51.1483 18.8508 52.3843 19.8511 53.6202C21.462 52.0977 22.8997 50.3294 24.7075 49.0979C27.9029 46.9104 31.5062 45.3063 34.5869 42.9931C37.3349 40.9362 39.6014 38.2528 42.074 35.8399C42.4563 36.0579 42.8308 36.2822 43.2131 36.5003C42.7933 37.9207 42.7579 39.6732 41.8736 40.7106C36.3523 47.2248 30.6348 53.5761 24.9832 59.9771L25.0191 59.9738Z" fill="white"/>
<path d="M16.8783 49.9154C23.0756 45.2856 29.2933 40.6649 35.4655 36.004C37.9755 34.114 40.3911 32.1075 42.8648 30.1569C40.5244 27.2653 38.1904 24.3815 35.8501 21.4899C34.1333 23.6127 31.909 25.49 30.7951 27.8968C27.0935 35.8328 20.258 40.8505 14.2486 46.6663C15.1294 47.7545 16.0038 48.835 16.8846 49.9232L16.8783 49.9154Z" fill="#858180"/>
<path d="M25.0191 59.9738C30.6707 53.5729 36.3819 47.2138 41.9095 40.7073C42.786 39.6763 42.8214 37.9238 43.249 36.497C42.8667 36.279 42.4922 36.0546 42.1098 35.8366C39.6309 38.2417 37.3567 40.9315 34.6228 42.9898C31.542 45.3031 27.9451 46.9149 24.7433 49.0946C22.9356 50.3262 21.4916 52.0867 19.8869 53.6169C21.6044 55.739 23.3156 57.8533 25.0331 59.9753L25.0191 59.9738Z" fill="#858180"/>
<path d="M14.2358 46.6507C20.2453 40.8349 27.0807 35.8172 30.7823 27.8812C31.9026 25.4822 34.1205 23.5971 35.8373 21.4742C34.837 20.2383 33.8367 19.0024 32.8364 17.7665C26.2685 23.6869 23.9765 33.158 15.8934 37.9376C14.013 39.0477 13.0819 41.7439 11.7093 43.7039C12.552 44.6815 13.3869 45.6653 14.2358 46.6507Z" fill="white"/>
</g>
<defs>
<clipPath id="clip0_2022_2236">
<rect width="53.9" height="63.68" fill="white" transform="matrix(-0.77731 0.629117 0.629117 0.77731 41.897 0)"/>
</clipPath>
</defs>
</svg>
