<svg width="42" height="42" viewBox="0 0 42 42" fill="none" xmlns="http://www.w3.org/2000/svg">
<g id="facebook_svgrepo.com">
<path id="Vector" d="M21 3.56995C11.375 3.56995 3.5 11.4274 3.5 21.105C3.5 29.855 9.905 37.1175 18.27 38.43V26.18H13.825V21.105H18.27V17.2374C18.27 12.8449 20.8775 10.4299 24.885 10.4299C26.7925 10.4299 28.7875 10.7624 28.7875 10.7624V15.0849H26.5825C24.4125 15.0849 23.73 16.4324 23.73 17.815V21.105H28.595L27.8075 26.18H23.73V38.43C27.8537 37.7786 31.6088 35.6746 34.3173 32.4975C37.0258 29.3205 38.5094 25.2798 38.5 21.105C38.5 11.4274 30.625 3.56995 21 3.56995Z" fill="black"/>
</g>
</svg>
