<svg width="42" height="42" viewBox="0 0 42 42" fill="none" xmlns="http://www.w3.org/2000/svg">
<g id="instagram_svgrepo.com">
<path id="Vector" fill-rule="evenodd" clip-rule="evenodd" d="M21 31.5C26.799 31.5 31.5 26.799 31.5 21C31.5 15.201 26.799 10.5 21 10.5C15.201 10.5 10.5 15.201 10.5 21C10.5 26.799 15.201 31.5 21 31.5ZM21 28C24.8659 28 28 24.8659 28 21C28 17.134 24.8659 14 21 14C17.134 14 14 17.134 14 21C14 24.8659 17.134 28 21 28Z" fill="#0F0F0F"/>
<path id="Vector_2" d="M31.5 8.75C30.5335 8.75 29.75 9.53351 29.75 10.5C29.75 11.4665 30.5335 12.25 31.5 12.25C32.4665 12.25 33.25 11.4665 33.25 10.5C33.25 9.53351 32.4665 8.75 31.5 8.75Z" fill="#0F0F0F"/>
<path id="Vector_3" fill-rule="evenodd" clip-rule="evenodd" d="M2.89443 7.48311C1.75 9.72918 1.75 12.6695 1.75 18.55V23.45C1.75 29.3305 1.75 32.2709 2.89443 34.5168C3.9011 36.4926 5.50739 38.0989 7.48311 39.1055C9.72918 40.25 12.6695 40.25 18.55 40.25H23.45C29.3305 40.25 32.2709 40.25 34.5168 39.1055C36.4926 38.0989 38.0989 36.4926 39.1055 34.5168C40.25 32.2709 40.25 29.3305 40.25 23.45V18.55C40.25 12.6695 40.25 9.72918 39.1055 7.48311C38.0989 5.50739 36.4926 3.9011 34.5168 2.89443C32.2709 1.75 29.3305 1.75 23.45 1.75H18.55C12.6695 1.75 9.72918 1.75 7.48311 2.89443C5.50739 3.9011 3.9011 5.50739 2.89443 7.48311ZM23.45 5.25H18.55C15.552 5.25 13.5139 5.25273 11.9386 5.38142C10.4042 5.50679 9.61947 5.73403 9.07207 6.01295C7.75493 6.68407 6.68407 7.75493 6.01295 9.07207C5.73403 9.61947 5.50679 10.4042 5.38142 11.9386C5.25273 13.5139 5.25 15.552 5.25 18.55V23.45C5.25 26.4481 5.25273 28.486 5.38142 30.0613C5.50679 31.5959 5.73403 32.3806 6.01295 32.928C6.68407 34.245 7.75493 35.3159 9.07207 35.987C9.61947 36.2659 10.4042 36.4933 11.9386 36.6186C13.5139 36.7472 15.552 36.75 18.55 36.75H23.45C26.4481 36.75 28.486 36.7472 30.0613 36.6186C31.5959 36.4933 32.3806 36.2659 32.928 35.987C34.245 35.3159 35.3159 34.245 35.987 32.928C36.2659 32.3806 36.4933 31.5959 36.6186 30.0613C36.7472 28.486 36.75 26.4481 36.75 23.45V18.55C36.75 15.552 36.7472 13.5139 36.6186 11.9386C36.4933 10.4042 36.2659 9.61947 35.987 9.07207C35.3159 7.75493 34.245 6.68407 32.928 6.01295C32.3806 5.73403 31.5959 5.50679 30.0613 5.38142C28.486 5.25273 26.4481 5.25 23.45 5.25Z" fill="#0F0F0F"/>
</g>
</svg>
