<svg width="139" height="108" viewBox="0 0 139 108" fill="none" xmlns="http://www.w3.org/2000/svg">
<g id="logo ronronpagnie 1" clip-path="url(#clip0_2078_969)">
<g id="Calque 1">
<g id="Group">
<path id="Vector" d="M134.34 19.2973C128.52 15.6909 122.215 17.4227 118.43 19.145C118.477 17.9746 118.496 16.7947 118.496 15.6053C118.496 15.5387 118.496 15.4721 118.496 15.3959C118.496 9.05868 108.777 3.44458 93.8554 0C103.194 3.05445 108.958 7.23172 108.958 11.8467C108.958 21.1908 85.2868 28.7746 56.0907 28.7746C26.8946 28.7746 3.22393 21.1908 3.22393 11.8467C3.22393 10.5716 3.6614 9.33463 4.49829 8.1452C1.5977 10.3718 0 12.8268 0 15.3959C0 25.8724 26.5237 34.3697 59.2481 34.3697C80.8456 34.3697 99.7517 30.6682 110.099 25.1397C107.949 43.8661 99.9324 60.1945 88.4727 71.0802C78.449 80.862 65.8766 86.6855 52.2296 86.6855C45.6676 86.6855 39.3624 85.3438 33.4661 82.8603C41.2644 87.618 50.0138 90.2823 59.2576 90.2823C87.4741 90.2823 111.088 65.4185 117.051 32.1145C117.954 27.0428 123.052 23.76 127.997 25.2254C130.308 25.9105 132.134 27.5471 132.486 30.8775C134.14 46.3782 113.028 64.4099 113.028 64.4099C134.112 54.4853 146.199 26.6337 134.35 19.2973H134.34Z" fill="#1D1D1B"/>
<path id="Vector_2" d="M6.23876 18.9738C5.47795 18.6217 4.85028 17.9271 4.25114 17.2134C2.88168 16.9851 1.48369 16.8994 0.0952148 16.8994C0.133255 17.2134 0.152276 17.5369 0.152276 17.8605C0.399539 42.9907 10.4803 65.2473 26.5524 77.4936C13.5996 63.1729 6.1817 42.0962 6.23876 18.9738Z" fill="#1D1D1B"/>
<path id="Vector_3" d="M97.355 84.4492C103.651 86.6282 107.322 89.2735 107.322 92.1091C107.322 99.6453 81.3876 105.754 49.3955 105.754C33.9415 105.754 19.9046 104.327 9.51953 102.005C19.9426 105.621 37.5268 108 57.4696 108C89.4616 108 115.396 101.891 115.396 94.3548C115.396 90.4535 108.463 86.9423 97.3455 84.4587L97.355 84.4492Z" fill="#1D1D1B"/>
<g id="Group_2">
<path id="Vector_4" d="M45.5155 59.2717C45.6486 61.6505 44.0224 62.3737 42.1489 63.0302C38.1071 64.448 35.178 69.8243 38.9725 73.4782C40.0757 74.5344 41.8636 74.8769 43.1189 75.4384C43.8322 72.0033 44.4313 69.0916 45.0305 66.1799C45.544 66.294 46.0576 66.4177 46.5711 66.5319C46.2383 67.5976 46.0956 68.7871 45.5345 69.7101C44.146 71.9843 45.1921 74.0301 46.8089 75.0006C48.2734 75.8761 50.5273 75.6857 52.3723 75.4954C52.8858 75.4383 53.3518 73.7256 53.6181 72.7169C54.1792 70.614 54.5977 68.4636 55.0732 66.3416L56.4521 66.7127C56.2714 67.3027 56.2524 68.0163 55.891 68.4635C54.4645 70.3 54.8259 72.0889 56.0432 73.7351C57.3556 75.524 59.1911 76.1139 61.3879 75.4669C64.9447 74.4297 67.579 71.3848 67.2842 67.826C66.8467 62.5259 65.9813 57.2639 65.2966 51.9828C64.8876 47.3584 64.4787 42.7243 64.0697 38.0999C64.6689 38.471 65.753 38.7945 65.8101 39.2322C66.8657 48.2147 67.8643 57.2068 68.7392 66.2084C69.3193 72.2031 65.8386 76.6563 60.2086 77.4176C60.0089 77.4461 59.7426 77.6079 59.6285 77.5317C56.4331 75.3051 53.4755 77.6554 50.4322 77.7506C47.1227 77.8648 43.6325 76.7705 40.1898 76.3328C37.3843 75.9807 35.7771 73.1927 35.7581 70.2905C35.7296 66.9696 36.8423 63.9532 39.9711 62.1739C41.1694 61.4983 42.5103 61.0701 44.1175 60.385C43.4898 53.5148 42.8527 46.4639 42.2155 39.413C42.4152 39.3369 42.6149 39.2702 42.8146 39.1941C43.1285 39.9078 43.4328 40.6119 43.7466 41.3256C44.3362 47.3013 44.9259 53.2769 45.5155 59.2621V59.2717Z" fill="#13110C"/>
<path id="Vector_5" d="M45.5155 59.2715C44.9258 53.2958 44.3362 47.3202 43.7466 41.335C48.7489 42.4863 52.0775 47.0728 52.2962 50.5269C52.5244 54.1903 49.4622 57.9584 45.5155 59.2715Z" fill="#858180"/>
<path id="Vector_6" d="M64.0889 38.1093C64.4978 42.7338 64.9067 47.3678 65.3157 51.9923C60.922 51.5165 56.6519 45.95 57.4413 41.7252C57.9739 38.9086 59.9995 37.8048 64.0889 38.1093Z" fill="#E5A166"/>
</g>
<g id="Group_3">
<g id="Group_4">
<path id="Vector_7" d="M36.6425 95.0018C36.5188 94.6783 36.7756 94.4214 37.099 94.5451L38.4589 95.0494L40.5511 95.8201L39.2578 97.1333L37.9644 98.4464L37.175 96.3625L36.6615 95.0113L36.6425 95.0018Z" fill="#1D1D1B"/>
<path id="Vector_8" d="M37.3368 95.2778C37.2512 95.0494 37.4319 94.8591 37.6602 94.9448L38.6302 95.3063L40.1233 95.8582L39.2008 96.7907L38.2783 97.7233L37.7077 96.2389L37.3368 95.2683V95.2778Z" fill="#E791B5"/>
</g>
<g id="Group_5">
<path id="Vector_9" d="M45.4014 94.3454L44.0414 94.8497L41.9492 95.6204L42.5008 96.1819C42.672 96.2009 42.8527 96.2199 42.9288 96.2389C43.2521 96.3056 43.4708 96.4293 43.6135 96.5815C43.8037 96.7718 43.8798 97.0002 43.8988 97.1905V97.2095C43.8988 97.3047 43.8798 97.4474 43.8703 97.5616L44.5455 98.2467L45.3348 96.1628L45.8484 94.8116C45.972 94.4881 45.7152 94.2312 45.3919 94.3549L45.4014 94.3454Z" fill="#1D1D1B"/>
<path id="Vector_10" d="M44.8403 94.7451L43.8703 95.1066L42.3772 95.6585L42.9478 96.239C43.2711 96.3056 43.4804 96.4388 43.623 96.5815C43.8037 96.7718 43.8798 97.0192 43.8988 97.2095L44.2317 97.5426L44.8023 96.0582L45.1732 95.0876C45.2588 94.8592 45.0781 94.6689 44.8498 94.7546L44.8403 94.7451Z" fill="#E791B5"/>
</g>
<path id="Vector_11" d="M42.339 95.5063C43.1949 95.5063 43.8225 95.6681 44.2315 96.0011C44.6404 96.3247 44.8401 96.7338 44.8401 97.2191C44.8401 97.6473 44.726 98.1707 44.5073 98.7987C44.2885 99.4267 43.9747 99.9881 43.5658 100.483C43.5372 100.521 43.4326 100.645 43.2519 100.873C43.0712 101.101 42.862 101.273 42.6338 101.387C42.4055 101.511 42.1678 101.568 41.911 101.568C41.7969 101.568 41.6923 101.549 41.5972 101.511C41.5021 101.473 41.4545 101.415 41.4545 101.358C41.4545 101.339 41.4926 101.301 41.5591 101.235C41.6257 101.168 41.6828 101.12 41.7208 101.082C42.1583 100.721 42.5006 100.359 42.7669 100.007C43.1188 99.5599 43.4041 99.1127 43.5943 98.6655C43.794 98.2182 43.8891 97.7425 43.8891 97.2191C43.8891 96.515 43.2805 96.1724 42.0537 96.1724C41.4831 96.1724 40.9505 96.2866 40.4655 96.515C39.9805 96.7433 39.581 97.0288 39.2957 97.3618C39.0009 97.6949 38.8583 97.9994 38.8583 98.2753C38.8583 98.5893 39.0009 98.8558 39.2957 99.0841C39.5905 99.3125 39.99 99.5599 40.494 99.8168C40.8269 99.9881 41.0646 100.121 41.2168 100.226C41.3689 100.331 41.445 100.416 41.445 100.492C41.445 100.597 41.3404 100.683 41.1217 100.749C40.9029 100.816 40.6557 100.844 40.3609 100.844C40.1992 100.844 40.0851 100.844 40.0375 100.825C39.99 100.816 39.9614 100.787 39.9614 100.749C39.9614 100.73 39.9805 100.702 40.028 100.664C40.0756 100.626 40.0946 100.588 40.0946 100.569C40.0946 100.55 39.9709 100.454 39.7142 100.302C39.2101 100.007 38.7822 99.7122 38.4398 99.4077C38.0974 99.1032 37.9263 98.7511 37.9263 98.3419C37.9263 97.9994 38.107 97.5997 38.4779 97.143C38.8487 96.6958 39.3718 96.3056 40.0375 95.9821C40.7127 95.6586 41.4831 95.4968 42.3485 95.4968L42.339 95.5063Z" fill="#1D1D1B"/>
</g>
<g id="Group_6">
<g id="Group_7">
<path id="Vector_12" d="M57.2985 94.84C57.1749 94.5164 57.4316 94.2595 57.755 94.3832L59.1149 94.8875L61.2071 95.6583L59.9138 96.9714L58.6204 98.2845L57.8311 96.2007L57.3175 94.8495L57.2985 94.84Z" fill="#1D1D1B"/>
<path id="Vector_13" d="M57.9928 95.1159C57.9072 94.8876 58.0879 94.6972 58.3162 94.7829L59.2862 95.1445L60.7793 95.6964L59.8568 96.6289L58.9343 97.5614L58.3637 96.077L57.9928 95.1064V95.1159Z" fill="#E791B5"/>
</g>
<g id="Group_8">
<path id="Vector_14" d="M66.0669 94.174L64.707 94.6783L62.6147 95.4491L63.1663 96.0105C63.3375 96.0295 63.5182 96.0485 63.5943 96.0676C63.9176 96.1342 64.1364 96.2579 64.279 96.4101C64.4692 96.6004 64.5453 96.8288 64.5643 97.0191V97.0381C64.5643 97.1333 64.5453 97.276 64.5358 97.3902L65.211 98.0753L66.0004 95.9914L66.5139 94.6402C66.6375 94.3167 66.3808 94.0598 66.0574 94.1835L66.0669 94.174Z" fill="#1D1D1B"/>
<path id="Vector_15" d="M65.5058 94.5832L64.5358 94.9448L63.0427 95.4967L63.6133 96.0771C63.9367 96.1437 64.1459 96.2769 64.2885 96.4197C64.4692 96.61 64.5453 96.8574 64.5643 97.0477L64.8972 97.3807L65.4678 95.8963L65.8387 94.9257C65.9243 94.6974 65.7436 94.5071 65.5154 94.5927L65.5058 94.5832Z" fill="#E791B5"/>
</g>
<path id="Vector_16" d="M63.0045 95.335C63.8604 95.335 64.4881 95.4967 64.897 95.8298C65.3059 96.1533 65.5057 96.5624 65.5057 97.0477C65.5057 97.4759 65.3915 97.9993 65.1728 98.6273C64.9541 99.2553 64.6402 99.8167 64.2313 100.312C64.2028 100.35 64.0982 100.473 63.9175 100.702C63.7368 100.93 63.5275 101.101 63.2993 101.215C63.0711 101.339 62.8333 101.396 62.5765 101.396C62.4624 101.396 62.3578 101.377 62.2627 101.339C62.1676 101.301 62.1201 101.244 62.1201 101.187C62.1201 101.168 62.1581 101.13 62.2247 101.063C62.2912 100.997 62.3483 100.949 62.3863 100.911C62.8238 100.549 63.1662 100.188 63.4324 99.8357C63.7843 99.3885 64.0696 98.9413 64.2598 98.4941C64.4595 98.0469 64.5546 97.5711 64.5546 97.0477C64.5546 96.3436 63.946 96.001 62.7192 96.001C62.1486 96.001 61.616 96.1152 61.131 96.3436C60.646 96.572 60.2466 96.8574 59.9613 97.1905C59.6664 97.5235 59.5238 97.828 59.5238 98.1039C59.5238 98.4179 59.6664 98.6844 59.9613 98.9127C60.2561 99.1411 60.6555 99.3885 61.1595 99.6454C61.4924 99.8167 61.7301 99.9499 61.8823 100.055C62.0345 100.159 62.1105 100.245 62.1105 100.321C62.1105 100.426 62.0059 100.511 61.7872 100.578C61.5685 100.645 61.3212 100.673 61.0264 100.673C60.8647 100.673 60.7506 100.673 60.703 100.654C60.6555 100.645 60.627 100.616 60.627 100.578C60.627 100.559 60.646 100.53 60.6935 100.492C60.7411 100.454 60.7601 100.416 60.7601 100.397C60.7601 100.378 60.6365 100.283 60.3797 100.131C59.8757 99.8358 59.4477 99.5408 59.1053 99.2363C58.763 98.9318 58.5918 98.5797 58.5918 98.1705C58.5918 97.828 58.7725 97.4284 59.1434 96.9716C59.5143 96.5244 60.0373 96.1343 60.703 95.8107C61.3783 95.4872 62.1486 95.3254 63.014 95.3254L63.0045 95.335Z" fill="#1D1D1B"/>
</g>
<path id="Vector_17" d="M15.9674 98.5323L14.0083 98.3895L12.6484 98.3039L11.9446 98.2563C11.8876 98.2563 11.8305 98.1992 11.802 98.1231C11.7639 98.0375 11.7544 97.9613 11.7639 97.8947C11.7639 97.8376 11.7925 97.8091 11.8305 97.7805C11.8685 97.752 11.9066 97.7425 11.9541 97.7425C12.0017 97.7425 12.0302 97.733 12.0397 97.7234C12.1063 97.3143 12.2489 96.3723 12.4772 94.8783C12.6389 93.7745 12.7245 92.9182 12.7245 92.2997C12.7245 91.6812 12.7245 91.3481 12.7435 91.3005C12.7625 91.1959 12.81 91.1197 12.8956 91.0722C12.9812 91.0246 13.0668 91.0056 13.1524 91.0151C13.2095 91.0151 13.2475 91.0531 13.2665 91.0912C13.2855 91.1388 13.3046 91.2054 13.3046 91.3005C13.3426 91.567 13.3331 92.0427 13.2665 92.7374C13.2095 93.432 13.1239 94.1456 13.0098 94.8974C12.9147 95.5254 12.8291 96.1153 12.734 96.6577C12.6484 97.2001 12.5913 97.5617 12.5628 97.752C12.6579 97.752 12.8481 97.771 13.1334 97.7996C13.4187 97.8186 13.704 97.8471 13.9988 97.8662C14.4458 97.8757 14.9498 97.8662 15.5109 97.8471C15.9674 97.8281 16.2432 97.8281 16.3288 97.8471C16.4144 97.8567 16.4619 97.9042 16.4714 97.9804C16.481 98.0565 16.4714 98.1516 16.4714 98.2563C16.4524 98.3515 16.4049 98.4276 16.3098 98.4752C16.2147 98.5227 16.1101 98.5418 15.9864 98.5323H15.9674Z" fill="#1D1D1B"/>
<path id="Vector_18" d="M22.4344 99.3505C22.4249 99.4456 22.3774 99.5408 22.2823 99.6454C22.1967 99.7501 22.1111 99.8072 22.035 99.7977C21.9019 99.7882 21.8163 99.693 21.7687 99.5313C21.7212 99.3695 21.7021 99.1792 21.7307 98.9603C21.7497 98.7795 21.8258 98.2372 21.9399 97.3332L21.997 96.905C22.016 96.7337 21.9874 96.6005 21.9019 96.5149C21.5024 97.0477 21.122 97.514 20.7892 97.9041C20.4468 98.2943 20.0284 98.6558 19.5338 98.9794C19.0393 99.3029 18.5448 99.4361 18.0407 99.3885C17.803 99.36 17.6223 99.2648 17.5082 99.1031C17.3941 98.9413 17.3465 98.732 17.375 98.4941C17.4036 98.1896 17.5938 97.7899 17.9171 97.2951C18.25 96.8003 18.6494 96.3055 19.1344 95.8107C19.6194 95.3159 20.0854 94.9163 20.5514 94.6118C20.8557 94.412 21.0935 94.2883 21.2742 94.2216C21.4454 94.1646 21.5975 94.136 21.7307 94.155C21.8543 94.1646 21.9684 94.2217 22.0921 94.3073C22.2157 94.3929 22.3108 94.5166 22.3869 94.6594C22.4629 94.8021 22.4915 94.9639 22.4725 95.1351C22.4439 95.373 22.3583 95.5824 22.2062 95.7822L22.4059 95.7441C22.4915 95.7441 22.5295 95.8583 22.52 96.0676C22.52 96.1913 22.501 96.4387 22.4629 96.8098C22.4249 97.1809 22.4059 97.4854 22.3869 97.7328C22.3678 97.9802 22.3488 98.2276 22.3298 98.4655C22.3108 98.7034 22.3013 98.8842 22.2918 99.0269C22.2918 99.084 22.3203 99.1411 22.3678 99.1982C22.4154 99.2648 22.4344 99.3124 22.4344 99.3505ZM21.7972 96.0486C21.9114 95.8298 21.9874 95.5919 22.016 95.3254C22.035 95.1637 21.997 95.021 21.9209 94.8973C21.8448 94.7735 21.7212 94.6974 21.5595 94.6784C21.3693 94.6594 21.1125 94.764 20.7892 94.9829C20.4183 95.2303 20.0188 95.5824 19.5814 96.0201C19.1534 96.4578 18.7825 96.8955 18.4877 97.3427C18.1834 97.7804 18.0217 98.142 17.9932 98.418C17.9647 98.6463 18.0598 98.77 18.269 98.7891C18.6779 98.8366 19.0869 98.7224 19.4958 98.4655C19.9047 98.2086 20.2851 97.8756 20.6275 97.495C20.9699 97.1143 21.3598 96.6291 21.7877 96.0581L21.7972 96.0486Z" fill="#1D1D1B"/>
<path id="Vector_19" d="M35.1209 100.216C35.0448 100.216 34.9782 100.197 34.9021 100.159C34.826 100.121 34.7404 100.074 34.6073 99.988C34.1413 99.674 33.5327 99.3695 32.7814 99.0554C32.4485 98.9222 32.0491 98.7795 31.5926 98.6273C31.1361 98.475 30.7747 98.3608 30.5084 98.2847V99.7596C30.4989 99.9689 30.5084 100.14 30.5465 100.283C30.5845 100.426 30.6035 100.521 30.594 100.559C30.594 100.645 30.5465 100.711 30.4514 100.759C30.3658 100.806 30.2707 100.835 30.1851 100.825C30.071 100.825 30.0044 100.73 29.9854 100.568C29.9854 100.549 29.9854 100.483 29.9664 100.359C29.9473 100.235 29.9569 100.064 29.9664 99.8452C29.9664 99.7025 29.9759 99.3885 29.9759 98.9222C29.9759 98.7605 29.9759 98.6082 29.9759 98.456C29.9759 98.3037 29.9759 98.18 29.9854 98.0658C29.9664 98.0373 29.9378 98.0183 29.9093 97.9802C29.8808 97.9517 29.8522 97.9041 29.8332 97.847C29.8142 97.7804 29.7952 97.7043 29.7857 97.6281C29.7762 97.552 29.7667 97.4949 29.7762 97.4569C29.7762 97.3998 29.7952 97.3617 29.8332 97.3332C29.8618 97.3046 29.9093 97.2761 29.9759 97.238C30.0424 95.3349 30.09 94.2502 30.109 93.9742C30.128 93.7268 30.1375 93.508 30.1661 93.2986C30.1851 93.0893 30.1946 92.9561 30.2041 92.8895C30.1566 92.8895 30.0234 92.9085 29.7857 92.918C29.5574 92.937 29.3672 92.9561 29.2341 92.9751C28.7396 93.0607 28.3687 93.1464 28.1024 93.232C27.8456 93.3177 27.5888 93.4223 27.3511 93.5365C27.2845 93.5746 27.2084 93.6126 27.1419 93.6317C27.0753 93.6507 27.0087 93.6602 26.9517 93.6602C26.8946 93.6602 26.8375 93.6221 26.7995 93.5651C26.7615 93.508 26.7424 93.4318 26.7424 93.3462C26.7424 93.2035 27.0087 93.0512 27.5032 92.8895C27.9978 92.7277 28.5398 92.604 29.1105 92.5184C29.4338 92.4708 29.8427 92.4327 30.3373 92.4137C30.8318 92.3947 31.2978 92.3947 31.7162 92.4137C32.4485 92.4613 33.0572 92.5754 33.5612 92.7658C34.0652 92.9561 34.4361 93.2035 34.6834 93.508C34.9306 93.8124 35.0353 94.155 35.0162 94.5261C34.9877 95.0019 34.826 95.411 34.5312 95.7346C34.2364 96.0581 33.856 96.334 33.39 96.5624C32.924 96.7813 32.2963 97.0382 31.4975 97.3046C31.2978 97.3807 31.0981 97.4569 30.8984 97.5235C30.6986 97.5901 30.5655 97.6376 30.4989 97.6567C30.4989 97.7043 30.4989 97.7328 30.4989 97.7613C31.3073 97.9897 32.1061 98.2562 32.886 98.5321L33.1237 98.6177C33.9321 98.9222 34.5312 99.1506 34.9211 99.3124C35.3111 99.4741 35.5013 99.6073 35.4917 99.693C35.4917 99.7881 35.4442 99.8928 35.3586 100.017C35.273 100.14 35.1874 100.197 35.1113 100.197L35.1209 100.216ZM31.6021 92.9275C31.1266 92.899 30.8318 92.8895 30.7082 92.899C30.6986 92.9561 30.6796 93.0798 30.6606 93.2701C30.6416 93.4699 30.6226 93.6602 30.6035 93.86L30.537 95.687L30.4989 97.1048C30.5655 97.1048 30.7082 97.0762 30.9079 97.0191C31.1076 96.9621 31.2883 96.9145 31.4214 96.8574C32.4105 96.5243 33.1523 96.1818 33.6468 95.8202C34.1413 95.4586 34.4076 95.0209 34.4361 94.5166C34.4551 94.2692 34.36 94.0313 34.1508 93.8029C33.9416 93.5746 33.6183 93.3843 33.1808 93.2225C32.7433 93.0607 32.2108 92.9656 31.5831 92.9275H31.6021Z" fill="#1D1D1B"/>
<path id="Vector_20" d="M50.8887 101.177C50.8126 101.177 50.746 101.158 50.6985 101.12C50.6414 101.082 50.6224 101.035 50.6224 100.978C50.6224 100.664 50.6604 100.178 50.708 99.5313C50.765 98.8366 50.7936 98.2467 50.8031 97.7899C50.8031 97.3427 50.8031 96.9716 50.7746 96.6861C50.746 96.4007 50.689 96.258 50.5939 96.258C50.3371 96.258 50.0518 96.572 49.7284 97.2095C49.4146 97.847 49.0437 98.6939 48.6348 99.7311L48.4541 100.188C48.4256 100.264 48.3685 100.321 48.3019 100.369C48.2258 100.416 48.1498 100.435 48.0832 100.435C47.9881 100.435 47.931 100.426 47.9025 100.407C47.874 100.388 47.8549 100.35 47.8454 100.273L47.7694 99.3314L47.6172 97.6853C47.5696 97.0287 47.5126 96.4578 47.446 95.9725C47.427 95.8583 47.4175 95.7727 47.4175 95.7061C47.4175 95.5919 47.465 95.4967 47.5696 95.4301C47.6647 95.3635 47.7884 95.3254 47.912 95.3254C47.9881 95.3254 48.0451 95.5062 48.0737 95.8773C48.1022 96.2484 48.1307 96.8289 48.1593 97.6472L48.1973 98.2562C48.2449 99.0269 48.2734 99.5122 48.2829 99.7216C48.3019 99.674 48.3305 99.6264 48.3495 99.5693C48.3685 99.5122 48.397 99.4456 48.4256 99.379C48.8535 98.3228 49.2529 97.4379 49.6238 96.7337C49.9947 96.0296 50.3466 95.6775 50.6795 95.6775C50.9172 95.6775 51.0694 95.8869 51.155 96.2865C51.2406 96.6861 51.2881 97.2 51.2976 97.828C51.3071 98.5226 51.3071 99.5313 51.2976 100.863C51.2976 100.959 51.2596 101.035 51.1835 101.092C51.1074 101.158 51.0123 101.187 50.9077 101.187L50.8887 101.177Z" fill="#1D1D1B"/>
<path id="Vector_21" d="M56.1288 96.315C56.0717 96.315 56.0242 96.2959 55.9766 96.2484C55.9291 96.2008 55.872 96.1342 55.815 96.0581C55.7579 95.9819 55.6913 95.9153 55.6057 95.8677C55.5201 95.8107 55.425 95.7916 55.3395 95.7916C55.1207 95.7916 54.8259 96.0866 54.455 96.667C54.0841 97.2475 53.7227 97.9897 53.3709 98.8746C53.3709 99.0459 53.3899 99.2743 53.4184 99.5407C53.4374 99.8071 53.4564 100.007 53.466 100.131L53.504 100.587C53.504 100.692 53.485 100.787 53.4374 100.863C53.3899 100.939 53.3043 100.987 53.1902 100.987C53.057 100.987 52.9714 100.816 52.9334 100.473C52.8953 100.131 52.8668 99.6263 52.8573 98.9603C52.8573 98.789 52.8383 98.5511 52.8383 98.2371C52.8383 97.9231 52.8193 97.552 52.8002 97.1143C52.7717 96.4577 52.7622 95.9915 52.7622 95.706C52.7622 95.5347 52.8668 95.4396 53.076 95.4396C53.2092 95.4396 53.2853 95.4966 53.3138 95.6013C53.3423 95.7155 53.3518 95.9248 53.3613 96.2388V98.0563C53.5991 97.4663 53.8369 96.962 54.1031 96.5338C54.3694 96.1056 54.6262 95.7821 54.883 95.5537C55.1397 95.3254 55.3585 95.2112 55.5582 95.2112C55.7294 95.2112 55.8815 95.2492 56.0337 95.3254C56.1859 95.4015 56.3095 95.4966 56.4046 95.6108C56.4997 95.725 56.5472 95.8392 56.5472 95.9439C56.5472 96.0105 56.4997 96.0866 56.4046 96.1818C56.3095 96.2674 56.2239 96.315 56.1573 96.315H56.1288Z" fill="#1D1D1B"/>
<path id="Vector_22" d="M71.4019 99.9024C71.3259 99.9024 71.2593 99.8929 71.2022 99.8643C71.1452 99.8358 71.1166 99.7882 71.1166 99.7216C71.0976 99.4076 71.0976 98.9223 71.1166 98.2657C71.1261 97.5616 71.1166 96.9812 71.1071 96.5149C71.0881 96.0677 71.0596 95.6966 71.012 95.4206C70.974 95.1352 70.8979 94.9924 70.8028 95.0019C70.546 95.0115 70.2797 95.3445 69.9944 96.0011C69.7186 96.6576 69.4048 97.5235 69.0529 98.5893L68.9008 99.0555C68.8722 99.1316 68.8247 99.1983 68.7581 99.2458C68.6916 99.2934 68.6155 99.3219 68.5394 99.3219C68.4443 99.3219 68.3872 99.322 68.3587 99.3029C68.3302 99.2839 68.3111 99.2458 68.2921 99.1697L68.159 98.2372L67.9117 96.6005C67.8261 95.9535 67.7405 95.3826 67.6359 94.8973C67.6074 94.7831 67.5884 94.6975 67.5884 94.6404C67.5884 94.5262 67.6264 94.431 67.7215 94.3549C67.8166 94.2788 67.9307 94.2407 68.0544 94.2312C68.1305 94.2312 68.197 94.412 68.2446 94.7736C68.2921 95.1352 68.3587 95.7251 68.4348 96.5339L68.5109 97.1334C68.606 97.8946 68.663 98.3799 68.682 98.5893C68.7011 98.5417 68.7201 98.4941 68.7391 98.4275C68.7581 98.3704 68.7771 98.3038 68.8057 98.2372C69.1671 97.1524 69.5094 96.2485 69.8423 95.5158C70.1751 94.7831 70.4985 94.412 70.8313 94.4025C71.0691 94.393 71.2403 94.5833 71.3449 94.9829C71.4495 95.3826 71.5256 95.8869 71.5826 96.5054C71.6397 97.2 71.6968 98.2086 71.7538 99.5408C71.7538 99.636 71.7253 99.7121 71.6492 99.7787C71.5731 99.8453 71.4875 99.8834 71.3829 99.8929L71.4019 99.9024Z" fill="#1D1D1B"/>
<path id="Vector_23" d="M74.2551 98.3989C74.2741 98.9127 74.3026 99.3409 74.3216 99.6644C74.3502 100.102 74.3977 100.492 74.4643 100.844C74.4928 100.978 74.5023 101.073 74.5118 101.13C74.5118 101.253 74.5023 101.358 74.4548 101.444C74.4072 101.529 74.3311 101.587 74.236 101.587C74.1029 101.596 74.0173 101.548 73.9983 101.453C73.9793 101.32 73.9603 101.13 73.9317 100.854C73.9032 100.578 73.8747 100.311 73.8556 100.045L73.751 98.4464C73.751 98.4464 73.6464 98.456 73.5418 98.475C73.4372 98.494 73.3421 98.5035 73.2375 98.5035C73.0568 98.5131 72.9522 98.3989 72.9332 98.1515C72.9237 97.9707 72.9617 97.8755 73.0473 97.866C73.0758 97.866 73.1709 97.8755 73.3231 97.9136C73.4752 97.9516 73.6084 97.9612 73.713 97.9516L73.4752 94.7259C73.4182 94.7259 73.285 94.7259 73.0948 94.7164C72.9046 94.7069 72.762 94.6879 72.6764 94.6403C72.5813 94.5927 72.5337 94.5166 72.5242 94.4214C72.5147 94.2216 72.5432 94.1265 72.6193 94.1169C72.7049 94.1169 72.8095 94.136 72.9332 94.1835C72.9522 94.1835 72.9997 94.2121 73.0758 94.2406C73.1519 94.2692 73.266 94.2882 73.3992 94.2882C73.4372 94.1645 73.4752 94.0789 73.5133 94.0313C73.5513 93.9837 73.6274 93.9552 73.751 93.9457C73.9032 93.9361 73.9793 93.9552 73.9888 94.0218C73.9888 94.0408 73.9888 94.0884 73.9602 94.1455C73.9412 94.2026 73.9317 94.2597 73.9412 94.3168C74.4167 94.3548 74.9588 94.45 75.5675 94.6213C76.1761 94.783 76.7087 95.0114 77.1747 95.3064C77.6312 95.5918 77.8784 95.9249 77.907 96.3055C77.945 96.8479 77.6312 97.2856 76.9464 97.6376C76.2712 97.9802 75.3678 98.2371 74.2551 98.3989ZM73.9507 94.7545C73.9983 95.1922 74.0458 95.7726 74.1124 96.4958C74.179 97.219 74.2075 97.7042 74.2265 97.9326C74.683 97.9041 75.1585 97.8089 75.6721 97.6567C76.1761 97.5044 76.6041 97.3141 76.9369 97.0857C77.2793 96.8574 77.4315 96.629 77.4219 96.3816C77.4029 96.0676 77.1937 95.7916 76.8133 95.5538C76.4329 95.3159 75.9764 95.1446 75.4533 95.0114C74.9303 94.8782 74.4263 94.7925 73.9507 94.7545Z" fill="#1D1D1B"/>
<path id="Vector_24" d="M83.9363 98.0375C83.9363 98.1326 83.9173 98.2373 83.8507 98.361C83.7841 98.4847 83.7176 98.5513 83.6415 98.5608C83.5084 98.5703 83.4037 98.5037 83.3182 98.3515C83.2326 98.1992 83.185 98.0185 83.1565 97.8091C83.1375 97.6283 83.0899 97.0764 83.0233 96.1725L82.9948 95.7348C82.9758 95.5635 82.9187 95.4398 82.8236 95.3732C82.5383 95.9822 82.272 96.515 82.0248 96.9718C81.7775 97.4285 81.4351 97.8662 81.0262 98.2849C80.6173 98.7036 80.1513 98.9414 79.6568 98.989C79.419 99.0176 79.2193 98.9605 79.0671 98.8177C78.915 98.675 78.8294 98.4942 78.8104 98.2468C78.7818 97.9423 78.8769 97.5141 79.0957 96.9622C79.3144 96.4103 79.6092 95.8394 79.9801 95.259C80.351 94.6785 80.7314 94.1837 81.1213 93.7936C81.3781 93.5367 81.5873 93.3654 81.749 93.2607C81.9107 93.1656 82.0533 93.1085 82.1769 93.099C82.3006 93.0895 82.4242 93.1085 82.5669 93.1751C82.7095 93.2417 82.8236 93.3369 82.9282 93.4606C83.0328 93.5843 83.0899 93.7365 83.1089 93.9078C83.1375 94.1457 83.0899 94.374 82.9853 94.6024L83.1755 94.5263C83.2611 94.5263 83.3182 94.6119 83.3562 94.8213C83.3752 94.945 83.4133 95.1829 83.4608 95.554C83.5084 95.9251 83.5464 96.2296 83.5844 96.4674C83.613 96.7148 83.651 96.9622 83.6795 97.1906C83.7081 97.4285 83.7366 97.6093 83.7556 97.7425C83.7651 97.7901 83.8032 97.8472 83.8602 97.8947C83.9173 97.9423 83.9458 97.9899 83.9553 98.028L83.9363 98.0375ZM82.6239 94.945C82.6905 94.7071 82.7095 94.4597 82.681 94.1933C82.662 94.0315 82.6049 93.8983 82.5003 93.7936C82.3957 93.6889 82.2625 93.6414 82.1009 93.6604C81.9107 93.6794 81.6824 93.8317 81.4161 94.1171C81.1023 94.4407 80.779 94.8593 80.4556 95.3827C80.1323 95.906 79.8565 96.4103 79.6568 96.9051C79.457 97.3999 79.3715 97.7806 79.4 98.0565C79.419 98.2849 79.5426 98.3896 79.7519 98.361C80.1608 98.3229 80.5412 98.1326 80.8836 97.7901C81.2354 97.4475 81.5303 97.0574 81.787 96.6007C82.0438 96.1439 82.3196 95.6015 82.6239 94.945Z" fill="#1D1D1B"/>
<path id="Vector_25" d="M89.5284 100.445C89.2431 100.797 88.9483 101.092 88.6154 101.339C88.2826 101.587 87.9973 101.72 87.7405 101.748C87.5978 101.768 87.4932 101.748 87.4171 101.682C87.3506 101.615 87.303 101.539 87.2935 101.444C87.284 101.358 87.4362 101.225 87.7595 101.054C88.2445 100.816 88.682 100.473 89.0719 100.017C89.3667 99.6646 89.5664 99.2935 89.6805 98.8844C89.7852 98.4752 89.8137 98.0755 89.7566 97.6759C89.6901 97.2192 89.614 96.81 89.4999 96.4389C89.3952 96.0678 89.2431 95.6206 89.0434 95.0877C88.8246 94.5263 88.663 94.041 88.5584 93.6414C88.4823 94.0029 88.3396 94.4502 88.1399 94.983C87.9402 95.5064 87.6834 96.0297 87.3791 96.5245C87.0938 97.0003 86.818 97.3619 86.5707 97.6188C86.314 97.8662 86.0572 98.0089 85.7909 98.047C85.5627 98.0755 85.382 98.0089 85.2488 97.8472C85.1157 97.6854 85.0301 97.4475 84.9825 97.143C84.916 96.6292 84.9825 96.0012 85.2108 95.2685C85.4295 94.5358 85.7433 93.8792 86.1523 93.3178C86.5612 92.7564 86.9892 92.4424 87.4552 92.3758C87.6168 92.3568 87.7405 92.3948 87.8451 92.4995C87.9497 92.6042 88.0068 92.7279 88.0353 92.8896C88.0638 93.0895 88.0353 93.2036 87.9497 93.2132C87.9307 93.2132 87.8926 93.1941 87.8546 93.137C87.8166 93.0895 87.769 93.0419 87.712 93.0038C87.6644 92.9658 87.6073 92.9467 87.5598 92.9562C87.1794 93.0133 86.818 93.2798 86.4756 93.7651C86.1428 94.2503 85.886 94.8022 85.6958 95.4112C85.5151 96.0202 85.4485 96.515 85.4961 96.8861C85.5246 97.0859 85.5722 97.2287 85.6387 97.3143C85.7053 97.3999 85.8004 97.4285 85.924 97.4095C86.1047 97.3809 86.3044 97.2477 86.5327 97.0003C86.7609 96.7529 87.0177 96.3818 87.3125 95.8775C87.5693 95.4303 87.7975 94.9259 87.9877 94.3645C88.1779 93.7936 88.3016 93.2607 88.3681 92.7659C88.3681 92.7184 88.3967 92.6803 88.4252 92.6422C88.4537 92.6042 88.4918 92.5851 88.5393 92.5851C88.6059 92.5851 88.682 92.5851 88.7581 92.6232C88.8341 92.6613 88.8722 92.6898 88.8817 92.7374C88.8817 92.7659 88.8817 92.804 88.8817 92.8325C88.8817 92.8706 88.8722 92.8896 88.8627 92.8992C88.9768 93.3083 89.186 93.9363 89.4999 94.7832C89.7281 95.3827 89.9088 95.887 90.0324 96.2962C90.1656 96.7053 90.2512 97.105 90.3082 97.5046C90.3843 98.0946 90.3463 98.6465 90.1751 99.1603C90.0039 99.6741 89.7852 100.102 89.5094 100.454L89.5284 100.445Z" fill="#1D1D1B"/>
<path id="Vector_26" d="M95.1964 97.1809C95.1203 97.1905 95.0537 97.1809 94.9967 97.1619C94.9396 97.1334 94.9016 97.0953 94.892 97.0382C94.835 96.7337 94.7779 96.2484 94.7018 95.6014C94.6258 94.9068 94.5402 94.3263 94.4641 93.8696C94.388 93.4319 94.3024 93.0703 94.2263 92.7943C94.1503 92.5184 94.0647 92.3852 93.9696 92.4042C93.7128 92.4518 93.4941 92.8134 93.3039 93.508C93.1137 94.1931 92.9139 95.0876 92.7142 96.1913L92.6286 96.6671C92.6096 96.7432 92.5716 96.8194 92.505 96.8765C92.4384 96.9335 92.3719 96.9716 92.2958 96.9811C92.2102 97.0002 92.1436 97.0002 92.1151 96.9906C92.0771 96.9906 92.058 96.9431 92.039 96.8669L91.7822 95.963L91.3258 94.3739C91.1546 93.7364 90.9929 93.1845 90.8312 92.7182C90.7932 92.6135 90.7647 92.5279 90.7551 92.4613C90.7361 92.3471 90.7647 92.252 90.8502 92.1568C90.9358 92.0712 91.0404 92.0141 91.1641 91.9855C91.2402 91.976 91.3257 92.1378 91.4208 92.4994C91.516 92.8514 91.6586 93.4319 91.8393 94.2216L91.9915 94.8116C92.1912 95.5538 92.3053 96.0296 92.3528 96.2294C92.3719 96.1818 92.3814 96.1247 92.3909 96.0676C92.3909 96.0105 92.4099 95.9439 92.4289 95.8678C92.6477 94.745 92.8664 93.803 93.0946 93.0417C93.3229 92.2805 93.6082 91.8618 93.9315 91.8047C94.1598 91.7667 94.3595 91.9284 94.5116 92.3091C94.6733 92.6897 94.816 93.1845 94.9491 93.7935C95.0918 94.4691 95.282 95.4682 95.5197 96.7813C95.5387 96.8669 95.5197 96.9526 95.4436 97.0287C95.3676 97.1048 95.2915 97.1524 95.1869 97.1714L95.1964 97.1809Z" fill="#1D1D1B"/>
<path id="Vector_27" d="M95.8717 89.502C95.748 89.5305 95.6054 89.502 95.4532 89.4259C95.3011 89.3497 95.2155 89.2736 95.206 89.207C95.1869 89.1214 95.206 89.0357 95.2725 88.9501C95.3391 88.8549 95.4057 88.8074 95.4913 88.7883C95.6149 88.7978 95.7195 88.8454 95.8051 88.9025C95.8812 88.9501 95.9573 89.0167 96.0524 89.0928C96.1475 89.1689 96.195 89.226 96.2045 89.2451C96.2331 89.3593 96.1189 89.4354 95.8717 89.4925V89.502ZM97.7261 96.5053C97.6215 96.5244 97.5074 96.3721 97.3933 96.0486C97.2792 95.7346 97.089 95.1161 96.8417 94.2121C96.68 93.6127 96.5279 93.0322 96.3852 92.4613C96.2426 91.8904 96.1284 91.4431 96.0524 91.1386C96.0333 91.053 96.0333 90.9959 96.0524 90.9483C96.0714 90.9008 96.1189 90.8722 96.1855 90.8532C96.3567 90.8151 96.4803 90.8627 96.5564 90.9959C96.6325 91.1291 96.7086 91.3956 96.7942 91.7952L97.0699 93.1178C97.2316 93.8696 97.3838 94.469 97.5264 94.9163C97.5264 94.9353 97.612 95.1732 97.7832 95.6109C97.8973 95.9154 97.9734 96.1152 97.9924 96.2199C98.0115 96.296 97.9924 96.3626 97.9354 96.4102C97.8783 96.4673 97.8117 96.4958 97.7261 96.5053Z" fill="#1D1D1B"/>
<path id="Vector_28" d="M103.204 92.0616C103.242 92.1949 103.213 92.5089 103.137 93.0132C103.061 93.5175 102.871 94.0028 102.576 94.4881C102.281 94.9734 101.844 95.2874 101.273 95.4396C100.798 95.5633 100.37 95.5157 99.98 95.3064C99.5901 95.0971 99.3143 94.6784 99.1526 94.0694C99.0005 93.4985 98.9909 92.8895 99.1051 92.2615C99.2192 91.6335 99.4474 91.0816 99.7803 90.6058C100.113 90.1395 100.513 89.8446 100.969 89.7209C101.245 89.6542 101.483 89.6542 101.711 89.7209C101.939 89.7875 102.072 89.9397 102.129 90.1681C102.196 90.425 102.12 90.7105 101.892 91.034C101.663 91.3575 101.34 91.662 100.931 91.9665C100.513 92.271 100.075 92.5279 99.5996 92.7372C99.5996 93.0988 99.6376 93.4414 99.7232 93.7649C99.8373 94.1931 100.018 94.4976 100.284 94.6784C100.551 94.8592 100.864 94.9068 101.245 94.8021C101.815 94.6498 102.215 94.3263 102.462 93.8315C102.709 93.3367 102.89 92.8038 102.985 92.2329C102.985 92.1949 103.004 92.1378 103.014 92.0426C103.023 91.9475 103.052 91.8999 103.08 91.8904C103.128 91.8809 103.175 91.9284 103.204 92.0331V92.0616ZM100.96 90.2252C100.684 90.3013 100.436 90.4631 100.227 90.7105C100.018 90.9579 99.8564 91.2433 99.7517 91.5383C99.6471 91.8428 99.5901 92.0997 99.5901 92.309C99.9229 92.1853 100.256 91.995 100.589 91.7381C100.921 91.4812 101.197 91.2338 101.397 90.9864C101.606 90.739 101.692 90.5487 101.663 90.4345C101.635 90.3203 101.549 90.2442 101.407 90.2061C101.264 90.1681 101.121 90.1776 100.96 90.2157V90.2252Z" fill="#1D1D1B"/>
</g>
</g>
</g>
<defs>
<clipPath id="clip0_2078_969">
<rect width="139" height="108" fill="white"/>
</clipPath>
</defs>
</svg>
