<svg width="87" height="88" viewBox="0 0 87 88" fill="none" xmlns="http://www.w3.org/2000/svg">
<g id="Calque_1" clip-path="url(#clip0_2022_2286)">
<path id="Vector" d="M58.4455 14.3888C56.5777 12.1916 56.6553 12.2722 55.0822 13.9242C48.6228 20.6953 42.1266 27.4152 35.6082 34.1315C34.0423 35.7393 32.6738 36.0472 30.2075 34.8855C21.5288 30.7987 14.6232 31.9472 9.97455 40.9606C7.85951 45.0573 9.91581 49.0792 12.486 52.5593C12.954 53.1925 14.1968 53.4351 14.387 54.0776C16.2447 60.1877 20.3659 63.6025 25.9181 66.7422C28.1504 68.0063 28.7594 73.3517 32.3762 75.6879C38.5849 79.6954 46.6022 78.7318 51.6701 73.2752C61.6726 62.5124 71.9033 51.9634 81.9325 41.2321C82.513 40.6151 82.0689 39.0252 82.0994 37.8884C81.6306 37.9573 81.1699 38.032 80.7012 38.1008C78.0668 41.0711 75.4405 44.0472 72.8061 47.0175C71.7782 47.879 70.7444 48.7487 69.7084 49.6044C68.9189 50.6995 68.1295 51.7946 67.3341 52.8978C66.1074 54.0352 64.8865 55.1644 63.6516 56.296C61.6237 58.5446 59.5958 60.7933 57.5738 63.0339C55.9548 64.8008 54.3197 66.556 52.7111 68.3427C48.3282 73.2083 43.6498 77.0473 36.3321 74.903C31.9168 73.6062 29.2161 70.7346 29.3532 66.2353C29.4959 61.5057 32.7508 59.932 36.757 59.0602C37.5599 58.887 38.2285 58.0622 38.9527 57.5365L37.9149 55.8638C34.9779 57.3215 31.5283 58.2248 29.2103 60.3629C25.229 64.0387 22.3519 64.011 19.641 59.2214C16.6879 53.9982 18.6952 49.2815 24.6017 47.4496C26.0335 47.0025 27.431 46.432 28.8456 45.9232C22.6346 43.492 19.1919 47.6178 15.5788 51.0906C10.4262 46.6611 10.9734 40.3616 16.2773 37.0229C21.4449 33.7708 26.0856 35.8835 30.9327 37.5903C32.2558 38.0634 33.7839 37.9446 35.213 38.0996C37.9046 35.6144 40.5962 33.1291 43.2796 30.638C45.3075 28.3893 47.3354 26.1406 49.3773 23.8897C50.604 22.7523 51.8249 21.6231 53.0598 20.4915C54.2411 18.853 55.4165 17.2225 56.5978 15.5839C57.2284 15.1879 57.8568 14.778 58.4874 14.382L58.4455 14.3888Z" fill="#13110C"/>
<path id="Vector_2" d="M56.556 15.5907C55.3747 17.2293 54.1993 18.8597 53.018 20.4983C53.6225 21.045 54.397 21.4925 54.8057 22.1569C57.233 26.1258 59.2733 30.358 62.0144 34.0969C65.3123 38.6195 69.1747 42.7353 72.8004 47.0256C75.4348 44.0553 78.061 41.0792 80.6954 38.1089C80.8488 37.862 80.9918 37.5953 81.1208 37.3308C80.6426 36.8997 80.1783 36.4664 79.7001 36.0354C78.1691 35.2521 76.3496 34.7664 75.142 33.637C68.8591 27.7145 62.735 21.6231 56.556 15.5907Z" fill="#CE7E43"/>
<path id="Vector_3" d="M56.5559 15.5907C62.7349 21.6231 68.859 27.7146 75.1419 33.637C76.3436 34.7745 78.1608 35.2463 79.7 36.0354C74.4808 30.6209 69.2815 25.1961 64.0367 19.8002C62.2313 17.9439 60.3198 16.1837 58.4514 14.3807C57.8207 14.7766 57.1982 15.1785 56.5617 15.5826L56.5559 15.5907Z" fill="#E5A166"/>
<path id="Vector_4" d="M81.1126 37.3249C80.9836 37.5894 80.8383 37.8422 80.6872 38.1031C81.156 38.0342 81.6248 37.9654 82.0854 37.8907C81.7619 37.7067 81.4303 37.517 81.1067 37.333L81.1126 37.3249Z" fill="#E5A166"/>
<path id="Vector_5" d="M35.1851 38.1041C33.7559 37.9491 32.2198 38.0621 30.9047 37.5949C26.0576 35.8881 21.4227 33.7672 16.2494 37.0274C10.9455 40.3662 10.3983 46.6656 15.5508 51.0951C19.1639 47.6223 22.6066 43.4966 28.8176 45.9278C27.403 46.4366 26.0136 47.0129 24.5737 47.4541C18.6672 49.286 16.6599 54.0027 19.6131 59.2259C22.3181 64.0237 25.201 64.0433 29.1823 60.3674C31.5004 58.2293 34.9499 57.326 37.8869 55.8683L38.9247 57.541C38.2005 58.0668 37.5319 58.8915 36.7291 59.0647C32.7287 59.9284 29.468 61.5103 29.3252 66.2398C29.1962 70.745 31.8969 73.6166 36.3041 74.9076C43.6219 77.0518 48.3002 73.2128 52.6832 68.3472C54.2859 66.5686 55.9269 64.8053 57.5458 63.0384C55.3201 60.534 53.0967 58.0435 50.871 55.5391C45.6304 49.727 40.3956 43.9068 35.1549 38.0947L35.1851 38.1041Z" fill="white"/>
<path id="Vector_6" d="M35.1851 38.1041C40.4257 43.9162 45.6605 49.7364 50.9012 55.5485C47.7341 49.8013 41.7466 45.4356 41.8029 37.081C43.3685 38.2097 44.3297 38.7916 45.1495 39.5183C49.5558 43.4098 53.9387 47.3337 58.304 51.282C60.1173 52.9221 61.8698 54.6293 63.6539 56.3099C64.8806 55.1725 66.1015 54.0433 67.3364 52.9118C59.3128 45.4879 51.2892 38.0641 43.2597 30.6484C40.5682 33.1336 37.8766 35.6189 35.1932 38.11L35.1851 38.1041Z" fill="#E5A166"/>
<path id="Vector_7" d="M43.2518 30.6425C51.2754 38.0664 59.299 45.4902 67.3284 52.9059C68.1179 51.8108 68.9074 50.7157 69.7027 49.6125C68.6059 48.415 67.3889 47.3158 66.4402 46.0155C62.5448 40.6801 58.8172 35.2315 54.8588 29.9493C53.2315 27.7776 51.2018 25.9076 49.3576 23.9C47.3297 26.1487 45.3018 28.3974 43.2599 30.6484L43.2518 30.6425Z" fill="#CE7E43"/>
<path id="Vector_8" d="M63.6458 56.3041C61.8618 54.6235 60.1092 52.9162 58.2959 51.2762C53.9248 47.336 49.55 43.4179 45.1415 39.5124C44.3216 38.7858 43.3605 38.2038 41.7949 37.0752C41.7467 45.4356 47.7261 49.7955 50.8932 55.5427C53.1188 58.0471 55.3422 60.5376 57.5679 63.042C59.5958 60.7933 61.6237 58.5446 63.6458 56.3041Z" fill="#CE7E43"/>
<path id="Vector_9" d="M49.3494 23.8942C51.1936 25.9017 53.2233 27.7718 54.8506 29.9434C58.8032 35.2337 62.5447 40.6801 66.432 46.0096C67.3807 47.31 68.6058 48.415 69.6945 49.6067C70.7224 48.7451 71.7562 47.8755 72.7922 47.0197C69.1747 42.7353 65.3181 38.6114 62.0062 34.0911C59.2732 30.358 57.2248 26.1199 54.7975 22.151C54.3889 21.4866 53.6143 21.0392 53.0098 20.4925C51.7831 21.6299 50.5622 22.7591 49.3273 23.8906L49.3494 23.8942Z" fill="#E5A166"/>
</g>
<defs>
<clipPath id="clip0_2022_2286">
<rect width="58.8" height="65.36" fill="white" transform="matrix(-0.811185 -0.58479 -0.58479 0.811185 86.8682 34.3857)"/>
</clipPath>
</defs>
</svg>
