<svg width="51" height="88" viewBox="0 0 51 88" fill="none" xmlns="http://www.w3.org/2000/svg">
<g id="patte roux tigr&#195;&#169;" clip-path="url(#clip0_2022_2433)">
<path id="Vector" d="M-6.57761 14.3889C-4.7098 12.1918 -4.78733 12.2723 -3.21424 13.9243C3.24508 20.6955 9.74137 27.4153 16.2597 34.1316C17.8257 35.7394 19.1941 36.0473 21.6605 34.8857C30.3392 30.7988 37.2447 31.9474 41.8934 40.9607C44.0084 45.0574 41.9521 49.0793 39.3819 52.5594C38.9139 53.1927 37.6711 53.4352 37.4809 54.0778C35.6233 60.1878 31.5021 63.6026 25.9498 66.7423C23.7175 68.0064 23.1085 73.3519 19.4918 75.688C13.283 79.6955 5.26575 78.732 0.197865 73.2753C-9.80472 62.5126 -20.0354 51.9635 -30.0646 41.2323C-30.645 40.6152 -30.2009 39.0253 -30.2315 37.8885C-29.7627 37.9574 -29.302 38.0321 -28.8332 38.101C-26.1988 41.0712 -23.5726 44.0473 -20.9382 47.0176C-19.9103 47.8792 -18.8765 48.7488 -17.8405 49.6045C-17.051 50.6996 -16.2615 51.7947 -15.4662 52.898C-14.2395 54.0353 -13.0186 55.1646 -11.7837 56.2961C-9.75581 58.5448 -7.7279 60.7935 -5.70584 63.034C-4.08691 64.8009 -2.45175 66.5561 -0.843198 68.3428C3.53972 73.2084 8.21808 77.0474 15.5359 74.9032C19.9511 73.6063 22.6518 70.7348 22.5148 66.2354C22.372 61.5058 19.1171 59.9321 15.1109 59.0603C14.308 58.8871 13.6395 58.0624 12.9153 57.5366L13.953 55.8639C16.89 57.3216 20.3396 58.2249 22.6576 60.363C26.639 64.0389 29.516 64.0112 32.2269 59.2215C35.18 53.9983 33.1727 49.2816 27.2663 47.4497C25.8344 47.0026 24.437 46.4321 23.0223 45.9233C29.2333 43.4922 32.676 47.6179 36.2891 51.0907C41.4417 46.6612 40.8945 40.3618 35.5906 37.023C30.4231 33.7709 25.7824 35.8837 20.9353 37.5905C19.6121 38.0636 18.0841 37.9447 16.6549 38.0997C13.9633 35.6145 11.2718 33.1292 8.58832 30.6381C6.56041 28.3894 4.5325 26.1407 2.49064 23.8898C1.26389 22.7524 0.0429922 21.6232 -1.19187 20.4917C-2.37314 18.8531 -3.54857 17.2226 -4.72984 15.584C-5.36048 15.188 -5.98885 14.7781 -6.61949 14.3821L-6.57761 14.3889Z" fill="#13110C"/>
<path id="Vector_2" d="M-4.6876 15.5906C-3.50632 17.2292 -2.3309 18.8596 -1.14962 20.4982C-1.75405 21.0449 -2.52864 21.4924 -2.93725 22.1568C-5.36461 26.1257 -7.40488 30.3579 -10.146 34.0968C-13.4439 38.6194 -17.3063 42.7352 -20.932 47.0255C-23.5664 44.0552 -26.1926 41.0791 -28.827 38.1088C-28.9804 37.8619 -29.1234 37.5952 -29.2524 37.3307C-28.7742 36.8996 -28.3099 36.4663 -27.8317 36.0353C-26.3006 35.252 -24.4811 34.7663 -23.2736 33.6369C-16.9907 27.7145 -10.8666 21.623 -4.6876 15.5906Z" fill="#CE7E43"/>
<path id="Vector_3" d="M16.6831 38.1042C18.1123 37.9492 19.6484 38.0622 20.9635 37.5949C25.8106 35.8881 30.4454 33.7673 35.6188 37.0275C40.9227 40.3662 41.4699 46.6657 36.3173 51.0952C32.7042 47.6224 29.2615 43.4966 23.0505 45.9278C24.4652 46.4366 25.8545 47.0129 27.2945 47.4542C33.2009 49.286 35.2082 54.0028 32.2551 59.226C29.55 64.0237 26.6672 64.0433 22.6858 60.3675C20.3678 58.2294 16.9182 57.3261 13.9812 55.8684L12.9435 57.5411C13.6677 58.0668 14.3362 58.8916 15.1391 59.0648C19.1395 59.9285 22.4002 61.5103 22.5429 66.2399C22.6719 70.7451 19.9712 73.6166 15.5641 74.9076C8.24628 77.0519 3.56792 73.2129 -0.815 68.3472C-2.41771 66.5687 -4.05871 64.8054 -5.67764 63.0385C-3.45196 60.5341 -1.22855 58.0436 0.997129 55.5392C6.23779 49.7271 11.4726 43.9069 16.7133 38.0948L16.6831 38.1042Z" fill="white"/>
<path id="Vector_4" d="M16.6829 38.1042C11.4422 43.9163 6.20738 49.7365 0.966714 55.5486C4.13378 49.8014 10.1213 45.4357 10.065 37.0811C8.4994 38.2097 7.53824 38.7917 6.71838 39.5184C2.31212 43.4099 -2.07074 47.3338 -6.43606 51.2821C-8.24934 52.9222 -10.0019 54.6294 -11.7859 56.31C-13.0127 55.1726 -14.2336 54.0434 -15.4684 52.9119C-7.44485 45.488 0.578741 38.0642 8.60818 30.6484C11.2997 33.1337 13.9913 35.619 16.6747 38.1101L16.6829 38.1042Z" fill="#E5A166"/>
<path id="Vector_5" d="M8.61635 30.6424C0.592763 38.0663 -7.43082 45.4901 -15.4603 52.9059C-16.2497 51.8108 -17.0392 50.7157 -17.8345 49.6125C-16.7377 48.4149 -15.5207 47.3157 -14.572 46.0154C-10.6766 40.68 -6.94906 35.2314 -2.99063 29.9492C-1.36334 27.7775 0.666327 25.9075 2.51056 23.9C4.53846 26.1487 6.56637 28.3973 8.60824 30.6483L8.61635 30.6424Z" fill="#CE7E43"/>
<path id="Vector_6" d="M-11.7779 56.3039C-9.99384 54.6233 -8.24129 52.9161 -6.42801 51.2761C-2.05684 47.3359 2.31791 43.4178 6.72643 39.5123C7.54629 38.7857 8.50745 38.2037 10.073 37.0751C10.1212 45.4355 4.14183 49.7953 0.974764 55.5426C-1.25091 58.047 -3.47433 60.5375 -5.70001 63.0419C-7.72791 60.7932 -9.75582 58.5445 -11.7779 56.3039Z" fill="#CE7E43"/>
<path id="Vector_7" d="M2.51875 23.8942C0.674525 25.9018 -1.35514 27.7718 -2.98243 29.9435C-6.93502 35.2338 -10.6765 40.6801 -14.5638 46.0097C-15.5125 47.31 -16.7376 48.4151 -17.8263 49.6067C-18.8542 48.7452 -19.888 47.8755 -20.924 47.0198C-17.3065 42.7353 -13.4499 38.6114 -10.138 34.0911C-7.40505 30.358 -5.35667 26.12 -2.92931 22.1511C-2.52069 21.4867 -1.74611 21.0392 -1.14168 20.4925C0.0850684 21.6299 1.30597 22.7591 2.54083 23.8907L2.51875 23.8942Z" fill="#E5A166"/>
</g>
<defs>
<clipPath id="clip0_2022_2433">
<rect width="58.8" height="65.36" fill="white" transform="translate(-35 34.3857) rotate(-35.7881)"/>
</clipPath>
</defs>
</svg>
