<svg width="57" height="83" viewBox="0 0 57 83" fill="none" xmlns="http://www.w3.org/2000/svg">
<g id="patte gris et blanc tachet&#195;&#169;" clip-path="url(#clip0_2022_2443)">
<path id="Vector" d="M53.2193 18.9051C54.4922 17.7335 55.7652 16.562 57.0381 15.3904C64.6296 23.6386 72.2211 31.8868 79.8126 40.1351C76.6515 42.6367 73.4973 45.1457 70.3362 47.6473C69.2716 45.5013 68.7365 42.7049 67.0382 41.3322C59.739 35.4245 58.8459 25.7272 53.2193 18.9051Z" fill="white"/>
<path id="Vector_2" d="M54.803 61.7944C49.6359 65.9114 46.1606 72.2358 39.0251 73.8154C31.8183 75.4062 25.9631 70.6836 26.3323 63.6572C26.5417 59.6319 28.6452 57.8861 32.5044 57.6639C33.6462 57.6051 34.7582 57.0709 35.8897 56.7498C35.7274 56.0566 35.5583 55.356 35.3959 54.6628C32.8427 55.477 29.6671 55.6001 27.8791 57.2457C24.9292 59.9472 21.7791 61.5009 18.9014 58.8763C16.9782 57.1264 15.7163 53.4223 15.9819 50.7723C16.3588 46.9733 19.5808 44.8776 23.609 44.6766C24.531 44.6299 25.4556 44.6895 26.3752 44.6993C26.5341 44.2812 26.6862 43.8558 26.8524 43.431C25.7561 42.9043 24.3776 41.6724 23.6214 41.9878C20.655 43.2095 17.9336 45.0075 15.0251 46.366C14.2316 46.7294 12.7112 46.7018 12.1382 46.1826C8.95956 43.3049 10.0595 39.819 11.698 36.8296C13.7422 33.0998 19.2422 31.3674 23.8936 32.8625C26.5472 33.7227 28.9482 35.3863 32.1354 37.0329C34.9003 34.8687 38.2135 32.2814 41.5267 29.6941C43.6752 31.9841 45.7863 34.3222 47.9937 36.5581C53.4198 42.0697 58.8969 47.548 64.3524 53.0325C63.1825 54.1093 62.0126 55.186 60.8427 56.2628C59.4712 54.5216 58.3068 52.5625 56.6981 51.0803C53.8559 48.4501 50.5253 46.3375 47.815 43.5995C45.3965 41.1638 43.5458 38.1783 41.4516 35.4305C41.0416 35.5904 40.6384 35.7577 40.2283 35.9177C40.4365 37.3842 40.2157 39.1231 40.9393 40.2783C45.4511 47.5284 50.1808 54.6459 54.8381 61.8029L54.803 61.7944Z" fill="white"/>
<path id="Vector_3" d="M64.3243 53.0314C58.8687 47.5469 53.3917 42.0686 47.9656 36.557C45.7582 34.3211 43.6612 31.9836 41.4986 29.693C44.2357 27.1737 46.9655 24.6613 49.7026 22.1421C51.0914 24.4927 53.0179 26.6744 53.7688 29.218C56.273 37.6091 62.3032 43.5704 67.3999 50.2007C66.3698 51.1488 65.347 52.0901 64.3169 53.0382L64.3243 53.0314Z" fill="white"/>
<path id="Vector_4" d="M54.8028 61.7946C50.1455 54.6376 45.4232 47.5132 40.904 40.27C40.1873 39.1221 40.408 37.3832 40.1931 35.9093C40.6031 35.7493 41.0064 35.5821 41.4164 35.4221C43.5179 38.1632 45.3754 41.156 47.7798 43.5911C50.49 46.3291 53.8133 48.4485 56.6628 51.072C58.2716 52.5541 59.4433 54.5064 60.8075 56.2544C58.7987 58.1032 56.7974 59.9452 54.7887 61.794L54.8028 61.7946Z" fill="white"/>
<path id="Vector_5" d="M67.4146 50.1871C62.3179 43.5568 56.2877 37.5955 53.7835 29.2044C53.0252 26.6676 51.1061 24.479 49.7173 22.1285C50.8872 21.0517 52.0571 19.975 53.2271 18.8982C58.861 25.7135 59.7467 35.4176 67.046 41.3254C68.7442 42.698 69.272 45.5012 70.3439 47.6404C69.3677 48.4846 68.3982 49.3361 67.4146 50.1871Z" fill="white"/>
<path id="Vector_6" d="M74.5012 45.0102C69.284 49.3091 64.0601 53.6007 58.8429 57.8996C57.8003 55.3935 55.3217 52.3608 56.0083 50.4785C57.5638 46.2471 60.8241 42.3766 65.9812 42.4277C68.8322 42.4539 71.6588 44.0927 74.5017 44.9961L74.5012 45.0102Z" fill="#858180"/>
<path id="Vector_7" d="M39.158 29.9851C44.8511 25.3025 50.5374 20.6125 56.2305 15.93C57.6759 17.4266 59.1139 18.9299 60.5187 20.3824C54.1313 31.3985 45.5365 35.9112 39.158 29.9851Z" fill="#858180"/>
<path id="Vector_8" d="M79.8059 40.1277C80.1549 40.7579 80.909 41.8578 80.7913 41.9662C73.7541 48.1712 66.5482 54.1782 59.5923 60.4715C55.7244 63.9771 52.5534 68.2547 48.5851 71.6217C40.4939 78.4978 32.2669 78.9211 25.7888 71.1295C24.0904 69.0775 23.6382 65.9872 22.4669 63.0016C17.899 62.7344 15.1124 59.2785 13.384 54.5359C12.7867 52.8975 12.3021 51.1011 11.268 49.756C7.02319 44.258 6.3581 39.4746 9.471 34.7204C12.1754 30.6004 19.7978 28.5456 25.3498 30.6796C27.5304 31.5131 29.4965 32.9109 32.4644 34.5556L57.29 11.7066C57.7484 12.0865 58.2001 12.4591 58.6658 12.8323C58.1208 13.6872 57.5832 14.5354 57.0382 15.3904C55.7653 16.562 54.4924 17.7335 53.2194 18.9051C52.0495 19.9819 50.8796 21.0586 49.7097 22.1354C46.9726 24.6546 44.2428 27.167 41.5056 29.6863C38.1924 32.2736 34.8865 34.8541 32.1143 37.0251C28.9271 35.3785 26.5261 33.7149 23.8725 32.8547C19.2285 31.3529 13.7285 33.0852 11.6769 36.8218C10.0311 39.818 8.93847 43.2971 12.1171 46.1748C12.6968 46.7013 14.2173 46.729 15.0041 46.3582C17.9192 45.007 20.6412 43.1949 23.6003 41.98C24.3491 41.6713 25.7418 42.9039 26.8313 43.4232C26.6725 43.8413 26.5204 44.2667 26.3541 44.6915C25.4345 44.6817 24.5099 44.6221 23.5879 44.6688C19.5671 44.863 16.3377 46.9655 15.9608 50.7645C15.6952 53.4144 16.9503 57.1112 18.8803 58.8685C21.758 61.4931 24.9081 59.9394 27.858 57.2379C29.646 55.5923 32.8216 55.4692 35.3749 54.655C35.5372 55.3482 35.7063 56.0488 35.8687 56.742C34.7445 57.0563 33.6184 57.59 32.4833 57.6561C28.6247 57.8642 26.5206 59.6241 26.3112 63.6494C25.9421 70.6758 31.7972 75.3984 39.004 73.8076C46.1322 72.2348 49.6074 65.9104 54.782 61.7866C56.7907 59.9378 58.792 58.0958 60.8007 56.247C61.9706 55.1703 63.1405 54.0935 64.3105 53.0168C65.3406 52.0687 66.3633 51.1274 67.3934 50.1793L70.3228 47.6326C73.4838 45.131 76.6381 42.622 79.7991 40.1204L79.8059 40.1277Z" fill="#13110C"/>
</g>
<defs>
<clipPath id="clip0_2022_2443">
<rect width="53.9" height="63.68" fill="white" transform="translate(46.8555) rotate(47.3742)"/>
</clipPath>
</defs>
</svg>
