<svg width="593" height="64" viewBox="0 0 593 64" fill="none" xmlns="http://www.w3.org/2000/svg">
<g clip-path="url(#clip0_2022_3478)">
<path d="M1.72013 10.7146C1.13572 10.8429 0.0336761 10.9862 0.0336761 11.1069C0.200653 18.1835 0.584698 25.2525 0.651489 32.3291C0.684883 36.2672 -0.149994 40.2129 0.0253296 44.1359C0.37598 52.1405 4.76744 56.9236 13.2164 56.5388C15.4372 56.4332 17.5912 55.1054 20.0875 54.2302C22.8342 56.6293 26.5328 56.4105 30.4233 54.9469C31.7674 54.4415 33.145 53.7927 34.5559 53.6795C40.3333 53.2268 43.6478 51.1522 44.8083 46.9952C45.8101 43.3891 42.7628 38.108 38.3129 36.1163C36.568 35.3317 34.5977 34.9545 31.9094 34.1473V8.69276C31.4168 8.6324 30.9326 8.57205 30.44 8.50415C30.2229 9.24349 30.0058 9.97529 29.7888 10.7146C29.7888 12.0198 29.7888 13.325 29.7888 14.6301C29.7888 15.8297 29.7888 17.0292 29.7888 18.2288C29.7888 21.0353 29.7888 23.8342 29.7888 26.6407C30.0726 29.8018 30.3565 32.9553 30.5903 35.6033C33.4038 36.5313 35.7832 37.0141 37.812 38.0477C41.3602 39.8583 43.4057 43.7965 42.2702 46.8444C41.3602 49.2887 39.8407 51.6727 36.2758 51.3785C35.6246 51.3257 34.748 50.4958 34.5309 49.8696C33.7127 47.5611 33.2869 45.1243 32.3602 42.861C32.1264 42.2876 30.5819 42.1442 29.6469 41.8048C29.4799 42.1065 29.3045 42.4083 29.1376 42.7176C29.6635 43.2231 30.2229 43.7059 30.7155 44.2416C32.8695 46.5728 33.4038 49.4396 31.2832 51.5897C29.8055 53.091 26.825 54.2831 24.6543 54.1095C21.4149 53.853 20.5884 51.3106 20.5801 48.2929C20.5801 46.4596 18.8602 44.6339 17.9168 42.8006C17.3992 43.0647 16.8732 43.3287 16.3556 43.5928C16.7981 44.3774 17.107 45.2751 17.7081 45.939C19.7619 48.1872 19.8704 50.2544 17.5161 52.4272C13.4084 56.2219 7.19694 55.3845 4.09954 50.5712C1.03553 45.8108 2.95575 40.6505 2.56336 35.6712C2.56336 33.6116 2.56336 31.5596 2.56336 29.5C2.56336 28.3004 2.56336 27.1009 2.56336 25.9013C2.56336 24.8451 2.56336 23.7965 2.56336 22.7403L2.47153 19.8131C2.22106 16.7803 1.97895 13.7474 1.72848 10.7146H1.72013Z" fill="#13110C"/>
<path d="M29.7886 14.6301C29.7886 13.3249 29.7886 12.0198 29.7886 10.7146C20.4296 10.7146 11.0706 10.7146 1.71158 10.7146C1.96205 13.7474 2.20416 16.7802 2.45462 19.813C4.37485 19.3076 6.39525 18.1759 8.19859 18.4173C15.9546 19.4509 22.4166 14.9922 29.7886 14.6301Z" fill="#858180"/>
<path d="M2.54626 35.6637C2.93866 40.6354 1.01843 45.7957 4.08244 50.5637C7.17984 55.377 13.3913 56.2144 17.499 52.4196C19.8533 50.2468 19.7364 48.1872 17.691 45.9315C17.0815 45.2676 16.781 44.3773 16.3385 43.5852C16.8561 43.3211 17.3821 43.0571 17.8997 42.793C18.8431 44.6263 20.563 46.452 20.563 48.2853C20.5713 51.303 21.3978 53.8455 24.6372 54.102C26.7995 54.2755 29.7884 53.0835 31.2661 51.5822C33.3867 49.432 32.8524 46.5727 30.6984 44.234C30.2058 43.6984 29.6464 43.2155 29.1205 42.7101C29.2874 42.4083 29.4628 42.1065 29.6297 41.7972C30.5732 42.1367 32.1093 42.2725 32.3431 42.8534C33.2698 45.1242 33.704 47.5535 34.5138 49.8621C34.7392 50.4882 35.6158 51.3181 36.2587 51.3709C39.8236 51.6652 41.3431 49.2736 42.2531 46.8368C43.3886 43.7964 41.3431 39.8583 37.7949 38.0401C35.7661 37.0065 33.3867 36.5237 30.5732 35.5958C30.3394 32.9553 30.0555 29.7942 29.7717 26.6331C27.1502 26.6105 24.5203 26.6331 21.8988 26.5501C15.4451 26.354 8.98318 26.1126 2.52956 25.8862C2.52956 27.0858 2.52956 28.2853 2.52956 29.4849C4.37465 29.3566 6.23643 29.002 8.05647 29.1378C11.2791 29.3717 14.46 30.1412 17.6743 30.2468C20.5379 30.3449 23.4182 29.847 26.2902 29.6056C26.4238 29.9149 26.549 30.2242 26.6826 30.5335C25.6641 31.1673 24.7207 32.1782 23.6019 32.3668C16.5973 33.5663 9.5509 34.5773 2.52121 35.6486L2.54626 35.6637Z" fill="white"/>
<path d="M2.54646 25.9014C9.00008 26.1277 15.462 26.3691 21.9157 26.5653C24.5372 26.6482 27.1587 26.6181 29.7886 26.6482C29.7886 23.8418 29.7886 21.0428 29.7886 18.2363C27.5594 18.6664 25.1299 18.7116 23.1429 19.5943C16.5724 22.4913 9.50101 22.1895 2.54646 22.7478C2.54646 23.804 2.54646 24.8527 2.54646 25.9089V25.9014Z" fill="#858180"/>
<path d="M2.5466 35.6638C9.57628 34.5925 16.6227 33.574 23.6273 32.382C24.7377 32.1934 25.6811 31.1824 26.708 30.5487C26.5744 30.2394 26.4492 29.9301 26.3156 29.6208C23.4436 29.8546 20.5549 30.3526 17.6997 30.262C14.4854 30.1564 11.3045 29.3944 8.08185 29.153C6.26181 29.0172 4.40003 29.3643 2.55495 29.5001C2.55495 31.5597 2.55495 33.6117 2.55495 35.6713L2.5466 35.6638Z" fill="#858180"/>
<path d="M2.54646 22.7327C9.50101 22.1744 16.5724 22.4762 23.1429 19.5792C25.1299 18.704 27.5594 18.6512 29.7886 18.2212C29.7886 17.0217 29.7886 15.8221 29.7886 14.6226C22.4166 14.9771 15.9546 19.4434 8.19859 18.4098C6.39525 18.1684 4.37485 19.3076 2.45462 19.8055C2.48802 20.7787 2.51307 21.7519 2.54646 22.7327Z" fill="white"/>
</g>
<g clip-path="url(#clip1_2022_3478)">
<path d="M97.2799 10.7146C97.8643 10.8429 98.9663 10.9862 98.9663 11.1069C98.7993 18.1835 98.4153 25.2525 98.3485 32.3291C98.3151 36.2672 99.15 40.2129 98.9747 44.1359C98.624 52.1405 94.2326 56.9236 85.7836 56.5388C83.5628 56.4332 81.4088 55.1054 78.9125 54.2302C76.1658 56.6293 72.4672 56.4105 68.5767 54.9469C67.2326 54.4415 65.855 53.7927 64.4441 53.6795C58.6667 53.2268 55.3522 51.1522 54.1917 46.9952C53.1899 43.3891 56.2372 38.108 60.6871 36.1163C62.432 35.3317 64.4023 34.9545 67.0906 34.1473V8.69276C67.5832 8.6324 68.0674 8.57205 68.56 8.50415C68.7771 9.24349 68.9942 9.97529 69.2112 10.7146C69.2112 12.0198 69.2112 13.325 69.2112 14.6301C69.2112 15.8297 69.2112 17.0292 69.2112 18.2288C69.2112 21.0353 69.2112 23.8342 69.2112 26.6407C68.9274 29.8018 68.6435 32.9553 68.4097 35.6033C65.5962 36.5313 63.2168 37.0141 61.188 38.0477C57.6398 39.8583 55.5943 43.7965 56.7298 46.8444C57.6398 49.2887 59.1593 51.6727 62.7242 51.3785C63.3754 51.3257 64.252 50.4958 64.4691 49.8696C65.2873 47.5611 65.7131 45.1243 66.6398 42.861C66.8736 42.2876 68.4181 42.1442 69.3531 41.8048C69.5201 42.1065 69.6955 42.4083 69.8624 42.7176C69.3365 43.2231 68.7771 43.7059 68.2845 44.2416C66.1305 46.5728 65.5962 49.4396 67.7168 51.5897C69.1945 53.091 72.175 54.2831 74.3457 54.1095C77.5851 53.853 78.4116 51.3106 78.4199 48.2929C78.4199 46.4596 80.1398 44.6339 81.0832 42.8006C81.6008 43.0647 82.1268 43.3287 82.6444 43.5928C82.2019 44.3774 81.893 45.2751 81.2919 45.939C79.2381 48.1872 79.1296 50.2544 81.4839 52.4272C85.5916 56.2219 91.8031 55.3845 94.9005 50.5712C97.9645 45.8108 96.0442 40.6505 96.4366 35.6712C96.4366 33.6116 96.4366 31.5596 96.4366 29.5C96.4366 28.3004 96.4366 27.1009 96.4366 25.9013C96.4366 24.8451 96.4366 23.7965 96.4366 22.7403L96.5285 19.8131C96.7789 16.7803 97.0211 13.7474 97.2715 10.7146H97.2799Z" fill="#13110C"/>
<path d="M69.2114 14.6301C69.2114 13.3249 69.2114 12.0198 69.2114 10.7146C78.5704 10.7146 87.9294 10.7146 97.2884 10.7146C97.038 13.7474 96.7958 16.7802 96.5454 19.813C94.6252 19.3076 92.6047 18.1759 90.8014 18.4173C83.0454 19.4509 76.5834 14.9922 69.2114 14.6301Z" fill="#858180"/>
<path d="M96.4537 35.6637C96.0613 40.6354 97.9816 45.7957 94.9176 50.5637C91.8202 55.377 85.6087 56.2144 81.501 52.4196C79.1467 50.2468 79.2636 48.1872 81.309 45.9315C81.9185 45.2676 82.219 44.3773 82.6615 43.5852C82.1439 43.3211 81.6179 43.0571 81.1003 42.793C80.1569 44.6263 78.437 46.452 78.437 48.2853C78.4287 51.303 77.6022 53.8455 74.3628 54.102C72.2005 54.2755 69.2116 53.0835 67.7339 51.5822C65.6133 49.432 66.1476 46.5727 68.3016 44.234C68.7942 43.6984 69.3536 43.2155 69.8795 42.7101C69.7126 42.4083 69.5372 42.1065 69.3703 41.7972C68.4268 42.1367 66.8907 42.2725 66.6569 42.8534C65.7302 45.1242 65.296 47.5535 64.4862 49.8621C64.2608 50.4882 63.3842 51.3181 62.7413 51.3709C59.1764 51.6652 57.6569 49.2736 56.7469 46.8368C55.6114 43.7964 57.6569 39.8583 61.2051 38.0401C63.2339 37.0065 65.6133 36.5237 68.4268 35.5958C68.6606 32.9553 68.9445 29.7942 69.2283 26.6331C71.8498 26.6105 74.4797 26.6331 77.1012 26.5501C83.5549 26.354 90.0168 26.1126 96.4704 25.8862C96.4704 27.0858 96.4704 28.2853 96.4704 29.4849C94.6254 29.3566 92.7636 29.002 90.9435 29.1378C87.7209 29.3717 84.54 30.1412 81.3257 30.2468C78.4621 30.3449 75.5818 29.847 72.7098 29.6056C72.5762 29.9149 72.451 30.2242 72.3174 30.5335C73.3359 31.1673 74.2793 32.1782 75.3981 32.3668C82.4027 33.5663 89.4491 34.5773 96.4788 35.6486L96.4537 35.6637Z" fill="white"/>
<path d="M96.4535 25.9014C89.9999 26.1277 83.538 26.3691 77.0843 26.5653C74.4628 26.6482 71.8413 26.6181 69.2114 26.6482C69.2114 23.8418 69.2114 21.0428 69.2114 18.2363C71.4406 18.6664 73.8701 18.7116 75.8571 19.5943C82.4276 22.4913 89.499 22.1895 96.4535 22.7478C96.4535 23.804 96.4535 24.8527 96.4535 25.9089V25.9014Z" fill="#858180"/>
<path d="M96.4534 35.6638C89.4237 34.5925 82.3773 33.574 75.3727 32.382C74.2623 32.1934 73.3189 31.1824 72.292 30.5487C72.4256 30.2394 72.5508 29.9301 72.6844 29.6208C75.5564 29.8546 78.4451 30.3526 81.3003 30.262C84.5146 30.1564 87.6955 29.3944 90.9182 29.153C92.7382 29.0172 94.6 29.3643 96.4451 29.5001C96.4451 31.5597 96.4451 33.6117 96.4451 35.6713L96.4534 35.6638Z" fill="#858180"/>
<path d="M96.4535 22.7327C89.499 22.1744 82.4276 22.4762 75.8571 19.5792C73.8701 18.704 71.4406 18.6512 69.2114 18.2212C69.2114 17.0217 69.2114 15.8221 69.2114 14.6226C76.5834 14.9771 83.0454 19.4434 90.8014 18.4098C92.6047 18.1684 94.6252 19.3076 96.5454 19.8055C96.512 20.7787 96.4869 21.7519 96.4535 22.7327Z" fill="white"/>
</g>
<g clip-path="url(#clip2_2022_3478)">
<path d="M483.32 14.4824C482.62 12.9166 482.04 11.2885 481.16 9.80277C480.74 9.09993 479.75 8.66399 478.24 7.52521C481.6 18.3258 484.6 27.9876 487.65 37.8007C480.43 40.6832 476.73 45.1227 477.16 52.1155C477.56 58.5389 483.8 62.409 490.9 60.7987C493.99 60.0958 497.52 61.03 500.72 60.5407C503.91 60.0513 506.94 58.7079 511.44 57.3023C515.07 58.9837 520.13 58.2186 524.45 54.4553C528.86 50.6208 529.99 46.0746 528.16 40.6565C523.95 28.1478 520.09 15.55 516.09 2.98789C515.63 1.55552 515.77 -0.633067 512.96 1.18186C514.95 7.44514 516.94 13.7084 518.94 19.9806C521.37 28.0855 524.1 36.1281 526.11 44.3042C527.43 49.6867 521.88 55.2293 515.91 55.3272C509.92 55.4251 506.96 52.1066 508.27 46.8931C508.57 45.7099 508.52 44.4554 508.64 43.2366C507.88 43.1921 507.13 43.1565 506.37 43.112C506.28 45.9501 506.21 48.797 506.07 51.6351C505.98 53.45 506.42 56.4482 505.5 56.8485C503 57.9339 499.66 58.7257 497.07 58.1475C492.59 57.151 491.13 53.1386 492.73 49.0372C493.13 48.0141 493.16 46.8753 492.64 45.701C488.71 49.6333 490.32 54.0817 491.21 58.4144C485.21 59.2151 480.85 57.2133 479.4 53.1297C477.75 48.4678 481.42 43.5302 489.51 39.5178C489.41 37.4092 489.3 35.3007 489.2 33.1833C487.46 27.3738 485.72 21.5553 483.98 15.7458L483.87 15.6123C483.69 15.2387 483.51 14.8561 483.33 14.4824H483.32Z" fill="#13110C"/>
<path d="M483.96 15.7461C485.7 21.5556 487.44 27.3741 489.18 33.1836C491.49 31.9114 495.27 31.0039 495.8 29.2869C497 25.4257 496.6 20.9329 492.38 18.2994C490.04 16.8493 486.79 16.5557 483.95 15.7461H483.96Z" fill="#858180"/>
<path d="M518.93 19.9809C516.94 13.7176 514.95 7.45431 512.95 1.18213C511.1 1.59138 509.24 2.00063 507.44 2.40098C506.79 13.7087 511.09 21.262 518.92 19.9809H518.93Z" fill="#858180"/>
<g clip-path="url(#clip3_2022_3478)">
<path d="M483.32 14.4824C482.62 12.9166 482.04 11.2885 481.16 9.80277C480.74 9.09993 479.75 8.66399 478.24 7.52521C481.6 18.3258 484.6 27.9876 487.65 37.8007C480.43 40.6832 476.73 45.1227 477.16 52.1155C477.56 58.5389 483.8 62.409 490.9 60.7987C493.99 60.0958 497.52 61.03 500.72 60.5407C503.91 60.0513 506.94 58.7079 511.44 57.3023C515.07 58.9837 520.13 58.2186 524.45 54.4553C528.86 50.6208 529.99 46.0746 528.16 40.6565C523.95 28.1478 520.09 15.55 516.09 2.98789C515.63 1.55552 515.77 -0.633067 512.96 1.18186C514.95 7.44514 516.94 13.7084 518.94 19.9806C521.37 28.0855 524.1 36.1281 526.11 44.3042C527.43 49.6867 521.88 55.2293 515.91 55.3272C509.92 55.4251 506.96 52.1066 508.27 46.8931C508.57 45.7099 508.52 44.4554 508.64 43.2366C507.88 43.1921 507.13 43.1565 506.37 43.112C506.28 45.9501 506.21 48.797 506.07 51.6351C505.98 53.45 506.42 56.4482 505.5 56.8485C503 57.9339 499.66 58.7257 497.07 58.1475C492.59 57.151 491.13 53.1386 492.73 49.0372C493.13 48.0141 493.16 46.8753 492.64 45.701C488.71 49.6333 490.32 54.0817 491.21 58.4144C485.21 59.2151 480.85 57.2133 479.4 53.1297C477.75 48.4678 481.42 43.5302 489.51 39.5178C489.41 37.4092 489.3 35.3007 489.2 33.1833C487.46 27.3738 485.72 21.5553 483.98 15.7458L483.87 15.6123C483.69 15.2387 483.51 14.8561 483.33 14.4824H483.32Z" fill="#13110C"/>
<path d="M483.96 15.7461C485.7 21.5556 487.44 27.3741 489.18 33.1836C491.49 31.9114 495.27 31.0039 495.8 29.2869C497 25.4257 496.6 20.9329 492.38 18.2994C490.04 16.8493 486.79 16.5557 483.95 15.7461H483.96Z" fill="#858180"/>
<path d="M518.93 19.9809C516.94 13.7176 514.95 7.45431 512.95 1.18213C511.1 1.59138 509.24 2.00063 507.44 2.40098C506.79 13.7087 511.09 21.262 518.92 19.9809H518.93Z" fill="#858180"/>
</g>
</g>
<g clip-path="url(#clip4_2022_3478)">
<path d="M586.8 15.3721C587.5 13.8063 588.08 12.1782 588.96 10.6924C589.38 9.98958 590.37 9.55364 591.88 8.41486C588.52 19.2155 585.52 28.8773 582.47 38.6903C589.69 41.5729 593.39 46.0123 592.96 53.0051C592.56 59.4286 586.32 63.2986 579.22 61.6883C576.13 60.9855 572.6 61.9196 569.4 61.4303C566.21 60.941 563.18 59.5976 558.68 58.1919C555.05 59.8734 549.99 59.1083 545.67 55.345C541.26 51.5105 540.13 46.9643 541.96 41.5462C546.17 29.0374 550.03 16.4397 554.03 3.87754C554.49 2.44517 554.35 0.256581 557.16 2.07151C555.17 8.33479 553.18 14.5981 551.18 20.8702C548.75 28.9751 546.02 37.0178 544.01 45.1938C542.69 50.5763 548.24 56.119 554.21 56.2168C560.2 56.3147 563.16 52.9962 561.85 47.7828C561.55 46.5995 561.6 45.3451 561.48 44.1262C562.24 44.0817 562.99 44.0462 563.75 44.0017C563.84 46.8397 563.91 49.6867 564.05 52.5247C564.14 54.3396 563.7 57.3378 564.62 57.7382C567.12 58.8236 570.46 59.6154 573.05 59.0371C577.53 58.0407 578.99 54.0283 577.39 49.9269C576.99 48.9038 576.96 47.765 577.48 46.5906C581.41 50.523 579.8 54.9713 578.91 59.304C584.91 60.1047 589.27 58.1029 590.72 54.0194C592.37 49.3575 588.7 44.4198 580.61 40.4074C580.71 38.2989 580.82 36.1904 580.92 34.073C582.66 28.2634 584.4 22.445 586.14 16.6354L586.25 16.502C586.43 16.1283 586.61 15.7457 586.79 15.3721H586.8Z" fill="#13110C"/>
<path d="M586.16 16.6357C584.42 22.4453 582.68 28.2637 580.94 34.0733C578.63 32.8011 574.85 31.8936 574.32 30.1765C573.12 26.3154 573.52 21.8225 577.74 19.1891C580.08 17.7389 583.33 17.4453 586.17 16.6357H586.16Z" fill="#858180"/>
<path d="M551.19 20.8705C553.18 14.6072 555.17 8.34395 557.17 2.07178C559.02 2.48103 560.88 2.89027 562.68 3.29063C563.33 14.5983 559.03 22.1516 551.2 20.8705H551.19Z" fill="#858180"/>
<g clip-path="url(#clip5_2022_3478)">
<path d="M586.8 15.3721C587.5 13.8063 588.08 12.1782 588.96 10.6924C589.38 9.98958 590.37 9.55364 591.88 8.41486C588.52 19.2155 585.52 28.8773 582.47 38.6903C589.69 41.5729 593.39 46.0123 592.96 53.0051C592.56 59.4286 586.32 63.2986 579.22 61.6883C576.13 60.9855 572.6 61.9196 569.4 61.4303C566.21 60.941 563.18 59.5976 558.68 58.1919C555.05 59.8734 549.99 59.1083 545.67 55.345C541.26 51.5105 540.13 46.9643 541.96 41.5462C546.17 29.0374 550.03 16.4397 554.03 3.87754C554.49 2.44517 554.35 0.256581 557.16 2.07151C555.17 8.33479 553.18 14.5981 551.18 20.8702C548.75 28.9751 546.02 37.0178 544.01 45.1938C542.69 50.5763 548.24 56.119 554.21 56.2168C560.2 56.3147 563.16 52.9962 561.85 47.7828C561.55 46.5995 561.6 45.3451 561.48 44.1262C562.24 44.0817 562.99 44.0462 563.75 44.0017C563.84 46.8397 563.91 49.6867 564.05 52.5247C564.14 54.3396 563.7 57.3378 564.62 57.7382C567.12 58.8236 570.46 59.6154 573.05 59.0371C577.53 58.0407 578.99 54.0283 577.39 49.9269C576.99 48.9038 576.96 47.765 577.48 46.5906C581.41 50.523 579.8 54.9713 578.91 59.304C584.91 60.1047 589.27 58.1029 590.72 54.0194C592.37 49.3575 588.7 44.4198 580.61 40.4074C580.71 38.2989 580.82 36.1904 580.92 34.073C582.66 28.2634 584.4 22.445 586.14 16.6354L586.25 16.502C586.43 16.1283 586.61 15.7457 586.79 15.3721H586.8Z" fill="#13110C"/>
<path d="M586.16 16.6357C584.42 22.4453 582.68 28.2637 580.94 34.0733C578.63 32.8011 574.85 31.8936 574.32 30.1765C573.12 26.3154 573.52 21.8225 577.74 19.1891C580.08 17.7389 583.33 17.4453 586.17 16.6357H586.16Z" fill="#858180"/>
<path d="M551.19 20.8705C553.18 14.6072 555.17 8.34395 557.17 2.07178C559.02 2.48103 560.88 2.89027 562.68 3.29063C563.33 14.5983 559.03 22.1516 551.2 20.8705H551.19Z" fill="#858180"/>
</g>
</g>
<g clip-path="url(#clip6_2022_3478)">
<path d="M316.25 0.853108C313.45 0.239235 313.56 0.257029 313.25 2.26768C311.97 10.5149 310.63 18.7444 309.27 26.9827C308.94 28.9578 308.01 29.8919 305.33 30.3368C295.9 31.9026 290.97 36.3243 292.47 45.2477C293.15 49.3046 297.17 51.1373 301.29 52.3116C302.04 52.5252 303.19 52.0536 303.72 52.4184C308.8 55.8614 314.14 56.1817 320.48 55.5589C323.03 55.3098 326.65 58.8507 330.95 58.655C338.33 58.3169 344.27 53.4504 345.19 46.8758C347.01 33.9044 349.14 20.9686 351 8.00606C351.11 7.25873 349.82 6.34237 349.18 5.50608C348.84 5.79967 348.51 6.09327 348.17 6.38686C347.77 9.90105 347.38 13.4153 346.98 16.9295C346.65 18.086 346.32 19.2515 345.98 20.4081C345.98 21.6091 345.98 22.8102 345.98 24.0201C345.65 25.4792 345.32 26.9293 344.98 28.3884C344.65 31.0663 344.32 33.7442 343.99 36.4132C343.71 38.5306 343.41 40.6481 343.15 42.7744C342.44 48.5661 340.89 53.7707 333.7 56.0305C329.36 57.3917 325.49 56.7244 322.97 53.4059C320.32 49.9184 322.04 47.0893 324.78 44.3758C325.33 43.8331 325.39 42.89 325.67 42.1338L323.85 41.4666C322.32 44.0466 320.05 46.4932 319.42 49.2423C318.34 53.9664 315.99 55.4433 310.99 53.397C305.54 51.164 304.41 46.7156 308.13 42.3206C309.03 41.253 309.83 40.1143 310.68 39.0111C304.22 40.4879 303.84 45.2566 302.94 49.6426C296.17 49.1266 292.93 44.2957 295.28 39.1267C297.57 34.0912 302.57 33.2015 307.5 31.9115C308.85 31.5645 310.02 30.6838 311.27 30.0521C312 26.8582 312.73 23.6643 313.45 20.4703C313.78 17.7924 314.11 15.1145 314.45 12.4277C314.78 10.9687 315.11 9.5185 315.45 8.05944C315.45 6.2623 315.45 4.47407 315.45 2.67693C315.73 2.06306 316 1.44029 316.28 0.826418L316.25 0.853108Z" fill="#13110C"/>
<path d="M315.42 2.70337C315.42 4.5005 315.42 6.28874 315.42 8.08587C316.23 8.16594 317.12 8.08587 317.84 8.35278C322.13 9.95418 326.26 11.947 330.67 13.2193C335.99 14.7673 341.53 15.7281 346.98 16.9381C347.38 13.4239 347.77 9.9097 348.17 6.3955C348.15 6.1375 348.11 5.8706 348.06 5.61259C347.42 5.55031 346.79 5.47914 346.15 5.41686C344.45 5.64818 342.69 6.24426 341.05 6.05743C332.49 5.0521 323.96 3.84215 315.42 2.70337Z" fill="#CE7E43"/>
<path d="M315.42 2.70341C323.96 3.84218 332.49 5.05213 341.05 6.05746C342.69 6.25319 344.44 5.64821 346.15 5.4169C338.75 4.22474 331.36 3.01479 323.95 1.84932C321.4 1.44897 318.82 1.17317 316.25 0.843994C315.97 1.45787 315.7 2.07174 315.42 2.69451V2.70341Z" fill="#E5A166"/>
<path d="M348.05 5.61276C348.1 5.87076 348.13 6.12877 348.16 6.39567C348.5 6.10208 348.84 5.80848 349.17 5.51489C348.8 5.55048 348.42 5.58607 348.05 5.62165V5.61276Z" fill="#E5A166"/>
<path d="M311.25 30.0698C310 30.7015 308.82 31.5823 307.48 31.9292C302.55 33.2193 297.55 34.1 295.26 39.1445C292.91 44.3134 296.15 49.1444 302.92 49.6604C303.82 45.2743 304.2 40.5057 310.66 39.0288C309.81 40.132 309.02 41.2708 308.11 42.3384C304.39 46.7333 305.52 51.1817 310.97 53.4148C315.97 55.4699 318.32 53.9842 319.4 49.26C320.03 46.5109 322.3 44.0643 323.83 41.4843L325.65 42.1515C325.37 42.9078 325.31 43.8508 324.76 44.3935C322.02 47.0981 320.3 49.9362 322.95 53.4237C325.48 56.7421 329.35 57.4094 333.68 56.0482C340.87 53.7884 342.42 48.5839 343.13 42.7921C343.39 40.6747 343.69 38.5484 343.97 36.431C340.7 35.7815 337.44 35.1409 334.17 34.4915C326.52 33.0235 318.87 31.5467 311.22 30.0787L311.25 30.0698Z" fill="white"/>
<path d="M311.25 30.0698C318.9 31.5377 326.55 33.0146 334.2 34.4826C328.27 31.9826 320.86 31.947 316.02 25.8883C317.95 25.8883 319.07 25.8083 320.16 25.9061C326.01 26.4221 331.86 26.9737 337.71 27.552C340.14 27.7922 342.56 28.1125 344.99 28.3972C345.32 26.9381 345.65 25.488 345.99 24.0289C335.14 22.8457 324.29 21.6624 313.44 20.488C312.71 23.682 311.98 26.8759 311.26 30.0698H311.25Z" fill="#E5A166"/>
<path d="M313.43 20.4879C324.28 21.6712 335.13 22.8545 345.98 24.0288C345.98 22.8278 345.98 21.6267 345.98 20.4168C344.39 20.1232 342.76 19.963 341.23 19.5182C334.95 17.6944 328.74 15.7015 322.44 13.9489C319.85 13.2282 317.11 12.9346 314.44 12.4453C314.11 15.1232 313.78 17.8011 313.44 20.4879H313.43Z" fill="#CE7E43"/>
<path d="M344.98 28.3971C342.55 28.1124 340.13 27.7922 337.7 27.552C331.85 26.9826 326.01 26.431 320.15 25.9061C319.06 25.8082 317.94 25.8883 316.01 25.8883C320.86 31.9469 328.26 31.9825 334.19 34.4825C337.46 35.1319 340.72 35.7725 343.99 36.422C344.32 33.7441 344.65 31.0662 344.98 28.3971Z" fill="#CE7E43"/>
<path d="M314.43 12.4453C317.1 12.9346 319.84 13.2282 322.43 13.9489C328.73 15.7104 334.95 17.6944 341.22 19.5182C342.75 19.963 344.39 20.1232 345.97 20.4168C346.3 19.2602 346.63 18.0947 346.97 16.9382C341.53 15.7282 335.99 14.7585 330.66 13.2193C326.26 11.9471 322.12 9.95425 317.83 8.35284C317.11 8.08594 316.22 8.16601 315.41 8.08594C315.08 9.545 314.75 10.9952 314.41 12.4542L314.43 12.4453Z" fill="#E5A166"/>
</g>
<g clip-path="url(#clip7_2022_3478)">
<path d="M249.25 6.19124C246.45 5.57737 246.56 5.59516 246.25 7.60582C244.97 15.8531 243.63 24.0825 242.27 32.3209C241.94 34.2959 241.01 35.2301 238.33 35.6749C228.9 37.2407 223.97 41.6624 225.47 50.5858C226.15 54.6427 230.17 56.4754 234.29 57.6498C235.04 57.8633 236.19 57.3918 236.72 57.7565C241.8 61.1996 247.14 61.5198 253.48 60.8971C256.03 60.648 259.65 64.1889 263.95 63.9931C271.33 63.655 277.27 58.7886 278.19 52.2139C280.01 39.2425 282.14 26.3067 284 13.3442C284.11 12.5969 282.82 11.6805 282.18 10.8442C281.84 11.1378 281.51 11.4314 281.17 11.725C280.77 15.2392 280.38 18.7534 279.98 22.2676C279.65 23.4242 279.32 24.5896 278.98 25.7462C278.98 26.9473 278.98 28.1483 278.98 29.3583C278.65 30.8173 278.32 32.2675 277.98 33.7265C277.65 36.4044 277.32 39.0824 276.99 41.7514C276.71 43.8688 276.41 45.9862 276.15 48.1125C275.44 53.9043 273.89 59.1088 266.7 61.3686C262.36 62.7298 258.49 62.0625 255.97 58.7441C253.32 55.2566 255.04 52.4274 257.78 49.7139C258.33 49.1712 258.39 48.2282 258.67 47.4719L256.85 46.8047C255.32 49.3847 253.05 51.8313 252.42 54.5804C251.34 59.3046 248.99 60.7814 243.99 58.7352C238.54 56.5021 237.41 52.0537 241.13 47.6588C242.03 46.5912 242.83 45.4524 243.68 44.3492C237.22 45.8261 236.84 50.5947 235.94 54.9808C229.17 54.4648 225.93 49.6338 228.28 44.4649C230.57 39.4293 235.57 38.5397 240.5 37.2496C241.85 36.9027 243.02 36.0219 244.27 35.3902C245 32.1963 245.73 29.0024 246.45 25.8085C246.78 23.1306 247.11 20.4527 247.45 17.7659C247.78 16.3068 248.11 14.8566 248.45 13.3976C248.45 11.6004 248.45 9.8122 248.45 8.01507C248.73 7.40119 249 6.77842 249.28 6.16455L249.25 6.19124Z" fill="#13110C"/>
<path d="M248.42 8.0415C248.42 9.83864 248.42 11.6269 248.42 13.424C249.23 13.5041 250.12 13.424 250.84 13.6909C255.13 15.2923 259.26 17.2852 263.67 18.5574C268.99 20.1054 274.53 21.0663 279.98 22.2762C280.38 18.762 280.77 15.2478 281.17 11.7336C281.15 11.4756 281.11 11.2087 281.06 10.9507C280.42 10.8884 279.79 10.8173 279.15 10.755C277.45 10.9863 275.69 11.5824 274.05 11.3956C265.49 10.3902 256.96 9.18028 248.42 8.0415Z" fill="#CE7E43"/>
<path d="M248.42 8.04154C256.96 9.18032 265.49 10.3903 274.05 11.3956C275.69 11.5913 277.44 10.9863 279.15 10.755C271.75 9.56288 264.36 8.35292 256.95 7.18746C254.4 6.7871 251.82 6.51131 249.25 6.18213C248.97 6.796 248.7 7.40987 248.42 8.03264V8.04154Z" fill="#E5A166"/>
<path d="M281.05 10.9509C281.1 11.2089 281.13 11.4669 281.16 11.7338C281.5 11.4402 281.84 11.1466 282.17 10.853C281.8 10.8886 281.42 10.9242 281.05 10.9598V10.9509Z" fill="#E5A166"/>
<path d="M244.25 35.408C243 36.0396 241.82 36.9204 240.48 37.2674C235.55 38.5574 230.55 39.4382 228.26 44.4826C225.91 49.6516 229.15 54.4825 235.92 54.9985C236.82 50.6124 237.2 45.8438 243.66 44.3669C242.81 45.4701 242.02 46.6089 241.11 47.6765C237.39 52.0715 238.52 56.5198 243.97 58.7529C248.97 60.808 251.32 59.3223 252.4 54.5981C253.03 51.8491 255.3 49.4025 256.83 46.8224L258.65 47.4897C258.37 48.2459 258.31 49.189 257.76 49.7316C255.02 52.4362 253.3 55.2743 255.95 58.7618C258.48 62.0803 262.35 62.7475 266.68 61.3863C273.87 59.1266 275.42 53.922 276.13 48.1302C276.39 46.0128 276.69 43.8865 276.97 41.7691C273.7 41.1196 270.44 40.4791 267.17 39.8296C259.52 38.3617 251.87 36.8848 244.22 35.4169L244.25 35.408Z" fill="white"/>
<path d="M244.25 35.4079C251.9 36.8759 259.55 38.3527 267.2 39.8207C261.27 37.3207 253.86 37.2851 249.02 31.2265C250.95 31.2265 252.07 31.1464 253.16 31.2443C259.01 31.7603 264.86 32.3119 270.71 32.8902C273.14 33.1304 275.56 33.4506 277.99 33.7353C278.32 32.2763 278.65 30.8261 278.99 29.3671C268.14 28.1838 257.29 27.0005 246.44 25.8262C245.71 29.0201 244.98 32.214 244.26 35.4079H244.25Z" fill="#E5A166"/>
<path d="M246.43 25.8261C257.28 27.0093 268.13 28.1926 278.98 29.367C278.98 28.1659 278.98 26.9648 278.98 25.7549C277.39 25.4613 275.76 25.3012 274.23 24.8563C267.95 23.0325 261.74 21.0396 255.44 19.287C252.85 18.5664 250.11 18.2728 247.44 17.7834C247.11 20.4614 246.78 23.1393 246.44 25.8261H246.43Z" fill="#CE7E43"/>
<path d="M277.98 33.7353C275.55 33.4506 273.13 33.1303 270.7 32.8901C264.85 32.3207 259.01 31.7691 253.15 31.2442C252.06 31.1463 250.94 31.2264 249.01 31.2264C253.86 37.2851 261.26 37.3206 267.19 39.8206C270.46 40.4701 273.72 41.1106 276.99 41.7601C277.32 39.0822 277.65 36.4043 277.98 33.7353Z" fill="#CE7E43"/>
<path d="M247.43 17.7835C250.1 18.2728 252.84 18.5664 255.43 19.287C261.73 21.0485 267.95 23.0325 274.22 24.8563C275.75 25.3012 277.39 25.4613 278.97 25.7549C279.3 24.5983 279.63 23.4329 279.97 22.2763C274.53 21.0663 268.99 20.0966 263.66 18.5575C259.26 17.2852 255.12 15.2924 250.83 13.691C250.11 13.4241 249.22 13.5041 248.41 13.4241C248.08 14.8831 247.75 16.3333 247.41 17.7924L247.43 17.7835Z" fill="#E5A166"/>
</g>
<defs>
<clipPath id="clip0_2022_3478">
<rect width="45" height="48.0422" fill="white" transform="matrix(-1 0 0 1 45 8.50415)"/>
</clipPath>
<clipPath id="clip1_2022_3478">
<rect width="45" height="48.0422" fill="white" transform="translate(54 8.50415)"/>
</clipPath>
<clipPath id="clip2_2022_3478">
<rect width="51.88" height="60.6666" fill="white" transform="matrix(-1 0 0 1 529 0.49707)"/>
</clipPath>
<clipPath id="clip3_2022_3478">
<rect width="51.88" height="60.6666" fill="white" transform="matrix(-1 0 0 1 529 0.49707)"/>
</clipPath>
<clipPath id="clip4_2022_3478">
<rect width="51.88" height="60.6666" fill="white" transform="translate(541.12 1.38672)"/>
</clipPath>
<clipPath id="clip5_2022_3478">
<rect width="51.88" height="60.6666" fill="white" transform="translate(541.12 1.38672)"/>
</clipPath>
<clipPath id="clip6_2022_3478">
<rect width="58.8" height="58.1489" fill="white" transform="matrix(-1 0 0 1 351 0.49707)"/>
</clipPath>
<clipPath id="clip7_2022_3478">
<rect width="58.8" height="58.1489" fill="white" transform="matrix(-1 0 0 1 284 5.83521)"/>
</clipPath>
</defs>
</svg>
