<svg width="84" height="83" viewBox="0 0 84 83" fill="none" xmlns="http://www.w3.org/2000/svg">
<g id="Calque_1" clip-path="url(#clip0_2022_2297)">
<path id="Vector" d="M3.8162 42.6577C3.50459 43.3072 2.81592 44.4492 2.93977 44.5505C10.3269 50.3345 17.8709 55.9109 25.1821 61.7878C29.2479 65.0618 32.663 69.1471 36.821 72.2769C45.2995 78.6693 53.5372 78.6119 59.5498 70.4557C61.1255 68.3082 61.3967 65.1968 62.3919 62.148C66.9364 61.6148 69.5167 58.0021 70.9654 53.1668C71.4662 51.4964 71.8452 49.6748 72.7991 48.2717C76.7159 42.5354 77.1009 37.7213 73.7159 33.1569C70.7758 29.2016 63.0466 27.5949 57.6285 30.0491C55.5002 31.0084 53.619 32.5186 50.7521 34.3335L24.6359 12.9715C24.2005 13.3776 23.7713 13.7759 23.3281 14.1756C23.922 14.9973 24.5082 15.8127 25.1022 16.6344C26.4413 17.7297 27.7804 18.8251 29.1195 19.9204C30.3502 20.9271 31.5809 21.9337 32.8116 22.9404C35.6911 25.2957 38.5628 27.6446 41.4422 29.9999C44.9007 32.3895 48.3515 34.7729 51.2456 36.7784C54.3314 34.9487 56.6312 33.1479 59.2301 32.1343C63.7787 30.3642 69.3703 31.7728 71.6364 35.3833C73.4542 38.2784 74.7479 41.6878 71.7425 44.7461C71.1945 45.3055 69.6782 45.4218 68.8712 45.0976C65.8821 43.9187 63.0591 42.2685 60.0342 41.2282C59.2686 40.9638 57.9502 42.2755 56.8928 42.8575C57.0758 43.2655 57.2525 43.6813 57.4432 44.0957C58.3607 44.0323 59.2803 43.9189 60.2034 43.9117C64.2287 43.8711 67.5752 45.7816 68.1731 49.5521C68.5928 52.1821 67.5555 55.9458 65.7313 57.8127C63.0115 60.6007 59.7762 59.2333 56.6737 56.7085C54.7928 55.17 51.6154 55.2324 49.019 54.5685C48.8974 55.27 48.7694 55.9793 48.6478 56.6808C49.7883 56.929 50.9437 57.396 52.0807 57.3959C55.9449 57.3785 58.1481 59.0126 58.5919 63.0188C59.3703 70.0118 53.8006 75.0679 46.5133 73.9002C39.3054 72.7458 35.4672 66.6349 30.061 62.82C27.9478 61.0916 25.8424 59.3694 23.7293 57.641C22.4986 56.6343 21.2678 55.6276 20.0371 54.6209C18.9535 53.7345 17.8775 52.8545 16.7939 51.9681L13.721 49.5967C10.4194 47.2837 7.12412 44.9629 3.82253 42.65L3.8162 42.6577Z" fill="#13110C"/>
<path id="Vector_2" d="M29.1193 19.9204C27.7802 18.825 26.4411 17.7297 25.1021 16.6344C18.0046 25.3114 10.9072 33.9884 3.80973 42.6654C7.11132 44.9784 10.4066 47.2991 13.7082 49.6121C14.6458 47.4076 15.0169 44.5847 16.6321 43.1154C23.5744 36.792 23.9003 27.0591 29.1193 19.9204Z" fill="#858180"/>
<path id="Vector_3" d="M30.0405 62.8291C35.439 66.6377 39.2772 72.7486 46.4928 73.9093C53.7801 75.077 59.3498 70.0209 58.5714 63.028C58.1276 59.0217 55.9258 57.4016 52.0603 57.405C50.9169 57.4129 49.7756 56.9444 48.6273 56.6899C48.7489 55.9884 48.8769 55.2791 48.9985 54.5776C51.5949 55.2415 54.7723 55.1791 56.6533 56.7177C59.7558 59.2425 62.9911 60.6098 65.7108 57.8218C67.5287 55.9627 68.5723 52.1912 68.1526 49.5612C67.5548 45.7907 64.2159 43.8865 60.1829 43.9209C59.2598 43.928 58.3402 44.0414 57.4227 44.1049C57.2397 43.6968 57.0631 43.281 56.8723 42.8666C57.9361 42.2768 59.2404 40.9666 60.0137 41.2374C63.0463 42.2839 65.868 43.9201 68.8507 45.1067C69.6641 45.4232 71.1803 45.3069 71.722 44.7552C74.7274 41.697 73.426 38.2812 71.6159 35.3924C69.3576 31.7882 63.7659 30.3796 59.2097 32.1435C56.6107 33.157 54.3109 34.9578 51.2252 36.7876C48.3387 34.7883 44.8802 32.3987 41.4217 30.009C39.4105 32.4205 37.4393 34.8777 35.3661 37.2386C30.2708 43.0573 25.1226 48.8458 19.9963 54.6392C21.227 55.6459 22.4577 56.6525 23.6884 57.6592C24.9561 55.841 26.0042 53.8173 27.5237 52.2438C30.2076 49.4523 33.4093 47.149 35.9553 44.2576C38.2276 41.6849 39.901 38.5966 41.8313 35.7313C42.25 35.867 42.6623 36.0105 43.0809 36.1463C42.9587 37.6224 43.2805 39.3455 42.6256 40.541C38.5443 48.0419 34.2379 55.4232 30.006 62.8397L30.0405 62.8291Z" fill="white"/>
<path id="Vector_4" d="M20.0244 54.6363C25.1508 48.8429 30.2989 43.0545 35.3943 37.2357C37.4675 34.8749 39.4246 32.4191 41.4499 30.0062C38.5705 27.6509 35.6988 25.302 32.8193 22.9467C31.5701 25.3743 29.7741 27.6647 29.1729 30.2477C27.1624 38.7707 21.4901 45.0736 16.7889 51.9898C17.8726 52.8762 18.9485 53.7563 20.0322 54.6427L20.0244 54.6363Z" fill="#858180"/>
<path id="Vector_5" d="M30.0404 62.8292C34.2723 55.4127 38.571 48.025 42.66 40.5305C43.3085 39.3427 42.9868 37.6196 43.1153 36.1357C42.6967 36 42.2844 35.8565 41.8657 35.7208C39.9277 38.5798 38.2479 41.6758 35.9897 44.2471C33.4437 47.1385 30.2497 49.4481 27.5581 52.2333C26.0386 53.8068 24.9827 55.8241 23.7228 57.6487C25.836 59.3772 27.9414 61.0993 30.0545 62.8278L30.0404 62.8292Z" fill="#858180"/>
<path id="Vector_6" d="M16.7733 51.9772C21.4746 45.0609 27.1468 38.758 29.1573 30.2351C29.7662 27.6584 31.5545 25.3616 32.8038 22.9341C31.573 21.9274 30.3423 20.9207 29.1116 19.914C23.8848 27.0464 23.5667 36.7856 16.6244 43.1091C15.0091 44.5784 14.6457 47.4076 13.7004 49.6058C14.7242 50.3915 15.7418 51.1851 16.7733 51.9772Z" fill="white"/>
</g>
<defs>
<clipPath id="clip0_2022_2297">
<rect width="53.9" height="63.68" fill="white" transform="matrix(-0.633135 0.774042 0.774042 0.633135 34.3699 0.67627)"/>
</clipPath>
</defs>
</svg>
