<svg width="42" height="42" viewBox="0 0 42 42" fill="none" xmlns="http://www.w3.org/2000/svg">
<g id="tiktok_svgrepo.com">
<path id="Vector" d="M11.0919 25.9778C11.297 24.2796 11.9935 23.3288 13.306 22.3541C15.1841 21.034 17.5299 21.7807 17.5299 21.7807V17.3509C18.1003 17.3362 18.6708 17.37 19.2348 17.4518V23.1527C19.2348 23.1527 16.8896 22.406 15.0117 23.7267C13.6999 24.7008 13.0019 25.6523 12.7975 27.3506C12.7911 28.2727 12.9642 29.4781 13.7612 30.5204C13.564 30.4193 13.3632 30.3042 13.1586 30.1751C11.4031 28.9962 11.0833 27.2277 11.0919 25.9778ZM28.9212 9.15994C27.6293 7.74429 27.1407 6.31498 26.9641 5.31091H28.5893C28.5893 5.31091 28.2652 7.94359 30.6268 10.5326L30.6596 10.5674C30.023 10.167 29.4394 9.69447 28.9212 9.15994ZM36.75 13.1735V18.7596C36.75 18.7596 34.6763 18.6785 33.1415 18.288C30.9985 17.7419 29.6212 16.9044 29.6212 16.9044C29.6212 16.9044 28.6697 16.3072 28.5928 16.2656V27.801C28.5928 28.4433 28.4169 30.0474 27.8807 31.3852C27.1806 33.1354 26.1003 34.2841 25.9015 34.5189C25.9015 34.5189 24.5876 36.0717 22.2695 37.1175C20.18 38.0608 18.3453 38.0369 17.797 38.0608C17.797 38.0608 14.6257 38.1864 11.772 36.3319C11.1549 35.923 10.5789 35.4601 10.0514 34.9489L10.0656 34.9591C12.92 36.8137 16.0906 36.6881 16.0906 36.6881C16.6397 36.6642 18.4742 36.6881 20.5631 35.7448C22.8791 34.6991 24.1952 33.1463 24.1952 33.1463C24.3918 32.9115 25.4771 31.7627 26.1743 30.0119C26.7091 28.6747 26.8864 27.0699 26.8864 26.4277V14.8936C26.9633 14.9359 27.9141 15.5331 27.9141 15.5331C27.9141 15.5331 29.2922 16.3714 31.4352 16.9167C32.9705 17.3072 35.0438 17.3884 35.0438 17.3884V13.011C35.753 13.17 36.3577 13.2131 36.75 13.1735Z" fill="#EE1D52"/>
<path id="Vector_2" d="M35.0449 13.011V17.387C35.0449 17.387 32.9717 17.3057 31.4363 16.9154C29.2934 16.3693 27.9153 15.5318 27.9153 15.5318C27.9153 15.5318 26.9645 14.9346 26.8876 14.8922V26.4291C26.8876 27.0714 26.7117 28.6761 26.1754 30.0132C25.4754 31.7641 24.395 32.9128 24.1963 33.1476C24.1963 33.1476 22.8817 34.7004 20.5642 35.7462C18.4754 36.6895 16.6409 36.6656 16.0918 36.6895C16.0918 36.6895 12.9212 36.8151 10.0668 34.9606L10.0526 34.9503C9.7512 34.6584 9.46753 34.3504 9.20294 34.0275C8.29207 32.9169 7.73373 31.6036 7.59343 31.2289V31.2241C7.36768 30.573 6.89336 29.0092 6.95818 27.4945C7.07284 24.8223 8.0129 23.1821 8.26145 22.7711C8.91971 21.6506 9.77586 20.648 10.7918 19.8081C11.6883 19.0833 12.7045 18.5065 13.7986 18.1016C14.9814 17.6262 16.248 17.3714 17.5304 17.3509V21.7807C17.5304 21.7807 15.1844 21.0368 13.3072 22.3541C11.9947 23.3288 11.2982 24.2796 11.093 25.9778C11.0845 27.2277 11.4043 28.9962 13.1583 30.1757C13.363 30.3054 13.5638 30.4205 13.7609 30.521C14.0672 30.9194 14.4403 31.2665 14.8647 31.5483C16.5782 32.633 18.0139 32.7087 19.85 32.0043C21.0742 31.5334 21.9957 30.4719 22.423 29.2958C22.6915 28.5615 22.688 27.8221 22.688 27.0577V5.31091H26.961C27.1376 6.31498 27.6262 7.74429 28.918 9.15994C29.4362 9.69447 30.02 10.167 30.6565 10.5674C30.8445 10.7619 31.8059 11.7237 33.0401 12.3141C33.6782 12.6193 34.351 12.8531 35.0449 13.011Z" fill="black"/>
<path id="Vector_3" d="M5.89215 29.8683V29.8717L5.99817 30.1591C5.98599 30.1257 5.94659 30.0239 5.89215 29.8683Z" fill="#69C9D0"/>
<path id="Vector_4" d="M13.7981 18.1015C12.7039 18.5066 11.6878 19.0833 10.7913 19.808C9.77502 20.6499 8.91907 21.6546 8.26164 22.7772C8.01309 23.1868 7.07303 24.8284 6.95837 27.5006C6.89356 29.0152 7.36787 30.5791 7.59362 31.2302V31.2349C7.73605 31.6064 8.29226 32.9195 9.20314 34.0336C9.46772 34.3565 9.75139 34.6646 10.0528 34.9564C9.08719 34.3163 8.22604 33.5426 7.49748 32.6602C6.59444 31.5593 6.03752 30.2596 5.89224 29.876C5.89206 29.8732 5.89206 29.8705 5.89224 29.8678V29.863C5.66576 29.2125 5.19004 27.648 5.25626 26.1314C5.37092 23.4592 6.311 21.8189 6.55955 21.408C7.21678 20.2851 8.07276 19.2804 9.08918 18.4388C9.9855 17.7137 11.0017 17.137 12.096 16.7323C12.7785 16.4609 13.4896 16.2608 14.2169 16.1351C15.3128 15.9518 16.4322 15.9358 17.5334 16.088V17.3508C16.2498 17.3709 14.9819 17.6258 13.7981 18.1015Z" fill="#69C9D0"/>
<path id="Vector_5" d="M26.9637 5.31083H22.6906V27.0584C22.6906 27.8228 22.6906 28.56 22.4258 29.2964C21.9942 30.4719 21.0761 31.5332 19.8526 32.0043C18.016 32.7114 16.5803 32.6329 14.8675 31.5483C14.4422 31.2677 14.0683 30.9217 13.7608 30.5244C15.22 31.2704 16.5261 31.2575 18.1441 30.6351C19.367 30.164 20.2864 29.1026 20.7165 27.9266C20.9857 27.1921 20.9821 26.4529 20.9821 25.689V3.9375H26.8825C26.8825 3.9375 26.8163 4.47809 26.9637 5.31083ZM35.044 11.8007V13.0109C34.3514 12.8528 33.6799 12.619 33.0428 12.314C31.8087 11.7236 30.8472 10.7619 30.6592 10.5673C30.8773 10.7046 31.1038 10.8295 31.3371 10.9414C32.8377 11.6595 34.3154 11.8738 35.044 11.8007Z" fill="#69C9D0"/>
</g>
</svg>
