<svg width="42" height="42" viewBox="0 0 42 42" fill="none" xmlns="http://www.w3.org/2000/svg">
<g id="X_svgrepo.com" clip-path="url(#clip0_2134_1364)">
<g id="Layer 1">
<g id="Group">
<path id="Vector" d="M38.9834 37.7157L24.9104 17.7361L23.3193 15.4765L13.2525 1.18441L12.4184 0H0.0484314L3.06535 4.28434L16.4504 23.2895L18.0414 25.5468L28.796 40.817L29.6304 42.0003H42.0003L38.9834 37.716V37.7157ZM31.1005 39.2656L19.9273 23.4015L18.3363 21.1432L5.37091 2.73438H10.948L21.4331 17.6218L23.0241 19.88L36.6775 39.2653H31.1005V39.2656Z" fill="black"/>
<path id="Vector_2" d="M18.3363 21.1428L19.9273 23.4011L18.0411 25.5464L3.56883 42H0L16.45 23.2891L18.3363 21.1428Z" fill="black"/>
<path id="Vector_3" d="M40.5108 0L24.9104 17.7361L23.0241 19.88L21.4331 17.6218L23.3193 15.4765L33.8869 3.45649L36.942 0H40.5108Z" fill="black"/>
</g>
</g>
</g>
<defs>
<clipPath id="clip0_2134_1364">
<rect width="42" height="42" fill="white"/>
</clipPath>
</defs>
</svg>
